SplineFontDB: 3.0
FontName: Tanha
FullName: Tanha
FamilyName: Tanha
Weight: Regular
Copyright: Copyright (c) 2003 by Bitstream, Inc. All Rights Reserved.\nDejaVu changes are in public domain\nChanges by Saber Rastikerdar are in public domain.
Version: 0.6
ItalicAngle: 0
UnderlinePosition: -500
UnderlineWidth: 100
Ascent: 1638
Descent: 410
InvalidEm: 0
LayerCount: 2
Layer: 0 1 "Back" 1
Layer: 1 1 "Fore" 0
XUID: [1021 502 1027637223 1298441]
UniqueID: 4062413
UseUniqueID: 1
FSType: 0
OS2Version: 3
OS2_WeightWidthSlopeOnly: 0
OS2_UseTypoMetrics: 1
CreationTime: 1431850356
ModificationTime: 1505608642
PfmFamily: 33
TTFWeight: 400
TTFWidth: 5
LineGap: 0
VLineGap: 0
Panose: 2 11 6 3 3 8 4 2 2 4
OS2TypoAscent: 2250
OS2TypoAOffset: 0
OS2TypoDescent: -1100
OS2TypoDOffset: 0
OS2TypoLinegap: 0
OS2WinAscent: 2250
OS2WinAOffset: 0
OS2WinDescent: 1100
OS2WinDOffset: 0
HheadAscent: 2250
HheadAOffset: 0
HheadDescent: -1100
HheadDOffset: 0
OS2SubXSize: 1331
OS2SubYSize: 1433
OS2SubXOff: 0
OS2SubYOff: 286
OS2SupXSize: 1331
OS2SupYSize: 1433
OS2SupXOff: 0
OS2SupYOff: 983
OS2StrikeYSize: 102
OS2StrikeYPos: 530
OS2CapHeight: 1638
OS2XHeight: 1082
OS2Vendor: 'PfEd'
OS2CodePages: 00000041.20080000
OS2UnicodeRanges: 80002003.80000000.00000008.00000000
Lookup: 1 9 0 "'fina' Terminal Forms in Arabic lookup 9" { "'fina' Terminal Forms in Arabic lookup 9 subtable"  } ['fina' ('arab' <'KUR ' 'SND ' 'URD ' 'dflt' > ) ]
Lookup: 1 9 0 "'medi' Medial Forms in Arabic lookup 11" { "'medi' Medial Forms in Arabic lookup 11 subtable"  } ['medi' ('arab' <'KUR ' 'SND ' 'URD ' 'dflt' > ) ]
Lookup: 1 9 0 "'init' Initial Forms in Arabic lookup 13" { "'init' Initial Forms in Arabic lookup 13 subtable"  } ['init' ('arab' <'KUR ' 'SND ' 'URD ' 'dflt' > ) ]
Lookup: 4 1 1 "'rlig' Required Ligatures in Arabic lookup 14" { "'rlig' Required Ligatures in Arabic lookup 14 subtable"  } ['rlig' ('arab' <'KUR ' 'dflt' > ) ]

StartChar: exclam
Encoding: 33 33 1
Width: 628
VWidth: 2453
GlyphClass: 2
Flags: W
LayerCount: 2
Fore
SplineSet
175.127929688 140.606445312 m 128,-1,1
 175.127929688 198.256835938 175.127929688 198.256835938 215.129882812 238.259765625 c 128,-1,2
 255.1328125 278.26171875 255.1328125 278.26171875 313.959960938 279.438476562 c 0,3,4
 372.787109375 278.26171875 372.787109375 278.26171875 412.790039062 238.259765625 c 128,-1,5
 452.79296875 198.256835938 452.79296875 198.256835938 452.79296875 140.606445312 c 128,-1,6
 452.79296875 82.955078125 452.79296875 82.955078125 412.790039062 42.953125 c 128,-1,7
 372.787109375 2.9501953125 372.787109375 2.9501953125 313.959960938 1.7744140625 c 0,8,9
 255.1328125 2.9501953125 255.1328125 2.9501953125 215.129882812 42.953125 c 128,-1,0
 175.127929688 82.955078125 175.127929688 82.955078125 175.127929688 140.606445312 c 128,-1,1
283 1398.10449219 m 2,10,-1
 353 1398.10449219 l 2,11,12
 421.748046875 1398.10449219 421.748046875 1398.10449219 418.612940265 1265 c 6,13,-1
 399.666015625 460.586914062 l 1,14,-1
 235.182617188 460.586914062 l 1,15,-1
 215.336638974 1263 l 2,16,17
 211.995117187 1398.10449219 211.995117187 1398.10449219 283 1398.10449219 c 2,10,-1
EndSplineSet
EndChar

StartChar: period
Encoding: 46 46 2
Width: 628
VWidth: 2453
GlyphClass: 2
Flags: W
LayerCount: 2
Fore
SplineSet
175.127929688 140.606445312 m 132,-1,1
 175.127929688 198.256835938 175.127929688 198.256835938 215.129882812 238.259765625 c 132,-1,2
 255.1328125 278.26171875 255.1328125 278.26171875 313.959960938 279.438476562 c 4,3,4
 372.787109375 278.26171875 372.787109375 278.26171875 412.790039062 238.259765625 c 132,-1,5
 452.79296875 198.256835938 452.79296875 198.256835938 452.79296875 140.606445312 c 132,-1,6
 452.79296875 82.955078125 452.79296875 82.955078125 412.790039062 42.953125 c 132,-1,7
 372.787109375 2.9501953125 372.787109375 2.9501953125 313.959960938 1.7744140625 c 4,8,9
 255.1328125 2.9501953125 255.1328125 2.9501953125 215.129882812 42.953125 c 132,-1,0
 175.127929688 82.955078125 175.127929688 82.955078125 175.127929688 140.606445312 c 132,-1,1
EndSplineSet
EndChar

StartChar: colon
Encoding: 58 58 3
Width: 627
VWidth: 2453
GlyphClass: 2
Flags: W
LayerCount: 2
Fore
SplineSet
175.127929688 912.796875 m 128,-1,1
 175.127929688 970.447265625 175.127929688 970.447265625 215.129882812 1010.44921875 c 128,-1,2
 255.1328125 1050.45214844 255.1328125 1050.45214844 313.959960938 1051.62890625 c 0,3,4
 372.787109375 1050.45214844 372.787109375 1050.45214844 412.790039062 1010.44921875 c 128,-1,5
 452.79296875 970.447265625 452.79296875 970.447265625 452.79296875 912.796875 c 128,-1,6
 452.79296875 855.145507812 452.79296875 855.145507812 412.790039062 815.142578125 c 128,-1,7
 372.787109375 775.139648438 372.787109375 775.139648438 313.959960938 773.963867188 c 0,8,9
 255.1328125 775.139648438 255.1328125 775.139648438 215.129882812 815.142578125 c 128,-1,0
 175.127929688 855.145507812 175.127929688 855.145507812 175.127929688 912.796875 c 128,-1,1
175.127929688 140.606445312 m 128,-1,11
 175.127929688 198.256835938 175.127929688 198.256835938 215.129882812 238.259765625 c 128,-1,12
 255.1328125 278.26171875 255.1328125 278.26171875 313.959960938 279.438476562 c 0,13,14
 372.787109375 278.26171875 372.787109375 278.26171875 412.790039062 238.259765625 c 128,-1,15
 452.79296875 198.256835938 452.79296875 198.256835938 452.79296875 140.606445312 c 128,-1,16
 452.79296875 82.955078125 452.79296875 82.955078125 412.790039062 42.953125 c 128,-1,17
 372.787109375 2.9501953125 372.787109375 2.9501953125 313.959960938 1.7744140625 c 0,18,19
 255.1328125 2.9501953125 255.1328125 2.9501953125 215.129882812 42.953125 c 128,-1,10
 175.127929688 82.955078125 175.127929688 82.955078125 175.127929688 140.606445312 c 128,-1,11
EndSplineSet
EndChar

StartChar: afii57388
Encoding: 1548 1548 5
Width: 711
VWidth: 2460
GlyphClass: 2
Flags: W
LayerCount: 2
Fore
SplineSet
362.901367188 0.0205078125 m 4,0,1
 226.64453125 2.236328125 226.64453125 2.236328125 209.127929688 124.504882812 c 4,2,3
 199.30859375 193.047851562 199.30859375 193.047851562 219.75390625 285.102539062 c 4,4,5
 265.904296875 516.3671875 265.904296875 516.3671875 460.435546875 661.076171875 c 5,6,-1
 520.865234375 623.487304688 l 5,7,8
 364.181640625 488.358398438 364.181640625 488.358398438 349.831054688 283.223632812 c 5,9,10
 454.965820312 284.875976562 454.965820312 284.875976562 492.810546875 237.754882812 c 4,11,12
 531.141601562 190.9609375 531.141601562 190.9609375 523.8046875 109.95703125 c 4,13,14
 512.358398438 -2.0869140625 512.358398438 -2.0869140625 362.901367188 0.0205078125 c 4,0,1
EndSplineSet
EndChar

StartChar: uni0615
Encoding: 1557 1557 6
Width: -29
VWidth: 2522
GlyphClass: 4
Flags: W
AnchorPoint: "Anchor-10" 610.859 1513.4 mark 0
AnchorPoint: "Anchor-9" 610.859 1513.4 mark 0
AnchorPoint: "Anchor-1" 624.008 2277.57 basemark 0
AnchorPoint: "Anchor-1" 610.859 1513.4 mark 0
LayerCount: 2
Fore
SplineSet
515.500976562 1672.81054688 m 1,0,-1
 628.9609375 1672.81054688 l 2,1,2
 723.974609375 1672.81054688 723.974609375 1672.81054688 783.770507812 1708.57519531 c 128,-1,3
 843.565429688 1744.33886719 843.565429688 1744.33886719 843.565429688 1785.54101562 c 128,-1,4
 843.565429688 1826.7421875 843.565429688 1826.7421875 816.188476562 1841.57128906 c 0,5,6
 720.525390625 1894.96289062 720.525390625 1894.96289062 515.500976562 1672.81054688 c 1,0,-1
925.62109375 1795.84277344 m 0,7,8
 925.947265625 1590.79199219 925.947265625 1590.79199219 657.434570312 1590.79199219 c 2,9,-1
 323.6328125 1590.79199219 l 1,10,-1
 323.6328125 1672.81054688 l 1,11,-1
 423.913085938 1672.81054688 l 1,12,-1
 423.913085938 2166.75683594 l 1,13,-1
 507.1640625 2165.71386719 l 1,14,-1
 506.294921875 1750.93554688 l 1,15,16
 699.491210938 1970.03515625 699.491210938 1970.03515625 838.5625 1919.9609375 c 0,17,18
 925.944335938 1887.59667969 925.944335938 1887.59667969 925.62109375 1795.84277344 c 0,7,8
EndSplineSet
EndChar

StartChar: uni061B
Encoding: 1563 1563 7
Width: 711
VWidth: 2460
GlyphClass: 2
Flags: W
LayerCount: 2
Fore
SplineSet
227.302734375 140.606445312 m 128,-1,1
 227.302734375 198.256835938 227.302734375 198.256835938 267.3046875 238.259765625 c 128,-1,2
 307.307617188 278.26171875 307.307617188 278.26171875 366.134765625 279.438476562 c 0,3,4
 424.961914062 278.26171875 424.961914062 278.26171875 464.96484375 238.259765625 c 128,-1,5
 504.96875 198.256835938 504.96875 198.256835938 504.96875 140.606445312 c 128,-1,6
 504.96875 82.955078125 504.96875 82.955078125 464.96484375 42.953125 c 128,-1,7
 424.961914062 2.9501953125 424.961914062 2.9501953125 366.134765625 1.7744140625 c 0,8,9
 307.307617188 2.9501953125 307.307617188 2.9501953125 267.3046875 42.953125 c 128,-1,0
 227.302734375 82.955078125 227.302734375 82.955078125 227.302734375 140.606445312 c 128,-1,1
362.901367188 459.16015625 m 0,10,11
 226.439453125 461.2265625 226.439453125 461.2265625 209.127929688 583.64453125 c 0,12,13
 200.3515625 648.013671875 200.3515625 648.013671875 219.75390625 744.243164062 c 0,14,15
 267.135742188 976.715820312 267.135742188 976.715820312 460.435546875 1120.21679688 c 1,16,-1
 520.865234375 1082.62695312 l 1,17,18
 364.181640625 947.498046875 364.181640625 947.498046875 349.831054688 742.36328125 c 1,19,20
 454.965820312 744.015625 454.965820312 744.015625 492.810546875 696.89453125 c 0,21,22
 531.141601562 650.100585938 531.141601562 650.100585938 523.8046875 569.096679688 c 0,23,24
 512.358398438 457.052734375 512.358398438 457.052734375 362.901367188 459.16015625 c 0,10,11
EndSplineSet
EndChar

StartChar: uni061F
Encoding: 1567 1567 8
Width: 942
VWidth: 2453
GlyphClass: 2
Flags: W
LayerCount: 2
Fore
SplineSet
434.612304688 140.606445312 m 128,-1,1
 434.612304688 198.256835938 434.612304688 198.256835938 474.614257812 238.259765625 c 128,-1,2
 514.6171875 278.26171875 514.6171875 278.26171875 573.444335938 279.438476562 c 0,3,4
 632.271484375 278.26171875 632.271484375 278.26171875 672.274414062 238.259765625 c 128,-1,5
 712.278320312 198.256835938 712.278320312 198.256835938 712.278320312 140.606445312 c 128,-1,6
 712.278320312 82.955078125 712.278320312 82.955078125 672.274414062 42.953125 c 128,-1,7
 632.271484375 2.9501953125 632.271484375 2.9501953125 573.444335938 1.7744140625 c 0,8,9
 514.6171875 2.9501953125 514.6171875 2.9501953125 474.614257812 42.953125 c 128,-1,0
 434.612304688 82.955078125 434.612304688 82.955078125 434.612304688 140.606445312 c 128,-1,1
476.452148438 457.939453125 m 1,10,-1
 476.452148438 467.35546875 l 2,11,12
 476 507.95703125 476 507.95703125 353.563476562 627.610351562 c 2,13,-1
 253.9609375 724.948242188 l 2,14,15
 102 873 102 873 103.21875 1037.00292969 c 0,16,17
 104 1182 104 1182 222.52734375 1288.11523438 c 0,18,19
 332 1387 332 1387 495.141601562 1386.95703125 c 0,20,21
 721 1387 721 1387 830 1233.50585938 c 0,22,23
 846.015625 1210.97851562 846.015625 1210.97851562 833.86328125 1195 c 2,24,-1
 762.370117188 1101 l 2,25,26
 747 1081 747 1081 731 1101.19238281 c 0,27,28
 638 1214 638 1214 503.490234375 1211.53808594 c 0,29,30
 416 1210 416 1210 344.96484375 1149.93847656 c 0,31,32
 281 1096 281 1096 283.52734375 1010.79199219 c 0,33,34
 284.99609375 938.180664062 284.99609375 938.180664062 408.749023438 815.803710938 c 2,35,-1
 510.498046875 715.185546875 l 2,36,37
 672.631835938 555.36328125 672.631835938 555.36328125 672.631835938 469.57421875 c 2,38,-1
 672.631835938 457.939453125 l 1,39,-1
 476.452148438 457.939453125 l 1,10,-1
EndSplineSet
EndChar

StartChar: uni0621
Encoding: 1569 1569 9
Width: 926
VWidth: 2619
GlyphClass: 2
Flags: W
AnchorPoint: "Anchor-7" 348.419 -298.726 basechar 0
AnchorPoint: "Anchor-10" 427.988 1220.14 basechar 0
LayerCount: 2
Fore
SplineSet
142.915039062 4.5390625 m 5,0,-1
 142.915039062 198.762695312 l 5,1,2
 258.788085938 273.397460938 258.788085938 273.397460938 342.267578125 299.484375 c 5,3,4
 154.438476562 397.573242188 154.438476562 397.573242188 151.240234375 542.620117188 c 4,5,6
 149.220703125 632.361328125 149.220703125 632.361328125 180.44140625 701.232421875 c 4,7,8
 259.831054688 876.540039062 259.831054688 876.540039062 461.2265625 880.61328125 c 4,9,10
 622.969726562 883.844726562 622.969726562 883.844726562 733.580078125 784.711914062 c 5,11,-1
 677.231445312 657.405273438 l 5,12,13
 587.490234375 709.580078125 587.490234375 709.580078125 501.91015625 708.850585938 c 4,14,15
 421.978515625 708.635742188 421.978515625 708.635742188 376.703125 678.752929688 c 4,16,17
 317.014648438 639.35546875 317.014648438 639.35546875 312.734375 556.802734375 c 4,18,19
 307.83203125 464.357421875 307.83203125 464.357421875 506.877929688 379.982421875 c 5,20,-1
 762.798828125 432.008789062 l 5,21,-1
 789.9296875 244.178710938 l 5,22,23
 518.619140625 216.004882812 518.619140625 216.004882812 142.915039062 4.5390625 c 5,0,-1
EndSplineSet
EndChar

StartChar: uni0627
Encoding: 1575 1575 15
Width: 512
VWidth: 2529
GlyphClass: 2
Flags: W
AnchorPoint: "Anchor-10" 243.451 1568.6 basechar 0
AnchorPoint: "Anchor-7" 230.081 -262.707 basechar 0
LayerCount: 2
Fore
SplineSet
336.028320312 1297.0703125 m 4,0,1
 365.344726562 1071.58691406 365.344726562 1071.58691406 366.16015625 692.036132812 c 4,2,3
 367.138671875 236.874023438 367.138671875 236.874023438 270.719726562 1.7412109375 c 5,4,-1
 137.461914062 1.7412109375 l 5,5,6
 209.711914062 415.776367188 209.711914062 415.776367188 205.3046875 743.459960938 c 4,7,8
 201.37109375 1035.93261719 201.37109375 1035.93261719 179.80078125 1290.80957031 c 4,9,10
 174.65234375 1351.63378906 174.65234375 1351.63378906 216.874023438 1351.63378906 c 6,11,-1
 287.83203125 1351.63378906 l 6,12,13
 328.934570312 1351.63378906 328.934570312 1351.63378906 336.028320312 1297.0703125 c 4,0,1
EndSplineSet
Substitution2: "'fina' Terminal Forms in Arabic lookup 9 subtable" uniFE8E
EndChar

StartChar: uni062D
Encoding: 1581 1581 21
Width: 1311
VWidth: 2529
GlyphClass: 2
Flags: W
AnchorPoint: "Anchor-10" 570.188 1237.51 basechar 0
AnchorPoint: "Anchor-7" 447.098 -977.231 basechar 0
LayerCount: 2
Fore
SplineSet
308.172851562 -216.170898438 m 24,0,1
 307.83203125 -541.576171875 307.83203125 -541.576171875 728.36328125 -541.711914062 c 0,2,3
 923.497070312 -541.576171875 923.497070312 -541.576171875 1108.19726562 -467.028320312 c 0,4,5
 1174.96972656 -440.361328125 1174.96972656 -440.361328125 1184.99316406 -487.314453125 c 2,6,-1
 1201.03320312 -562.446289062 l 2,7,8
 1211.50390625 -613.578125 1211.50390625 -613.578125 1152.02441406 -638.7734375 c 0,9,10
 970.455078125 -715.840820312 970.455078125 -715.840820312 716.884765625 -715.5 c 0,11,12
 464.357421875 -714.797851562 464.357421875 -714.797851562 325.572265625 -614.307617188 c 0,13,14
 139.829101562 -481.053710938 139.829101562 -481.053710938 140.529296875 -219.353515625 c 0,15,16
 142.959960938 315.13671875 142.959960938 315.13671875 796.190429688 539.489257812 c 1,17,18
 578.098632812 595.838867188 578.098632812 595.838867188 453.568359375 591.856445312 c 0,19,20
 337.05078125 588.534179688 337.05078125 588.534179688 188.873046875 397.573242188 c 1,21,-1
 62.6103515625 471.662109375 l 1,22,23
 237.665039062 757.829101562 237.665039062 757.829101562 447.306640625 771.505859375 c 0,24,25
 569.750976562 779.494140625 569.750976562 779.494140625 791.1484375 725.28515625 c 0,26,27
 996.904296875 675.008789062 996.904296875 675.008789062 1124.89257812 618.765625 c 0,28,29
 1177.23925781 595.762695312 1177.23925781 595.762695312 1172.80078125 566.620117188 c 2,30,-1
 1163.265625 504.010742188 l 2,31,32
 1156.19824219 456.009765625 1156.19824219 456.009765625 1093.58789062 449.762695312 c 0,33,34
 908.888671875 432.008789062 908.888671875 432.008789062 693.806640625 318.545898438 c 0,35,36
 308.875976562 115.828125 308.875976562 115.828125 308.172851562 -216.170898438 c 24,0,1
EndSplineSet
Substitution2: "'fina' Terminal Forms in Arabic lookup 9 subtable" uniFEA2
Substitution2: "'medi' Medial Forms in Arabic lookup 11 subtable" uniFEA4
Substitution2: "'init' Initial Forms in Arabic lookup 13 subtable" uniFEA3
EndChar

StartChar: uni062F
Encoding: 1583 1583 23
Width: 1008
VWidth: 2529
GlyphClass: 2
Flags: W
AnchorPoint: "Anchor-10" 481.017 1408.27 basechar 0
AnchorPoint: "Anchor-7" 398.477 -232.891 basechar 0
LayerCount: 2
Fore
SplineSet
441.823242188 184.4453125 m 0,0,1
 729 199 729 199 732.366210938 348.529296875 c 0,2,3
 734 429 734 429 686.5078125 511.282226562 c 0,4,5
 596 667 596 667 463.838867188 769.321289062 c 0,6,7
 406.981474983 813.014235837 406.981474983 813.014235837 428.678710938 844.453125 c 2,8,-1
 487.01171875 928.9765625 l 2,9,10
 519 975 519 975 569.008789062 932.107421875 c 0,11,12
 923.943879735 634.20779481 923.943879735 634.20779481 892.837890625 332.837890625 c 4,13,14
 859 5 859 5 439.115234375 -2.82421875 c 0,15,16
 278 -6 278 -6 165.916015625 18.9287109375 c 0,17,18
 105.129882812 31.9721298945 105.129882812 31.9721298945 105.129882812 90.7841796875 c 2,19,-1
 105.129882812 175.307617188 l 2,20,21
 105 229 105 229 175.307617188 215.045898438 c 0,22,23
 352 180 352 180 441.823242188 184.4453125 c 0,0,1
EndSplineSet
Substitution2: "'fina' Terminal Forms in Arabic lookup 9 subtable" uniFEAA
EndChar

StartChar: uni0631
Encoding: 1585 1585 25
Width: 845
VWidth: 2534
GlyphClass: 2
Flags: W
AnchorPoint: "Anchor-7" 400.69 -705.191 basechar 0
AnchorPoint: "Anchor-10" 417.975 1072.71 basechar 0
LayerCount: 2
Fore
SplineSet
689 -95.5226564953 m 4,0,1
 554.877325898 -446.083907781 554.877325898 -446.083907781 121.045898438 -503.659179688 c 0,2,3
 96.1820384327 -506.975718272 96.1820384327 -506.975718272 81.3740234375 -487.576171875 c 2,4,-1
 30.396484375 -420.791992188 l 2,5,6
 4 -386 4 -386 42.783203125 -377.120117188 c 0,7,8
 532.853377848 -256.543997737 532.853377848 -256.543997737 567.866210938 113.934570312 c 0,9,10
 576 203 576 203 564.1171875 445.139648438 c 0,11,12
 560.98182493 505.349021691 560.98182493 505.349021691 606.2734375 514.936523438 c 2,13,-1
 687.666015625 532.166015625 l 2,14,15
 736 542 736 542 738.591796875 473.314453125 c 0,16,17
 743.976174455 339.125365647 743.976174455 339.125365647 743.852906741 247 c 0,18,19
 743.585498044 47.1494205756 743.585498044 47.1494205756 689 -95.5226564953 c 4,0,1
EndSplineSet
PairPos2: "'kern' Horizontal Kerning lookup 15-1" uniFEE7 dx=-157 dy=0 dh=-157 dv=0 dx=0 dy=0 dh=0 dv=0
PairPos2: "'kern' Horizontal Kerning lookup 15-2" uniFB90 dx=-198 dy=0 dh=-198 dv=0 dx=0 dy=0 dh=0 dv=0
PairPos2: "'kern' Horizontal Kerning lookup 15-2" uniFB8E dx=-198 dy=0 dh=-198 dv=0 dx=0 dy=0 dh=0 dv=0
PairPos2: "'kern' Horizontal Kerning lookup 15-2" uni06A9 dx=-198 dy=0 dh=-198 dv=0 dx=0 dy=0 dh=0 dv=0
PairPos2: "'kern' Horizontal Kerning lookup 15-2" uni064A dx=-52 dy=0 dh=-52 dv=0 dx=0 dy=0 dh=0 dv=0
PairPos2: "'kern' Horizontal Kerning lookup 15-2" afii57414 dx=-52 dy=0 dh=-52 dv=0 dx=0 dy=0 dh=0 dv=0
PairPos2: "'kern' Horizontal Kerning lookup 15-2" uni0649 dx=-52 dy=0 dh=-52 dv=0 dx=0 dy=0 dh=0 dv=0
PairPos2: "'kern' Horizontal Kerning lookup 15-2" uni0648 dx=-52 dy=0 dh=-52 dv=0 dx=0 dy=0 dh=0 dv=0
PairPos2: "'kern' Horizontal Kerning lookup 15-2" afii57412 dx=-52 dy=0 dh=-52 dv=0 dx=0 dy=0 dh=0 dv=0
PairPos2: "'kern' Horizontal Kerning lookup 15-2" uniFEEB dx=-157 dy=0 dh=-157 dv=0 dx=0 dy=0 dh=0 dv=0
PairPos2: "'kern' Horizontal Kerning lookup 15-2" uni0647 dx=-157 dy=0 dh=-157 dv=0 dx=0 dy=0 dh=0 dv=0
PairPos2: "'kern' Horizontal Kerning lookup 15-2" uni0646 dx=-52 dy=0 dh=-52 dv=0 dx=0 dy=0 dh=0 dv=0
PairPos2: "'kern' Horizontal Kerning lookup 15-2" uniFEE3 dx=-157 dy=0 dh=-157 dv=0 dx=0 dy=0 dh=0 dv=0
PairPos2: "'kern' Horizontal Kerning lookup 15-2" uni0645 dx=-157 dy=0 dh=-157 dv=0 dx=0 dy=0 dh=0 dv=0
PairPos2: "'kern' Horizontal Kerning lookup 15-2" uniFEFB dx=-157 dy=0 dh=-157 dv=0 dx=0 dy=0 dh=0 dv=0
PairPos2: "'kern' Horizontal Kerning lookup 15-2" uniFEDF dx=-157 dy=0 dh=-157 dv=0 dx=0 dy=0 dh=0 dv=0
PairPos2: "'kern' Horizontal Kerning lookup 15-2" uni0644 dx=-52 dy=0 dh=-52 dv=0 dx=0 dy=0 dh=0 dv=0
PairPos2: "'kern' Horizontal Kerning lookup 15-2" uniFEDB dx=-198 dy=0 dh=-198 dv=0 dx=0 dy=0 dh=0 dv=0
PairPos2: "'kern' Horizontal Kerning lookup 15-2" uni0643 dx=-157 dy=0 dh=-157 dv=0 dx=0 dy=0 dh=0 dv=0
PairPos2: "'kern' Horizontal Kerning lookup 15-2" uniFED7 dx=-157 dy=0 dh=-157 dv=0 dx=0 dy=0 dh=0 dv=0
PairPos2: "'kern' Horizontal Kerning lookup 15-2" uni0642 dx=-52 dy=0 dh=-52 dv=0 dx=0 dy=0 dh=0 dv=0
PairPos2: "'kern' Horizontal Kerning lookup 15-2" uniFED3 dx=-157 dy=0 dh=-157 dv=0 dx=0 dy=0 dh=0 dv=0
PairPos2: "'kern' Horizontal Kerning lookup 15-2" uni0641 dx=-157 dy=0 dh=-157 dv=0 dx=0 dy=0 dh=0 dv=0
PairPos2: "'kern' Horizontal Kerning lookup 15-2" uniFECF dx=-157 dy=0 dh=-157 dv=0 dx=0 dy=0 dh=0 dv=0
PairPos2: "'kern' Horizontal Kerning lookup 15-2" uniFECB dx=-157 dy=0 dh=-157 dv=0 dx=0 dy=0 dh=0 dv=0
PairPos2: "'kern' Horizontal Kerning lookup 15-2" uniFEC7 dx=-157 dy=0 dh=-157 dv=0 dx=0 dy=0 dh=0 dv=0
PairPos2: "'kern' Horizontal Kerning lookup 15-2" uni0638 dx=-157 dy=0 dh=-157 dv=0 dx=0 dy=0 dh=0 dv=0
PairPos2: "'kern' Horizontal Kerning lookup 15-2" uniFEC3 dx=-157 dy=0 dh=-157 dv=0 dx=0 dy=0 dh=0 dv=0
PairPos2: "'kern' Horizontal Kerning lookup 15-2" uni0637 dx=-157 dy=0 dh=-157 dv=0 dx=0 dy=0 dh=0 dv=0
PairPos2: "'kern' Horizontal Kerning lookup 15-2" uniFEBF dx=-157 dy=0 dh=-157 dv=0 dx=0 dy=0 dh=0 dv=0
PairPos2: "'kern' Horizontal Kerning lookup 15-2" uni0636 dx=-157 dy=0 dh=-157 dv=0 dx=0 dy=0 dh=0 dv=0
PairPos2: "'kern' Horizontal Kerning lookup 15-2" uniFEBB dx=-157 dy=0 dh=-157 dv=0 dx=0 dy=0 dh=0 dv=0
PairPos2: "'kern' Horizontal Kerning lookup 15-2" uni0635 dx=-157 dy=0 dh=-157 dv=0 dx=0 dy=0 dh=0 dv=0
PairPos2: "'kern' Horizontal Kerning lookup 15-2" uniFEB7 dx=-157 dy=0 dh=-157 dv=0 dx=0 dy=0 dh=0 dv=0
PairPos2: "'kern' Horizontal Kerning lookup 15-2" uni0634 dx=-157 dy=0 dh=-157 dv=0 dx=0 dy=0 dh=0 dv=0
PairPos2: "'kern' Horizontal Kerning lookup 15-2" uniFEB3 dx=-157 dy=0 dh=-157 dv=0 dx=0 dy=0 dh=0 dv=0
PairPos2: "'kern' Horizontal Kerning lookup 15-2" uni0633 dx=-157 dy=0 dh=-157 dv=0 dx=0 dy=0 dh=0 dv=0
PairPos2: "'kern' Horizontal Kerning lookup 15-2" uni0632 dx=-52 dy=0 dh=-52 dv=0 dx=0 dy=0 dh=0 dv=0
PairPos2: "'kern' Horizontal Kerning lookup 15-2" uni0631 dx=-52 dy=0 dh=-52 dv=0 dx=0 dy=0 dh=0 dv=0
PairPos2: "'kern' Horizontal Kerning lookup 15-2" uni0630 dx=-157 dy=0 dh=-157 dv=0 dx=0 dy=0 dh=0 dv=0
PairPos2: "'kern' Horizontal Kerning lookup 15-2" uni062F dx=-157 dy=0 dh=-157 dv=0 dx=0 dy=0 dh=0 dv=0
PairPos2: "'kern' Horizontal Kerning lookup 15-2" uniFEA7 dx=-157 dy=0 dh=-157 dv=0 dx=0 dy=0 dh=0 dv=0
PairPos2: "'kern' Horizontal Kerning lookup 15-2" uniFEA3 dx=-157 dy=0 dh=-157 dv=0 dx=0 dy=0 dh=0 dv=0
PairPos2: "'kern' Horizontal Kerning lookup 15-2" uniFE9F dx=-157 dy=0 dh=-157 dv=0 dx=0 dy=0 dh=0 dv=0
PairPos2: "'kern' Horizontal Kerning lookup 15-2" uniFE9B dx=-157 dy=0 dh=-157 dv=0 dx=0 dy=0 dh=0 dv=0
PairPos2: "'kern' Horizontal Kerning lookup 15-2" uni062B dx=-157 dy=0 dh=-157 dv=0 dx=0 dy=0 dh=0 dv=0
PairPos2: "'kern' Horizontal Kerning lookup 15-2" uniFE97 dx=-157 dy=0 dh=-157 dv=0 dx=0 dy=0 dh=0 dv=0
PairPos2: "'kern' Horizontal Kerning lookup 15-2" uni062A dx=-157 dy=0 dh=-157 dv=0 dx=0 dy=0 dh=0 dv=0
PairPos2: "'kern' Horizontal Kerning lookup 15-2" uni0629 dx=-157 dy=0 dh=-157 dv=0 dx=0 dy=0 dh=0 dv=0
PairPos2: "'kern' Horizontal Kerning lookup 15-2" uniFE91 dx=-52 dy=0 dh=-52 dv=0 dx=0 dy=0 dh=0 dv=0
PairPos2: "'kern' Horizontal Kerning lookup 15-2" uni0628 dx=-157 dy=0 dh=-157 dv=0 dx=0 dy=0 dh=0 dv=0
PairPos2: "'kern' Horizontal Kerning lookup 15-2" uni0627 dx=-198 dy=0 dh=-198 dv=0 dx=0 dy=0 dh=0 dv=0
PairPos2: "'kern' Horizontal Kerning lookup 15-2" uni0623 dx=-198 dy=0 dh=-198 dv=0 dx=0 dy=0 dh=0 dv=0
PairPos2: "'kern' Horizontal Kerning lookup 15-2" uni0622 dx=-198 dy=0 dh=-198 dv=0 dx=0 dy=0 dh=0 dv=0
PairPos2: "'kern' Horizontal Kerning lookup 15-2" uni0621 dx=-157 dy=0 dh=-157 dv=0 dx=0 dy=0 dh=0 dv=0
PairPos2: "'kern' Horizontal Kerning lookup 15-2" uniFB94 dx=-198 dy=0 dh=-198 dv=0 dx=0 dy=0 dh=0 dv=0
PairPos2: "'kern' Horizontal Kerning lookup 15-2" uniFB92 dx=-198 dy=0 dh=-198 dv=0 dx=0 dy=0 dh=0 dv=0
PairPos2: "'kern' Horizontal Kerning lookup 15-2" afii57509 dx=-198 dy=0 dh=-198 dv=0 dx=0 dy=0 dh=0 dv=0
PairPos2: "'kern' Horizontal Kerning lookup 15-2" afii57508 dx=-52 dy=0 dh=-52 dv=0 dx=0 dy=0 dh=0 dv=0
PairPos2: "'kern' Horizontal Kerning lookup 15-2" afii57506 dx=-157 dy=0 dh=-157 dv=0 dx=0 dy=0 dh=0 dv=0
PairPos2: "'kern' Horizontal Kerning lookup 15-2" afii57440 dx=-157 dy=0 dh=-157 dv=0 dx=0 dy=0 dh=0 dv=0
PairPos2: "'kern' Horizontal Kerning lookup 15-2" uniFE8B dx=-157 dy=0 dh=-157 dv=0 dx=0 dy=0 dh=0 dv=0
Substitution2: "'fina' Terminal Forms in Arabic lookup 9 subtable" uniFEAE
EndChar

StartChar: uni0633
Encoding: 1587 1587 27
Width: 2535
VWidth: 2534
GlyphClass: 2
Flags: W
AnchorPoint: "Anchor-7" 446.885 -713.476 basechar 0
AnchorPoint: "Anchor-10" 619.7 980.609 basechar 0
LayerCount: 2
Fore
SplineSet
1560.0390625 183.99609375 m 4,0,1
 1761.84013505 187.996830653 1761.84013505 187.996830653 1772.62890625 408.6328125 c 2,2,-1
 1775.91503906 475.8359375 l 2,3,4
 1779.02051665 534.386822351 1779.02051665 534.386822351 1829.25585938 534.3515625 c 2,5,-1
 1883.51757812 534.313476562 l 2,6,7
 1931.86124546 534.000897156 1931.86124546 534.000897156 1928.13085938 454.965820312 c 2,8,-1
 1923.35351562 353.749023438 l 2,9,10
 1915 182 1915 182 2097.43457031 184.00390625 c 28,11,12
 2267 186 2267 186 2257.11328125 427.836914062 c 0,13,14
 2254 504 2254 504 2231.33203125 591.6640625 c 0,15,16
 2210.91391181 672.340151736 2210.91391181 672.340151736 2250.82910156 688.37109375 c 2,17,-1
 2316.5703125 714.774414062 l 2,18,19
 2379 740 2379 740 2400.41601562 663.666015625 c 0,20,21
 2433 545 2433 545 2434.56054688 444.533203125 c 0,22,23
 2438 0 2438 0 2106.09667969 0.001953125 c 16,24,25
 1921 0 1921 0 1837.78710938 141.985351562 c 1,26,27
 1701 1 1701 1 1566.29394531 0 c 0,28,29
 1413 -1 1413 -1 1382.97460938 62.7490234375 c 1,30,31
 1346 -528 1346 -528 704.362304688 -526.02734375 c 0,32,33
 104 -524 104 -524 105.266601562 -21.896484375 c 0,34,35
 106 278 106 278 334.470703125 563.490234375 c 0,36,37
 377.787541587 617.733947959 377.787541587 617.733947959 423.661132812 586.221679688 c 2,38,-1
 473.749023438 551.814453125 l 2,39,40
 510 527 510 527 466.352539062 463.314453125 c 0,41,42
 275 191 275 191 276.50390625 -5.2177734375 c 0,43,44
 279 -352 279 -352 733.580078125 -348.703125 c 4,45,46
 1188 -345 1188 -345 1207.59179688 43.634765625 c 0,47,48
 1219 260 1219 260 1204.91601562 385.051757812 c 0,49,50
 1195.02649706 476.754300662 1195.02649706 476.754300662 1246.98242188 500.75390625 c 2,51,-1
 1297.0703125 523.890625 l 2,52,53
 1381 563 1381 563 1381.875 472.705078125 c 0,54,55
 1384 308 1384 308 1393.08691406 282.193359375 c 8,56,57
 1429 182 1429 182 1560.0390625 183.99609375 c 4,0,1
EndSplineSet
Substitution2: "'fina' Terminal Forms in Arabic lookup 9 subtable" uniFEB2
Substitution2: "'medi' Medial Forms in Arabic lookup 11 subtable" uniFEB4
Substitution2: "'init' Initial Forms in Arabic lookup 13 subtable" uniFEB3
EndChar

StartChar: uni0635
Encoding: 1589 1589 29
Width: 2634
VWidth: 2529
GlyphClass: 2
Flags: W
AnchorPoint: "Anchor-7" 446.885 -713.476 basechar 0
AnchorPoint: "Anchor-10" 651.337 1067.43 basechar 0
LayerCount: 2
Fore
SplineSet
2191.36621094 818.237304688 m 0,0,1
 2357 818 2357 818 2447.63378906 717.166015625 c 0,2,3
 2530 626 2530 626 2531.13574219 490.633789062 c 0,4,5
 2532 396 2532 396 2486.14746094 295.696289062 c 0,6,7
 2352.17548517 3.38289101758 2352.17548517 3.38289101758 1690.92285156 0.28125 c 2,8,-1
 1630.96191406 0 l 2,9,10
 1457 -1 1457 -1 1382.97460938 62.7490234375 c 1,11,12
 1346 -528 1346 -528 704.362304688 -526.02734375 c 0,13,14
 104 -524 104 -524 105.266601562 -21.896484375 c 0,15,16
 106 278 106 278 334.471679688 563.490234375 c 0,17,18
 377.787544665 617.733945844 377.787544665 617.733945844 423.661132812 586.221679688 c 2,19,-1
 473.749023438 551.814453125 l 2,20,21
 510 527 510 527 466.352539062 463.314453125 c 0,22,23
 276 187 276 187 276.50390625 -5.2177734375 c 0,24,25
 279 -352 279 -352 733.580078125 -348.703125 c 0,26,27
 1187 -345 1187 -345 1207.59179688 43.634765625 c 0,28,29
 1219 260 1219 260 1204.91503906 385.051757812 c 0,30,31
 1195.02649458 476.754299509 1195.02649458 476.754299509 1246.98242188 500.75390625 c 2,32,-1
 1297.0703125 523.890625 l 2,33,34
 1381 563 1381 563 1381.875 472.705078125 c 0,35,36
 1384 313 1384 313 1393.08691406 282.193359375 c 24,37,38
 1409 228 1409 228 1454.63867188 212.178710938 c 1,39,40
 1850 818 1850 818 2191.36621094 818.237304688 c 0,0,1
1707.32324219 184.556640625 m 2,41,42
 2345.99777564 184.556640625 2345.99777564 184.556640625 2347.40820312 465.682617188 c 0,43,44
 2348 627 2348 627 2170.25390625 627.416015625 c 0,45,46
 1979 627 1979 627 1625.41210938 184.556640625 c 1,47,-1
 1707.32324219 184.556640625 l 2,41,42
EndSplineSet
Substitution2: "'fina' Terminal Forms in Arabic lookup 9 subtable" uniFEBA
Substitution2: "'medi' Medial Forms in Arabic lookup 11 subtable" uniFEBC
Substitution2: "'init' Initial Forms in Arabic lookup 13 subtable" uniFEBB
EndChar

StartChar: uni0637
Encoding: 1591 1591 31
Width: 1558
VWidth: 2529
GlyphClass: 2
Flags: W
AnchorPoint: "Anchor-10" 507.638 1531.27 basechar 0
AnchorPoint: "Anchor-7" 580.825 -267.162 basechar 0
LayerCount: 2
Fore
SplineSet
547.4765625 184.556640625 m 1,0,-1
 629.387695312 184.556640625 l 2,1,2
 1270 185 1270 185 1269.47265625 465.682617188 c 0,3,4
 1269 627 1269 627 1092.31835938 627.416015625 c 0,5,6
 901 627 901 627 547.4765625 184.556640625 c 1,0,-1
398.111328125 0.28125 m 18,7,8
 186.831693304 0.28125 186.831693304 0.28125 127.306640625 99.7509765625 c 0,9,10
 76.0218015396 183.964200376 76.0218015396 183.964200376 164.873046875 184.052734375 c 2,11,-1
 388.327148438 184.275390625 l 1,12,13
 338 493 338 493 337.944335938 793.46875 c 0,14,15
 338 1050 338 1050 367.2421875 1288.72265625 c 0,16,17
 375.040958344 1354.34463992 375.040958344 1354.34463992 427.834960938 1353.96972656 c 2,18,-1
 481.053710938 1353.59179688 l 2,19,20
 537 1353 537 1353 529.107421875 1288.72265625 c 0,21,22
 477 843 477 843 526.461914062 397.159179688 c 1,23,24
 839 818 839 818 1113.43164062 818.237304688 c 4,25,26
 1279 818 1279 818 1369.69824219 717.166015625 c 4,27,28
 1453 625 1453 625 1453.20019531 490.633789062 c 4,29,30
 1454 393 1454 393 1408.21191406 295.696289062 c 4,31,32
 1271.1305084 0.28125 1271.1305084 0.28125 612.987304688 0.28125 c 2,33,-1
 398.111328125 0.28125 l 18,7,8
EndSplineSet
Substitution2: "'fina' Terminal Forms in Arabic lookup 9 subtable" uniFEC2
Substitution2: "'medi' Medial Forms in Arabic lookup 11 subtable" uniFEC4
Substitution2: "'init' Initial Forms in Arabic lookup 13 subtable" uniFEC3
EndChar

StartChar: uni0639
Encoding: 1593 1593 33
Width: 1287
VWidth: 2529
GlyphClass: 2
Flags: W
AnchorPoint: "Anchor-10" 547.692 1454.74 basechar 0
AnchorPoint: "Anchor-7" 333.788 -826.734 basechar 0
LayerCount: 2
Fore
SplineSet
287.302734375 -216.170898438 m 0,0,1
 287 -542 287 -542 707.493164062 -541.711914062 c 0,2,3
 900 -542 900 -542 1087.32714844 -467.028320312 c 0,4,5
 1154.02005801 -439.991868738 1154.02005801 -439.991868738 1164.12304688 -487.314453125 c 2,6,-1
 1180.16308594 -562.446289062 l 2,7,8
 1191 -613 1191 -613 1131.15429688 -638.7734375 c 0,9,10
 950 -716 950 -716 696.014648438 -715.5 c 0,11,12
 443 -715 443 -715 304.702148438 -614.307617188 c 0,13,14
 119 -481 119 -481 119.659179688 -219.353515625 c 24,15,16
 121 134 121 134 396.530273438 355.833984375 c 1,17,18
 203 399 203 399 198.830078125 646.103515625 c 0,19,20
 196 819 196 819 345.2890625 989.049804688 c 0,21,22
 473 1133 473 1133 640.274414062 1128.55371094 c 0,23,24
 936 1120 936 1120 945.096679688 782.3984375 c 1,25,-1
 827.116210938 785.76953125 l 1,26,27
 794 973 794 973 593.864257812 933.056640625 c 0,28,29
 497 914 497 914 422.356445312 801.669921875 c 4,30,31
 364 715 364 715 362.579703298 622 c 0,32,33
 360 499 360 499 532.530273438 469.28515625 c 1,34,-1
 533.709960938 469.391601562 l 1,35,36
 608 498 608 498 766.106445312 537.416015625 c 0,37,38
 883 567 883 567 957.932617188 576.993164062 c 0,39,40
 1032.07657421 587.01034552 1032.07657421 587.01034552 1050.00390625 535.315429688 c 2,41,-1
 1070.63085938 475.8359375 l 2,42,43
 1091 418 1091 418 1026.80371094 411.138671875 c 0,44,45
 747 379 747 379 588.376953125 283.090820312 c 0,46,47
 288 102 288 102 287.302734375 -216.170898438 c 0,0,1
EndSplineSet
Substitution2: "'fina' Terminal Forms in Arabic lookup 9 subtable" uniFECA
Substitution2: "'medi' Medial Forms in Arabic lookup 11 subtable" uniFECC
Substitution2: "'init' Initial Forms in Arabic lookup 13 subtable" uniFECB
EndChar

StartChar: afii57440
Encoding: 1600 1600 35
Width: 271
VWidth: 2529
GlyphClass: 2
Flags: W
AnchorPoint: "Anchor-10" 382.038 1480.6 basechar 0
AnchorPoint: "Anchor-7" 172.294 -215.594 basechar 0
LayerCount: 2
Fore
SplineSet
-73.8623046875 89.7412109375 m 2,0,-1
 -73.8623046875 97.0458984375 l 2,1,2
 -74.0000061857 184.00390625 -74.0000061857 184.00390625 -5.2177734375 184.00390625 c 2,3,-1
 276.52734375 184.00390625 l 6,4,5
 302.623046875 184.000055622 302.623046875 184.000055622 302.623046875 98.0888671875 c 2,6,-1
 302.623046875 87.654296875 l 2,7,8
 303 0 303 0 276.52734375 0 c 2,9,-1
 -5.2177734375 0 l 2,10,11
 -74 0 -74 0 -73.8623046875 89.7412109375 c 2,0,-1
EndSplineSet
EndChar

StartChar: uni0643
Encoding: 1603 1603 38
Width: 1935
VWidth: 2529
GlyphClass: 2
Flags: W
AnchorPoint: "Anchor-10" 613.304 1589.65 basechar 0
AnchorPoint: "Anchor-7" 552.938 -261.547 basechar 0
LayerCount: 2
Fore
SplineSet
1228.51953125 1263.84277344 m 1,0,-1
 1228.51953125 1166.12597656 l 1,1,2
 1119.17382812 1157.87304688 1119.17382812 1157.87304688 1056.02246094 1128.37792969 c 0,3,4
 988.026367188 1096.62011719 988.026367188 1096.62011719 988.559570312 1053.93457031 c 0,5,6
 989.23828125 990.28125 989.23828125 990.28125 1097.90917969 973.25390625 c 0,7,8
 1239.67773438 951.671875 1239.67773438 951.671875 1239.29296875 845.815429688 c 0,9,10
 1239.67773438 720.014648438 1239.67773438 720.014648438 1119.55273438 652.436523438 c 0,11,12
 1002.80371094 587.490234375 1002.80371094 587.490234375 778.11328125 623.744140625 c 1,13,-1
 778.11328125 729.010742188 l 1,14,15
 909.931640625 711.666992188 909.931640625 711.666992188 975.966796875 718.368164062 c 0,16,17
 1123.84960938 733.580078125 1123.84960938 733.580078125 1138.34082031 821.022460938 c 0,18,19
 1146.80664062 874.453125 1146.80664062 874.453125 1052.16210938 889.091796875 c 0,20,21
 888.084960938 914.651367188 888.084960938 914.651367188 888.666015625 1059.48242188 c 0,22,23
 889.061523438 1147.84960938 889.061523438 1147.84960938 985.030273438 1206.35058594 c 0,24,25
 1067.75878906 1253.24902344 1067.75878906 1253.24902344 1206.27734375 1262.37695312 c 2,26,-1
 1228.51953125 1263.84277344 l 1,0,-1
1402.22265625 221.725585938 m 28,27,28
 1611.65357801 278.905418212 1611.65357801 278.905418212 1628.54394531 440.0546875 c 2,29,-1
 1635.265625 504.185546875 l 1,30,31
 1639 521 1639 521 1642.34082031 820.100585938 c 0,32,33
 1645 1042 1645 1042 1602.99414062 1344.64355469 c 1,34,-1
 1760.19628906 1347.18847656 l 1,35,36
 1789 1189 1789 1189 1799.3515625 784.985351562 c 0,37,38
 1804 594 1804 594 1771.14160156 411.50390625 c 0,39,40
 1736 213 1736 213 1602.23925781 122.08984375 c 24,41,42
 1435 8 1435 8 1161.41503906 -16.5966796875 c 0,43,44
 1026 -29 1026 -29 840.15234375 -29.2177734375 c 0,45,46
 109 -29 109 -29 107.625 485.499023438 c 0,47,48
 107 670 107 670 222.6875 866.67578125 c 1,49,-1
 365.224609375 798.27734375 l 1,50,51
 275 632 275 632 275.84375 506.1796875 c 0,52,53
 277 157 277 157 864.017578125 156.170898438 c 4,54,55
 1161 156 1161 156 1402.22265625 221.725585938 c 28,27,28
EndSplineSet
Substitution2: "'fina' Terminal Forms in Arabic lookup 9 subtable" uniFEDA
Substitution2: "'medi' Medial Forms in Arabic lookup 11 subtable" uniFEDC
Substitution2: "'init' Initial Forms in Arabic lookup 13 subtable" uniFEDB
EndChar

StartChar: uni0644
Encoding: 1604 1604 39
Width: 1499
VWidth: 2534
GlyphClass: 2
Flags: W
AnchorPoint: "Anchor-10" 680.752 1223.82 basechar 0
AnchorPoint: "Anchor-7" 400.904 -714.071 basechar 0
LayerCount: 2
Fore
SplineSet
276.50390625 -5.2177734375 m 0,0,1
 278 -353 278 -353 733.580078125 -348.703125 c 4,2,3
 1108 -345 1108 -345 1165.8515625 43.634765625 c 24,4,5
 1192 219 1192 219 1183.65136719 687.263671875 c 0,6,7
 1177 1061 1177 1061 1157.17089844 1279.33105469 c 0,8,9
 1151.02378712 1348.73144531 1151.02378712 1348.73144531 1196.89453125 1348.73144531 c 2,10,-1
 1259.50488281 1348.73144531 l 2,11,12
 1306 1349 1306 1349 1311.578125 1285.59179688 c 0,13,14
 1323 1157 1323 1157 1342.82714844 812.197265625 c 0,15,16
 1365 436 1365 436 1341.234375 62.7490234375 c 24,17,18
 1304 -528 1304 -528 704.362304688 -526.02734375 c 0,19,20
 104 -524 104 -524 105.266601562 -21.896484375 c 0,21,22
 106 278 106 278 334.471679688 563.490234375 c 0,23,24
 377.787544665 617.733945844 377.787544665 617.733945844 423.661132812 586.221679688 c 2,25,-1
 473.749023438 551.814453125 l 2,26,27
 510 527 510 527 466.352539062 463.314453125 c 0,28,29
 275 191 275 191 276.50390625 -5.2177734375 c 0,0,1
EndSplineSet
Substitution2: "'fina' Terminal Forms in Arabic lookup 9 subtable" uniFEDE
Substitution2: "'medi' Medial Forms in Arabic lookup 11 subtable" uniFEE0
Substitution2: "'init' Initial Forms in Arabic lookup 13 subtable" uniFEDF
EndChar

StartChar: uni0645
Encoding: 1605 1605 40
Width: 1206
VWidth: 2529
GlyphClass: 2
Flags: W
AnchorPoint: "Anchor-10" 464.352 -1027.08 basechar 0
AnchorPoint: "Anchor-7" 374.279 961.4 basechar 0
LayerCount: 2
Fore
SplineSet
501.354492188 190.858398438 m 1,0,1
 633.977539062 174.422851562 633.977539062 174.422851562 714.799804688 158.17578125 c 0,2,3
 833.29296875 134.756835938 833.29296875 134.756835938 886.006835938 184.172851562 c 0,4,5
 968.23046875 260.752929688 968.23046875 260.752929688 869.333984375 397.865234375 c 0,6,7
 733.588867188 585.4140625 733.588867188 585.4140625 613.80078125 487.284179688 c 0,8,9
 495.2578125 389.879882812 495.2578125 389.879882812 501.354492188 190.858398438 c 1,0,1
339.465820312 -675.14453125 m 4,10,11
 366.268554688 -764.885742188 366.268554688 -764.885742188 326.561523438 -785.755859375 c 2,12,-1
 256.381835938 -823.321289062 l 2,13,14
 209.724609375 -848.296875 209.724609375 -848.296875 188.873046875 -771.146484375 c 0,15,16
 -32.873046875 57.484375 -32.873046875 57.484375 318.267578125 179.482421875 c 1,17,18
 336.006835938 482.096679688 336.006835938 482.096679688 495.374023438 614.127929688 c 0,19,20
 744.015625 821.234375 744.015625 821.234375 992.823242188 512.163085938 c 0,21,22
 1225.06933594 223.30859375 1225.06933594 223.30859375 1000.30175781 37.2392578125 c 0,23,24
 886.974609375 -57.392578125 886.974609375 -57.392578125 659.50390625 -11.6962890625 c 0,25,26
 426.791015625 34.435546875 426.791015625 34.435546875 374.616210938 10.4345703125 c 0,27,28
 168.00390625 -89.7412109375 168.00390625 -89.7412109375 339.465820312 -675.14453125 c 4,10,11
EndSplineSet
Substitution2: "'init' Initial Forms in Arabic lookup 13 subtable" uniFEE3
Substitution2: "'medi' Medial Forms in Arabic lookup 11 subtable" uniFEE4
Substitution2: "'fina' Terminal Forms in Arabic lookup 9 subtable" uniFEE2
EndChar

StartChar: uni0647
Encoding: 1607 1607 42
Width: 898
VWidth: 2529
GlyphClass: 2
Flags: W
AnchorPoint: "Anchor-10" 465.332 1251.4 basechar 0
AnchorPoint: "Anchor-7" 410.253 -248.113 basechar 0
LayerCount: 2
Fore
SplineSet
440.594726562 655.723632812 m 1,0,1
 267 469 267 469 272.88671875 327.280273438 c 0,2,3
 280 179 280 179 457.795898438 175.826171875 c 0,4,5
 660 172 660 172 652.194335938 343 c 0,6,7
 650 390 650 390 625.240234375 440.208984375 c 0,8,9
 570 550 570 550 440.594726562 655.723632812 c 1,0,1
100.10389865 334 m 0,10,11
 100 477 100 477 224.389648438 657.481445312 c 0,12,13
 309 781 309 781 411 883 c 1,14,15
 538 797 538 797 612.314453125 722.752929688 c 0,16,17
 711 624 711 624 767.842773438 518.581054688 c 0,18,19
 819 423 819 423 814.317382812 295.09375 c 0,20,21
 810 177 810 177 741.2421875 104.66796875 c 0,22,23
 652 10 652 10 465 12.171875 c 0,24,25
 294 14 294 14 210 79 c 0,26,27
 100 164 100 164 100.10389865 334 c 0,10,11
EndSplineSet
Substitution2: "'fina' Terminal Forms in Arabic lookup 9 subtable" uniFEEA
Substitution2: "'medi' Medial Forms in Arabic lookup 11 subtable" uniFEEC
Substitution2: "'init' Initial Forms in Arabic lookup 13 subtable" uniFEEB
EndChar

StartChar: uni0648
Encoding: 1608 1608 43
Width: 929
VWidth: 2529
GlyphClass: 2
Flags: W
AnchorPoint: "Anchor-10" 379.626 1196.15 basechar 0
AnchorPoint: "Anchor-7" 502.198 -665.497 basechar 0
LayerCount: 2
Fore
SplineSet
477.006835938 555.014648438 m 0,0,1
 332.983398438 554.4296875 332.983398438 554.4296875 287.287109375 351.577148438 c 0,2,3
 277.571289062 307.83203125 277.571289062 307.83203125 287.66796875 269.068359375 c 0,4,5
 312.006835938 176.3515625 312.006835938 176.3515625 462.180664062 176.270507812 c 0,6,7
 530.09765625 176.3515625 530.09765625 176.3515625 653.844726562 192.168945312 c 1,8,9
 650.981445312 294.890625 650.981445312 294.890625 628.7734375 387.444335938 c 0,10,11
 588.534179688 554.098632812 588.534179688 554.098632812 477.006835938 555.014648438 c 0,0,1
801.575195312 332.861328125 m 16,12,13
 844 17 844 17 714.83984375 -199.866210938 c 0,14,15
 560 -461 560 -461 216.004882812 -505.055664062 c 0,16,17
 193.093347854 -507.988052648 193.093347854 -507.988052648 170.2734375 -476.09765625 c 2,18,-1
 129.951171875 -419.748046875 l 2,19,20
 106 -386 106 -386 141.916015625 -377.395507812 c 0,21,22
 554 -282 554 -282 643.4921875 22.9853515625 c 5,23,24
 533 4 533 4 435.962890625 3.7314453125 c 4,25,26
 132 3 132 3 130.271484375 265.9375 c 0,27,28
 130 320 130 320 143.729492188 382.809570312 c 0,29,30
 174 525 174 525 269.076171875 637.7578125 c 0,31,32
 356 740 356 740 486.181640625 739.686523438 c 0,33,34
 656 740 656 740 732.993164062 566.858398438 c 0,35,36
 787 447 787 447 801.575195312 332.861328125 c 16,12,13
EndSplineSet
Substitution2: "'fina' Terminal Forms in Arabic lookup 9 subtable" uniFEEE
EndChar

StartChar: uni0649
Encoding: 1609 1609 44
Width: 1473
VWidth: 2529
GlyphClass: 2
Flags: W
AnchorPoint: "Anchor-10" 626.182 1155.38 basechar 0
AnchorPoint: "Anchor-7" 356.886 -646.201 basechar 0
LayerCount: 2
Fore
SplineSet
1341.984375 731.11328125 m 1,0,1
 1374.57519531 731.001457565 1374.57519531 731.001457565 1374.57519531 702.275390625 c 2,2,-1
 1374.57519531 579.142578125 l 2,3,4
 1375.0064349 553.619142594 1375.0064349 553.619142594 1344.02832031 550.662109375 c 2,5,-1
 1335.26074219 549.825195312 l 2,6,7
 1181 535 1181 535 1106.66210938 443.8359375 c 0,8,9
 1067 395 1067 395 1068.47753906 352.703125 c 0,10,11
 1070 308 1070 308 1132.19726562 293.2109375 c 0,12,13
 1357 241 1357 241 1327.51464844 44.2080078125 c 0,14,15
 1297 -158 1297 -158 1111.99414062 -290.21875 c 0,16,17
 910 -434 910 -434 605.662109375 -431.901367188 c 0,18,19
 160 -429 160 -429 102.76953125 -87.224609375 c 0,20,21
 62 158 62 158 201.881835938 447.073242188 c 0,22,23
 276 601 276 601 357.92578125 713.75390625 c 0,24,25
 394.065226059 764.09085033 394.065226059 764.09085033 429.921875 739.8203125 c 2,26,-1
 495.662109375 695.322265625 l 2,27,28
 529 673 529 673 494.122070312 619.838867188 c 0,29,30
 464 575 464 575 414.723632812 495.173828125 c 0,31,32
 213 172 213 172 268.311523438 -46.744140625 c 0,33,34
 321 -254 321 -254 623.03515625 -257.875 c 0,35,36
 891.633420702 -260.972706569 891.633420702 -260.972706569 1073.12109375 -110.077148438 c 0,37,38
 1153 -43 1153 -43 1163.73535156 18.2998046875 c 0,39,40
 1179 109 1179 109 1081.57910156 127.084960938 c 0,41,42
 891 162 891 162 893.481445312 332.876953125 c 4,43,44
 896 459 896 459 995.93359375 574.825195312 c 4,45,46
 1119 717 1119 717 1341.984375 731.11328125 c 1,0,1
EndSplineSet
Substitution2: "'fina' Terminal Forms in Arabic lookup 9 subtable" uniFEF0
Substitution2: "'medi' Medial Forms in Arabic lookup 11 subtable" uniFBE9
Substitution2: "'init' Initial Forms in Arabic lookup 13 subtable" uniFBE8
EndChar

StartChar: uni064B
Encoding: 1611 1611 46
Width: -27
VWidth: 2304
GlyphClass: 4
Flags: W
AnchorPoint: "Anchor-10" 609.519 1111.82 mark 0
AnchorPoint: "Anchor-9" 609.519 1111.82 mark 0
AnchorPoint: "Anchor-1" 569.519 1660.78 basemark 0
AnchorPoint: "Anchor-1" 609.519 1111.82 mark 0
LayerCount: 2
Fore
SplineSet
302.015625 1058.01181702 m 1,0,-1
 302.015625 1172.7510716 l 1,1,-1
 805.6796875 1378.70301363 l 1,2,-1
 805.6796875 1263.96280149 l 1,3,-1
 302.015625 1058.01181702 l 1,0,-1
302.015625 1331.51572327 m 1,4,-1
 302.015625 1446.25497785 l 1,5,-1
 805.6796875 1652.20691988 l 1,6,-1
 805.6796875 1537.46670774 l 1,7,-1
 302.015625 1331.51572327 l 1,4,-1
EndSplineSet
EndChar

StartChar: uni064C
Encoding: 1612 1612 47
Width: -27
VWidth: 2304
GlyphClass: 4
Flags: W
AnchorPoint: "Anchor-10" 676.432 1216.14 mark 0
AnchorPoint: "Anchor-9" 676.432 1216.14 mark 0
AnchorPoint: "Anchor-1" 567.983 1908.35 basemark 0
AnchorPoint: "Anchor-1" 676.432 1216.14 mark 0
LayerCount: 2
Fore
SplineSet
652.655273437 1732.86425781 m 0,0,1
 569.463867188 1732.86425781 569.463867188 1732.86425781 569.463867188 1658.640625 c 0,2,3
 569.463867188 1604.83203125 569.463867188 1604.83203125 631.455078125 1580.03515625 c 0,4,5
 654.595973423 1570.77996279 654.595973423 1570.77996279 700.032226562 1556.78613281 c 1,6,-1
 713.090820312 1587.25292969 l 2,7,8
 724.69140625 1614.32226562 724.69140625 1614.32226562 724.69140625 1653.09667969 c 128,-1,9
 724.69140625 1691.87109375 724.69140625 1691.87109375 699.799316406 1712.36767578 c 128,-1,10
 674.907226562 1732.86425781 674.907226562 1732.86425781 652.655273437 1732.86425781 c 0,0,1
337.235351562 1386.73925781 m 0,11,12
 369 1291 369 1291 449.545331419 1291.76660156 c 0,13,14
 518 1292 518 1292 592.768554688 1364.57714844 c 0,15,16
 636.118126436 1406.1131846 636.118126436 1406.1131846 661.806640625 1457.5 c 2,17,-1
 672.059570312 1478.00976562 l 1,18,-1
 649.625 1482.76953125 l 2,19,20
 547 1504 547 1504 509 1556 c 0,21,22
 474 1604 474 1604 475 1651 c 0,23,24
 475 1676 475 1676 481.663574219 1707.21484375 c 0,25,26
 488 1739 488 1739 509 1765 c 4,27,28
 553 1822 553 1822 636.941420873 1821.69921875 c 0,29,30
 717 1822 717 1822 765.114746094 1774.30517578 c 0,31,32
 813 1728 813 1728 813.52734375 1645.08105469 c 0,33,34
 813.997428752 1605.21804078 813.997428752 1605.21804078 800.791015625 1563.41113281 c 2,35,-1
 793.893554688 1541.57617188 l 1,36,-1
 816.765625 1540.37597656 l 2,37,38
 842 1539 842 1539 880.192382812 1538.27148438 c 1,39,-1
 880.192382812 1449.32617188 l 1,40,41
 838.775681949 1450.00366941 838.775681949 1450.00366941 823.913085938 1451.43261719 c 2,42,-1
 752.243164062 1458.32324219 l 1,43,44
 719 1380 719 1380 655.074213481 1314.56331625 c 128,-1,45
 591 1249 591 1249 543.787109375 1225.83300781 c 0,46,47
 496 1203 496 1203 447.08203125 1202.93164062 c 0,48,49
 332 1203 332 1203 279 1347 c 0,50,51
 257 1407 257 1407 255.86328125 1515.49121094 c 1,52,-1
 322.107421875 1515.49121094 l 1,53,54
 323 1430 323 1430 337.235351562 1386.73925781 c 0,11,12
854.4921875 1539.21972656 m 2,55,-1
 854.388671875 1539.22558594 l 2,56,57
 854.440429688 1539.22265625 854.440429688 1539.22265625 854.4921875 1539.21972656 c 2,55,-1
EndSplineSet
EndChar

StartChar: uni064D
Encoding: 1613 1613 48
Width: -27
VWidth: 2304
GlyphClass: 4
Flags: W
AnchorPoint: "Anchor-7" 552.623 75.7275 mark 0
AnchorPoint: "Anchor-6" 552.623 75.7275 mark 0
AnchorPoint: "Anchor-0" 635.519 -468.112 basemark 0
AnchorPoint: "Anchor-0" 552.623 75.7275 mark 0
LayerCount: 2
Fore
SplineSet
307.295898438 -515.428599567 m 1,0,-1
 307.295898438 -400.688387431 l 1,1,-1
 810.959960938 -194.737402955 l 1,2,-1
 810.959960938 -309.47665754 l 1,3,-1
 307.295898438 -515.428599567 l 1,0,-1
307.295898438 -241.924693317 m 1,4,-1
 307.295898438 -127.184481181 l 1,5,-1
 810.959960938 78.7665032954 l 1,6,-1
 810.959960938 -35.9727512898 l 1,7,-1
 307.295898438 -241.924693317 l 1,4,-1
EndSplineSet
EndChar

StartChar: uni064E
Encoding: 1614 1614 49
Width: -27
VWidth: 2304
GlyphClass: 4
Flags: W
AnchorPoint: "Anchor-10" 577.839 1361.15 mark 0
AnchorPoint: "Anchor-9" 577.839 1361.15 mark 0
AnchorPoint: "Anchor-1" 537.839 1686.13 basemark 0
AnchorPoint: "Anchor-1" 577.839 1361.15 mark 0
LayerCount: 2
Fore
SplineSet
271.391601562 1330.45909574 m 1,0,-1
 271.391601562 1445.19931378 l 1,1,-1
 775.055664062 1651.15125582 l 1,2,-1
 775.055664062 1536.41103778 l 1,3,-1
 271.391601562 1330.45909574 l 1,0,-1
EndSplineSet
EndChar

StartChar: uni064F
Encoding: 1615 1615 50
Width: -27
VWidth: 2304
GlyphClass: 4
Flags: W
AnchorPoint: "Anchor-10" 615.623 1281.01 mark 0
AnchorPoint: "Anchor-9" 615.623 1281.01 mark 0
AnchorPoint: "Anchor-1" 546.519 1923.2 basemark 0
AnchorPoint: "Anchor-1" 615.623 1281.01 mark 0
LayerCount: 2
Fore
SplineSet
822.727539062 1464.22460938 m 1,0,1
 766 1465 766 1465 690.735351562 1473.01953125 c 1,2,3
 638 1399 638 1399 563.377929688 1352.99902344 c 0,4,5
 445 1279 445 1279 311 1274 c 1,6,-1
 311 1362.74121094 l 1,7,8
 442 1367 442 1367 520.314453125 1432.41015625 c 0,9,10
 552.324817949 1458.79495946 552.324817949 1458.79495946 569.69921875 1477.09472656 c 2,11,-1
 591.280273438 1499.82519531 l 1,12,-1
 560.689453125 1506.61621094 l 2,13,14
 554 1508 554 1508 514.827148438 1528.14355469 c 0,15,16
 477 1548 477 1548 448.861328125 1586.5703125 c 0,17,18
 421 1625 421 1625 420.904296875 1671.78222656 c 0,19,20
 421 1754 421 1754 492 1808 c 0,21,22
 530 1837 530 1837 588.962890625 1836.546875 c 0,23,24
 659 1837 659 1837 707.650390625 1789.15234375 c 0,25,26
 756 1742 756 1742 756.0625 1659.92871094 c 0,27,28
 756.000462851 1626.25126302 756.000462851 1626.25126302 741.043945312 1578.18945312 c 2,29,-1
 734.313476562 1556.56152344 l 1,30,-1
 756.931640625 1555.22460938 l 2,31,32
 795 1553 795 1553 822.727539062 1553.02832031 c 1,33,-1
 822.727539062 1464.22460938 l 1,0,1
642.567382812 1571.63476562 m 1,34,-1
 655.625976562 1602.09960938 l 2,35,36
 667 1629 667 1629 667.227539062 1667.94628906 c 0,37,38
 667 1707 667 1707 642.33203125 1727.21582031 c 0,39,40
 617 1748 617 1748 589.5 1747.5 c 128,-1,41
 562 1747 562 1747 539 1730 c 0,42,43
 511.979202975 1710.02810655 511.979202975 1710.02810655 511 1672 c 4,44,45
 509 1620 509 1620 573.990234375 1594.88183594 c 0,46,47
 597 1586 597 1586 642.567382812 1571.63476562 c 1,34,-1
EndSplineSet
EndChar

StartChar: uni0650
Encoding: 1616 1616 51
Width: -27
VWidth: 2304
GlyphClass: 4
Flags: W
AnchorPoint: "Anchor-7" 567.391 -16.2002 mark 0
AnchorPoint: "Anchor-6" 567.391 -16.2002 mark 0
AnchorPoint: "Anchor-0" 615.023 -326.944 basemark 0
AnchorPoint: "Anchor-0" 567.391 -16.2002 mark 0
LayerCount: 2
Fore
SplineSet
317.856445312 -352.804583874 m 1,0,-1
 317.856445312 -238.064361577 l 1,1,-1
 821.51953125 -32.1133848752 l 1,2,-1
 821.51953125 -146.853607173 l 1,3,-1
 317.856445312 -352.804583874 l 1,0,-1
EndSplineSet
EndChar

StartChar: uni0651
Encoding: 1617 1617 52
Width: -27
VWidth: 2304
GlyphClass: 4
Flags: W
AnchorPoint: "Anchor-10" 609.519 1390.22 mark 0
AnchorPoint: "Anchor-9" 609.519 1390.22 mark 0
AnchorPoint: "Anchor-1" 578.847 1840.34 basemark 0
AnchorPoint: "Anchor-1" 609.519 1390.22 mark 0
LayerCount: 2
Fore
SplineSet
577.407226562 1531.921875 m 1,0,1
 547 1367 547 1367 402.48400556 1366.87597656 c 0,2,3
 258 1367 258 1367 257.186523438 1552.89257812 c 0,4,5
 257 1590 257 1590 272.712890625 1693.63867188 c 1,6,-1
 347.826171875 1693.63867188 l 1,7,8
 335 1604 335 1604 335 1576 c 0,9,10
 335 1463 335 1463 414.949708912 1463.0777407 c 0,11,12
 525 1463 525 1463 530.60546875 1607.45214844 c 0,13,14
 532 1647 532 1647 531.875 1694.11621094 c 0,15,16
 532 1741 532 1741 531.86328125 1749.95605469 c 1,17,-1
 606.123046875 1749.95605469 l 1,18,19
 608 1714 608 1714 608.287109375 1665.99121094 c 0,20,21
 608.000414097 1525.20335128 608.000414097 1525.20335128 730.454841185 1525.40617962 c 2,22,-1
 731.086914062 1525.40722656 l 2,23,24
 805 1526 805 1526 805.22265625 1644.49707031 c 0,25,26
 806 1750 806 1750 794.323242188 1812.33496094 c 1,27,-1
 873.943359375 1812.33496094 l 1,28,29
 885 1733 885 1733 885 1639 c 0,30,31
 885 1486 885 1486 800.654296875 1449.91699219 c 0,32,33
 768 1436 768 1436 736 1435 c 0,34,35
 665 1432 665 1432 628 1459 c 0,36,37
 583 1492 583 1492 577.407226562 1531.921875 c 1,0,1
EndSplineSet
EndChar

StartChar: uni0652
Encoding: 1618 1618 53
Width: -27
VWidth: 2304
GlyphClass: 4
Flags: W
AnchorPoint: "Anchor-10" 588.527 1187.7 mark 0
AnchorPoint: "Anchor-9" 588.527 1187.7 mark 0
AnchorPoint: "Anchor-1" 573.743 1793.31 basemark 0
AnchorPoint: "Anchor-1" 588.527 1187.7 mark 0
LayerCount: 2
Fore
SplineSet
707.344726562 1457.10253906 m 0,0,1
 707.344726562 1505.78320312 707.344726562 1505.78320312 673.299804688 1539.828125 c 128,-1,2
 639.258789062 1573.87304688 639.258789062 1573.87304688 589.884765625 1573.87304688 c 0,3,4
 539.819335938 1573.87304688 539.819335938 1573.87304688 506.124023438 1540.17675781 c 128,-1,5
 472.427734375 1506.48046875 472.427734375 1506.48046875 472.427734375 1457.10253906 c 0,6,7
 472.427734375 1407.03808594 472.427734375 1407.03808594 506.124023438 1373.34277344 c 128,-1,8
 539.819335938 1339.64648438 539.819335938 1339.64648438 589.884765625 1339.64648438 c 0,9,10
 639.260742188 1339.64648438 639.260742188 1339.64648438 673.299804688 1373.69140625 c 128,-1,11
 707.344726562 1407.73535156 707.344726562 1407.73535156 707.344726562 1457.10253906 c 0,0,1
779.41796875 1457.21875 m 128,-1,13
 779.41796875 1377.71484375 779.41796875 1377.71484375 724.528320312 1322.47265625 c 128,-1,14
 669.673828125 1267.2734375 669.673828125 1267.2734375 590.212890625 1267.2734375 c 0,15,16
 563.655273438 1267.2734375 563.655273438 1267.2734375 539.920898438 1273.39550781 c 128,-1,17
 516.186523438 1279.51757812 516.186523438 1279.51757812 495.203125 1291.77636719 c 128,-1,18
 474.220703125 1304.03515625 474.220703125 1304.03515625 455.8984375 1322.47265625 c 0,19,20
 428.400390625 1350.14648438 428.400390625 1350.14648438 414.704101562 1383.76074219 c 128,-1,21
 401.006835938 1417.375 401.006835938 1417.375 401.006835938 1457.21875 c 0,22,23
 401.006835938 1536.6953125 401.006835938 1536.6953125 455.8671875 1591.56542969 c 128,-1,24
 510.7265625 1646.42480469 510.7265625 1646.42480469 590.212890625 1646.42480469 c 128,-1,25
 669.698242188 1646.42480469 669.698242188 1646.42480469 724.556640625 1591.56542969 c 128,-1,12
 779.41796875 1536.6953125 779.41796875 1536.6953125 779.41796875 1457.21875 c 128,-1,13
EndSplineSet
EndChar

StartChar: uni0653
Encoding: 1619 1619 54
Width: -3
VWidth: 2429
GlyphClass: 4
Flags: W
AnchorPoint: "Anchor-10" 489.659 1404.78 mark 0
AnchorPoint: "Anchor-9" 489.659 1404.78 mark 0
AnchorPoint: "Anchor-1" 489.659 1810.56 basemark 0
AnchorPoint: "Anchor-1" 489.659 1404.78 mark 0
LayerCount: 2
Fore
SplineSet
122 1551.30664062 m 4,0,1
 227 1673 227 1673 318.606445312 1650.36816406 c 4,2,3
 457 1615 457 1615 580.192382812 1611.36523438 c 4,4,5
 692 1608 692 1608 802 1680.09375 c 4,6,7
 837.349644388 1703.22882976 837.349644388 1703.22882976 848.625976562 1672 c 6,8,-1
 872.457734881 1606 l 2,9,10
 885 1572 885 1572 852 1551.10994582 c 0,11,12
 751 1487 751 1487 636.724609375 1472.44042969 c 0,13,14
 473.345308255 1452.55517952 473.345308255 1452.55517952 325.98046875 1496.57617188 c 0,15,16
 271 1513 271 1513 218 1465.64227114 c 0,17,18
 176.157760226 1428.14139174 176.157760226 1428.14139174 160 1447.80952381 c 2,19,-1
 128 1486.76171875 l 2,20,21
 98 1523 98 1523 122 1551.30664062 c 4,0,1
EndSplineSet
EndChar

StartChar: uni0657
Encoding: 1623 1623 57
Width: -27
VWidth: 2304
GlyphClass: 4
Flags: W
AnchorPoint: "Anchor-10" 569.519 1347.15 mark 0
AnchorPoint: "Anchor-9" 569.519 1347.15 mark 0
AnchorPoint: "Anchor-1" 569.519 2081.6 basemark 0
AnchorPoint: "Anchor-1" 569.519 1347.15 mark 0
LayerCount: 2
Fore
SplineSet
659.133789062 1603.78173828 m 0,0,1
 659 1430 659 1430 491.074544274 1431.54492188 c 0,2,3
 421 1432 421 1432 372.388183594 1478.93945313 c 0,4,5
 324 1526 324 1526 323.975585938 1608.16308594 c 0,6,7
 323.99979061 1641.70979344 323.99979061 1641.70979344 338.994140625 1689.90234375 c 2,8,-1
 345.723632812 1711.53125 l 1,9,-1
 323.10546875 1712.8671875 l 2,10,11
 287 1715 287 1715 257.310546875 1715.06347656 c 1,12,-1
 257.310546875 1803.8671875 l 1,13,14
 314 1803 314 1803 389.303710938 1795.07324219 c 1,15,16
 442 1870 442 1870 516.661132812 1915.09375 c 0,17,18
 698 2026 698 2026 785 2030.74121094 c 5,19,-1
 785 1942 l 5,20,21
 692 1939 692 1939 559.72265625 1835.68164062 c 0,22,23
 533 1815 533 1815 510.338867188 1790.99804688 c 2,24,-1
 488.760742188 1768.28125 l 1,25,-1
 519.344726562 1761.47558594 l 2,26,27
 528 1760 528 1760 565.211425781 1739.94873047 c 0,28,29
 603 1720 603 1720 631.176757812 1681.52148438 c 0,30,31
 659 1643 659 1643 659.133789062 1603.78173828 c 0,0,1
480.167480469 1520.38085938 m 0,32,33
 568.038085938 1520.38085938 568.038085938 1520.38085938 568.038085938 1594.60449219 c 0,34,35
 568.038085938 1648.41148902 568.038085938 1648.41148902 506.048828125 1673.20996094 c 0,36,37
 482.976628637 1682.4430983 482.976628637 1682.4430983 437.471679688 1696.45898438 c 1,38,-1
 424.413085938 1665.99316406 l 2,39,40
 412.810546875 1638.92285156 412.810546875 1638.92285156 412.810546875 1600.15429688 c 128,-1,41
 412.810546875 1561.38574219 412.810546875 1561.38574219 437.703125 1540.88330078 c 128,-1,42
 462.595703125 1520.38085938 462.595703125 1520.38085938 480.167480469 1520.38085938 c 0,32,33
EndSplineSet
EndChar

StartChar: uni065A
Encoding: 1626 1626 58
Width: 1129
VWidth: 2304
GlyphClass: 4
Flags: W
AnchorPoint: "Anchor-10" 569.519 1347.15 mark 0
AnchorPoint: "Anchor-9" 569.519 1347.15 mark 0
AnchorPoint: "Anchor-1" 567.259 1855.62 basemark 0
AnchorPoint: "Anchor-1" 569.519 1347.15 mark 0
LayerCount: 2
Fore
SplineSet
495.958007812 1434.93457031 m 1,0,-1
 296.83203125 1767.83300781 l 1,1,-1
 413.142578125 1767.83300781 l 1,2,-1
 569.518554688 1533.26269531 l 1,3,-1
 725.89453125 1767.83300781 l 1,4,-1
 842.206054688 1767.83300781 l 1,5,-1
 643.077148438 1434.93457031 l 1,6,-1
 495.958007812 1434.93457031 l 1,0,-1
EndSplineSet
EndChar

StartChar: afii57392
Encoding: 1632 1632 59
Width: 998
VWidth: 2497
GlyphClass: 2
Flags: W
LayerCount: 2
Fore
SplineSet
386.220703125 513.530273438 m 4,0,1
 385.768554688 464.474609375 385.768554688 464.474609375 420.889648438 429.354492188 c 132,-1,2
 455.999023438 394.244140625 455.999023438 394.244140625 505.041992188 394.469726562 c 4,3,4
 554.130859375 394.244140625 554.130859375 394.244140625 589.239257812 429.354492188 c 132,-1,5
 624.350585938 464.463867188 624.350585938 464.463867188 624.125 513.508789062 c 4,6,7
 624.350585938 562.595703125 624.350585938 562.595703125 589.239257812 597.705078125 c 4,8,9
 577.60546875 609.33984375 577.60546875 609.33984375 564.306640625 617.127929688 c 132,-1,10
 551.008789062 624.916992188 551.008789062 624.916992188 536.171875 628.791015625 c 132,-1,11
 521.334960938 632.665039062 521.334960938 632.665039062 505.086914062 632.58984375 c 4,12,13
 455.999023438 632.815429688 455.999023438 632.815429688 420.889648438 597.705078125 c 132,-1,14
 385.768554688 562.5859375 385.768554688 562.5859375 386.220703125 513.530273438 c 4,0,1
230.61328125 512.186523438 m 0,15,16
 230.100585938 568.130859375 230.100585938 568.130859375 249.756835938 615.870117188 c 128,-1,17
 269.413085938 663.609375 269.413085938 663.609375 309.434570312 703.631835938 c 0,18,19
 329.453125 723.650390625 329.453125 723.650390625 351.374023438 738.590820312 c 128,-1,20
 373.293945312 753.532226562 373.293945312 753.532226562 397.205078125 763.442382812 c 128,-1,21
 421.116210938 773.3515625 421.116210938 773.3515625 447.017578125 778.227539062 c 128,-1,22
 472.919921875 783.102539062 472.919921875 783.102539062 500.904296875 782.974609375 c 0,23,24
 612.470703125 783.486328125 612.470703125 783.486328125 692.325195312 703.631835938 c 128,-1,25
 772.180664062 623.776367188 772.180664062 623.776367188 771.66796875 512.162109375 c 0,26,27
 772.1796875 400.595703125 772.1796875 400.595703125 692.325195312 320.741210938 c 0,28,29
 665.634765625 294.05078125 665.634765625 294.05078125 635.537109375 276.373046875 c 128,-1,30
 605.439453125 258.696289062 605.439453125 258.696289062 571.803710938 249.9609375 c 128,-1,31
 538.166992188 241.2265625 538.166992188 241.2265625 500.856445312 241.397460938 c 0,32,33
 389.290039062 240.885742188 389.290039062 240.885742188 309.434570312 320.741210938 c 128,-1,34
 229.58984375 400.5859375 229.58984375 400.5859375 230.61328125 512.186523438 c 0,15,16
EndSplineSet
EndChar

StartChar: afii57393
Encoding: 1633 1633 60
Width: 750
VWidth: 2497
GlyphClass: 2
Flags: W
LayerCount: 2
Fore
SplineSet
302.203125 1308.11621094 m 4,0,1
 546 702 546 702 545.892578125 14.958984375 c 1,2,-1
 379.76171875 14.958984375 l 1,3,4
 378 673 378 673 141.760742188 1253.85449219 c 4,5,6
 120.830330873 1305.41799149 120.830330873 1305.41799149 157.568359375 1317.24511719 c 6,7,-1
 250.440429688 1347.14355469 l 6,8,9
 282 1357 282 1357 302.203125 1308.11621094 c 4,0,1
EndSplineSet
EndChar

StartChar: afii57394
Encoding: 1634 1634 61
Width: 1136
VWidth: 2497
GlyphClass: 2
Flags: W
LayerCount: 2
Fore
SplineSet
302.203125 1308.11621094 m 0,0,1
 369.790039062 1113.6796875 l 2,2,3
 422 964 422 964 597.094726562 970.314453125 c 0,4,5
 791 978 791 978 833.962890625 1131.87597656 c 4,6,7
 853 1199 853 1199 852.95703125 1287.24609375 c 4,8,9
 853.000217552 1360.36835571 853.000217552 1360.36835571 888.71484375 1360.26171875 c 6,10,-1
 976.369140625 1360 l 6,11,12
 1020 1360 1020 1360 1019.421875 1291.42089844 c 4,13,14
 1013 794 1013 794 568.958007812 802.946289062 c 0,15,16
 517 804 517 804 456.46875 816.375 c 1,17,18
 541 470 541 470 545.892578125 14.958984375 c 1,19,-1
 379.76171875 14.958984375 l 1,20,21
 376 704 376 704 141.760742188 1253.85449219 c 0,22,23
 119.943613156 1305.1325292 119.943613156 1305.1325292 157.568359375 1317.24511719 c 2,24,-1
 250.440429688 1347.14355469 l 2,25,26
 283 1358 283 1358 302.203125 1308.11621094 c 0,0,1
EndSplineSet
EndChar

StartChar: afii57395
Encoding: 1635 1635 62
Width: 1331
VWidth: 2497
GlyphClass: 2
Flags: W
LayerCount: 2
Fore
SplineSet
545.892578125 14.958984375 m 5,0,1
 379.76171875 14.958984375 l 1,2,3
 376.038124118 704.425495017 376.038124118 704.425495017 141.760742188 1253.85449219 c 4,4,5
 119.943613156 1305.1325292 119.943613156 1305.1325292 157.568359375 1317.24511719 c 2,6,-1
 250.440429688 1347.14355469 l 2,7,8
 283 1358 283 1358 302.203125 1308.11621094 c 0,9,-1
 370.03515625 1089.33496094 l 2,10,11
 412 955 412 955 540.01171875 954.1953125 c 0,12,13
 658 954 658 954 662.875976562 1070.59667969 c 0,14,15
 670 1247 670 1247 669.698242188 1267.41992188 c 0,16,17
 670.001145742 1306.14648438 670.001145742 1306.14648438 697.057617188 1306.14648438 c 2,18,-1
 780.538085938 1306.14648438 l 2,19,20
 810 1306 810 1306 810.438476562 1267.41992188 c 0,21,22
 811 1086 811 1086 817.23046875 1059.30273438 c 0,23,24
 840 958 840 958 951.708984375 957.978515625 c 0,25,26
 1051 958 1051 958 1069.10449219 1072.26269531 c 0,27,28
 1084 1166 1084 1166 1083.43359375 1288.29003906 c 0,29,30
 1082.99744734 1360.42217123 1082.99744734 1360.42217123 1119.67578125 1360.45898438 c 2,31,-1
 1191.67675781 1360.53125 l 2,32,33
 1229 1361 1229 1361 1229.22753906 1278.8984375 c 0,34,35
 1231 1023 1231 1023 1167.359375 910.459960938 c 0,36,37
 1084 765 1084 765 912.987304688 789.580078125 c 0,38,39
 812 804 812 804 751.15625 881.182617188 c 1,40,41
 663 772 663 772 460.901367188 791.926757812 c 1,42,43
 540 469 540 469 545.892578125 14.958984375 c 5,0,1
EndSplineSet
EndChar

StartChar: afii57396
Encoding: 1636 1636 63
Width: 1025
VWidth: 2497
GlyphClass: 2
Flags: W
LayerCount: 2
Fore
SplineSet
116.870117188 327.749023438 m 0,0,1
 110.019441011 516.464458863 110.019441011 516.464458863 472.436523438 703.364257812 c 6,2,-1
 485.247070312 709.970703125 l 5,3,-1
 471.17578125 713.094726562 l 6,4,5
 192 775 192 775 196.495117188 1014.734375 c 4,6,7
 203 1373 203 1373 701.8046875 1367.68066406 c 5,8,-1
 701.8046875 1197.45214844 l 5,9,10
 368 1184 368 1184 368.420898438 1009.26269531 c 4,11,12
 368 806 368 806 736.215820312 803.391601562 c 5,13,-1
 738.219726562 660.1875 l 5,14,15
 266 451 266 451 273.8203125 334.086914062 c 0,16,17
 282.068193556 179.028523581 282.068193556 179.028523581 597.995117188 180.107421875 c 2,18,-1
 907.690429688 181.165039062 l 1,19,-1
 909.66796875 5.2265625 l 1,20,-1
 556.962890625 5.61328125 l 2,21,22
 127 6 127 6 116.870117188 327.749023438 c 0,0,1
EndSplineSet
EndChar

StartChar: afii57397
Encoding: 1637 1637 64
Width: 1159
VWidth: 2497
GlyphClass: 2
Flags: W
LayerCount: 2
Fore
SplineSet
561.755859375 1035.83496094 m 5,0,1
 288 731 288 731 287.81640625 495.15234375 c 4,2,3
 288 215 288 215 590.711914062 215.525390625 c 4,4,5
 880 216 880 216 885.157226562 499 c 4,6,7
 888 631 888 631 763.799804688 807.720703125 c 4,8,9
 673 937 673 937 561.755859375 1035.83496094 c 5,0,1
383.584960938 1176.30859375 m 5,10,-1
 477.0859375 1317.97558594 l 5,11,12
 548 1268 548 1268 654.173828125 1174.98242188 c 4,13,14
 1043 835 1043 835 1042.76953125 501.700195312 c 4,15,16
 1043 298 1043 298 946.412109375 197.404296875 c 4,17,18
 813 57 813 57 595.831054688 57.548828125 c 4,19,20
 383 58 383 58 261 153 c 4,21,22
 117 266 117 266 117.109375 471.788085938 c 4,23,24
 119 799 119 799 436.907226562 1143.25097656 c 5,25,-1
 383.584960938 1176.30859375 l 5,10,-1
EndSplineSet
EndChar

StartChar: afii57398
Encoding: 1638 1638 65
Width: 1183
VWidth: 2497
GlyphClass: 2
Flags: W
LayerCount: 2
Fore
SplineSet
880.301757812 14.958984375 m 5,0,1
 720 647 720 647 712.46484375 1158.0390625 c 5,2,3
 563 1114 563 1114 412 1114 c 128,-1,4
 261 1114 261 1114 68.0595703125 1169.02929688 c 1,5,-1
 68.0595703125 1346.87402344 l 1,6,7
 441 1248 441 1248 876.1484375 1348.03320312 c 5,8,9
 879 893 879 893 971.200195312 425.381835938 c 4,10,11
 1009 235 1009 235 1063.76367188 14.958984375 c 5,12,-1
 880.301757812 14.958984375 l 5,0,1
EndSplineSet
EndChar

StartChar: afii57399
Encoding: 1639 1639 66
Width: 1170
VWidth: 2497
GlyphClass: 2
Flags: W
LayerCount: 2
Fore
SplineSet
489.001953125 84.5234375 m 0,0,1
 428 467 428 467 90.455078125 1231.50585938 c 4,2,3
 57.9743494043 1305.05808547 57.9743494043 1305.05808547 90.7841796875 1316.40234375 c 6,4,-1
 163.829101562 1341.65820312 l 6,5,6
 209 1357 209 1357 233.389648438 1306.63769531 c 4,7,8
 523 718 523 718 584.439453125 310.173828125 c 1,9,10
 644 707 644 707 934.540039062 1304.55078125 c 4,11,12
 960.103571788 1357.2133648 960.103571788 1357.2133648 1002.80371094 1342.54589844 c 6,13,-1
 1073.76171875 1318.171875 l 6,14,15
 1112 1305 1112 1305 1081.17480469 1235.6796875 c 4,16,17
 748 495 748 495 679.953125 81.392578125 c 0,18,19
 668.993233441 14.958984375 668.993233441 14.958984375 627.143554688 14.958984375 c 2,20,-1
 548.880859375 14.958984375 l 2,21,22
 500 15 500 15 489.001953125 84.5234375 c 0,0,1
EndSplineSet
EndChar

StartChar: afii57400
Encoding: 1640 1640 67
Width: 1169
VWidth: 2497
GlyphClass: 2
Flags: W
LayerCount: 2
Fore
SplineSet
682.627929688 1282.98144531 m 4,0,1
 746.178623046 881.193015828 746.178623046 881.193015828 1081.17480469 125.999023438 c 0,2,3
 1113.7821849 52.4910284396 1113.7821849 52.4910284396 1080.84570312 41.1025390625 c 2,4,-1
 1007.80078125 15.845703125 l 2,5,6
 963 0 963 0 938.241210938 50.8662109375 c 0,7,8
 651 636 651 636 587.190429688 1057.33007812 c 5,9,10
 523 633 523 633 237.090820312 52.953125 c 0,11,12
 211.199168682 0.404226619723 211.199168682 0.404226619723 168.827148438 14.958984375 c 2,13,-1
 97.869140625 39.3330078125 l 2,14,15
 59 53 59 53 90.455078125 121.82421875 c 0,16,17
 430 884 430 884 491.676757812 1286.11132812 c 4,18,19
 501.929916378 1352.54589844 501.929916378 1352.54589844 544.487304688 1352.54589844 c 6,20,-1
 622.749023438 1352.54589844 l 6,21,22
 671 1353 671 1353 682.627929688 1282.98144531 c 4,0,1
EndSplineSet
EndChar

StartChar: afii57401
Encoding: 1641 1641 68
Width: 1165
VWidth: 2497
GlyphClass: 2
Flags: W
LayerCount: 2
Fore
SplineSet
872.001953125 14.958984375 m 1,0,1
 757 549 757 549 752.453125 593.541015625 c 1,2,3
 638 567 638 567 507.787109375 573.830078125 c 0,4,5
 189.777078589 593.074003352 189.777078589 593.074003352 127.99609375 840.041015625 c 0,6,7
 118 880 118 880 117.609375 921.8046875 c 0,8,9
 118 1113 118 1113 223.85546875 1219.88867188 c 0,10,11
 349 1346 349 1346 515.518554688 1345.59765625 c 0,12,13
 842.675237276 1343.97683767 842.675237276 1343.97683767 886.578125 913.641601562 c 28,14,15
 946 332 946 332 1044.60449219 14.958984375 c 1,16,-1
 872.001953125 14.958984375 l 1,0,1
735.69140625 764.48828125 m 1,17,-1
 720.841796875 874.120117188 l 2,18,19
 700 1028 700 1028 663.29296875 1082.81640625 c 0,20,21
 602 1175 602 1175 514.952148438 1176.25292969 c 0,22,23
 428 1177 428 1177 360.784179688 1112.48828125 c 0,24,25
 284 1037 284 1037 283.836914062 933.783203125 c 0,26,27
 283.999306063 755.760729848 283.999306063 755.760729848 518 748.56640625 c 0,28,29
 634 745 634 745 735.69140625 764.48828125 c 1,17,-1
EndSplineSet
EndChar

StartChar: afii57381
Encoding: 1642 1642 69
Width: 1204
VWidth: 3581
GlyphClass: 2
Flags: W
LayerCount: 2
Fore
SplineSet
724.04296875 312.70703125 m 0,0,1
 724.04296875 379.073242188 724.04296875 379.073242188 770.499023438 426.635742188 c 0,2,3
 819.168945312 474.198242188 819.168945312 474.198242188 885.53515625 474.198242188 c 0,4,5
 929.780273438 474.198242188 929.780273438 474.198242188 966.28125 452.076171875 c 0,6,7
 1003.88867188 429.953125 1003.88867188 429.953125 1024.90527344 393.452148438 c 0,8,9
 1047.02734375 356.950195312 1047.02734375 356.950195312 1047.02734375 312.70703125 c 0,10,11
 1047.02734375 246.33984375 1047.02734375 246.33984375 999.463867188 197.670898438 c 0,12,13
 951.90234375 151.21484375 951.90234375 151.21484375 885.53515625 151.21484375 c 0,14,15
 841.291015625 151.21484375 841.291015625 151.21484375 803.68359375 172.23046875 c 0,16,17
 766.076171875 194.352539062 766.076171875 194.352539062 745.05859375 230.853515625 c 0,18,19
 724.04296875 268.461914062 724.04296875 268.461914062 724.04296875 312.70703125 c 0,0,1
156.55078125 1175.95019531 m 0,20,21
 156.525390625 1242.80859375 156.525390625 1242.80859375 203.006835938 1289.87890625 c 0,22,23
 251.483398438 1337.76660156 251.483398438 1337.76660156 318.041992188 1337.44238281 c 0,24,25
 362.094726562 1337.76660156 362.094726562 1337.76660156 398.788085938 1315.31933594 c 0,26,27
 436.182617188 1292.89648438 436.182617188 1292.89648438 457.413085938 1256.69628906 c 0,28,29
 480.009765625 1219.8515625 480.009765625 1219.8515625 479.534179688 1175.95019531 c 0,30,31
 480.009765625 1109.24023438 480.009765625 1109.24023438 431.971679688 1060.9140625 c 0,32,33
 384.0078125 1014.28222656 384.0078125 1014.28222656 318.041992188 1014.45800781 c 0,34,35
 273.397460938 1014.28222656 273.397460938 1014.28222656 236.190429688 1035.47363281 c 0,36,37
 198.264648438 1058.109375 198.264648438 1058.109375 177.56640625 1094.09765625 c 0,38,39
 156.525390625 1132.19726562 156.525390625 1132.19726562 156.55078125 1175.95019531 c 0,20,21
874.053710938 1459.21582031 m 5,40,-1
 1024.71679688 1381.59375 l 5,41,-1
 317.715820312 26.6982421875 l 1,42,-1
 167.625976562 109.1796875 l 1,43,-1
 874.053710938 1459.21582031 l 5,40,-1
EndSplineSet
EndChar

StartChar: uni066B
Encoding: 1643 1643 70
Width: 730
VWidth: 2619
GlyphClass: 2
Flags: W
LayerCount: 2
Fore
SplineSet
467.233398438 743.591796875 m 1,0,-1
 598.96875 687.666015625 l 1,1,-1
 181.241210938 -276.264648438 l 1,2,-1
 47.6474609375 -218.124023438 l 1,3,-1
 467.233398438 743.591796875 l 1,0,-1
EndSplineSet
EndChar

StartChar: uni066C
Encoding: 1644 1644 71
Width: 522
VWidth: 2522
GlyphClass: 2
Flags: W
LayerCount: 2
Fore
SplineSet
104.01953125 141.837890625 m 0,0,1
 105.393554688 278.614257812 105.393554688 278.614257812 257.203125 279.056640625 c 0,2,3
 393.399414062 279.658203125 393.399414062 279.658203125 418.720703125 158.678710938 c 0,4,5
 432.008789062 93.9150390625 432.008789062 93.9150390625 408.099609375 -1.82421875 c 0,6,7
 354.790039062 -205.569335938 354.790039062 -205.569335938 167.594726562 -356.990234375 c 5,8,-1
 108.326171875 -319.10546875 l 5,9,10
 266.092773438 -163.829101562 266.092773438 -163.829101562 277.986328125 -0.025390625 c 1,11,12
 234.787109375 -1.0439453125 234.787109375 -1.0439453125 216.694335938 3.20703125 c 0,13,14
 103.306640625 26.087890625 103.306640625 26.087890625 104.01953125 141.837890625 c 0,0,1
EndSplineSet
EndChar

StartChar: afii63167
Encoding: 1645 1645 72
Width: 1382
VWidth: 2534
GlyphClass: 2
Flags: W
LayerCount: 2
Fore
SplineSet
157.544921875 918.306640625 m 1,0,-1
 563.309570312 918.306640625 l 1,1,-1
 689.994140625 1304.00976562 l 1,2,-1
 816.67578125 918.306640625 l 1,3,-1
 1222.44238281 918.306640625 l 1,4,-1
 894.634765625 678.668945312 l 1,5,-1
 1020.05859375 293.354492188 l 1,6,-1
 689.994140625 531.86328125 l 1,7,-1
 359.926757812 293.354492188 l 1,8,-1
 485.349609375 678.668945312 l 1,9,-1
 157.544921875 918.306640625 l 1,0,-1
EndSplineSet
EndChar

StartChar: uni066E
Encoding: 1646 1646 73
Width: 1970
VWidth: 2529
GlyphClass: 2
Flags: W
AnchorPoint: "Anchor-10" 882.887 1218.59 basechar 0
AnchorPoint: "Anchor-7" 615.881 -244.714 basechar 0
LayerCount: 2
Fore
SplineSet
274.799804688 506.1796875 m 0,0,1
 273 157 273 157 861.930664062 156.170898438 c 0,2,3
 1145 156 1145 156 1339.87402344 221.725585938 c 4,4,5
 1631 319 1631 319 1724.12304688 551.383789062 c 4,6,7
 1751.89387025 620.734965624 1751.89387025 620.734965624 1794.03808594 611.491210938 c 6,8,-1
 1861.86523438 596.614257812 l 6,9,10
 1906.65801638 586.630446654 1906.65801638 586.630446654 1886.90917969 521.14453125 c 4,11,12
 1721 -29 1721 -29 838.065429688 -29.2177734375 c 0,13,14
 109 -29 109 -29 106.58203125 485.499023438 c 0,15,16
 106 631 106 631 176.3515625 780.538085938 c 0,17,18
 218.164583445 868.345626007 218.164583445 868.345626007 265.048828125 845.84765625 c 2,19,-1
 321.3984375 818.807617188 l 2,20,21
 362 799 362 799 332.400390625 734.624023438 c 0,22,23
 275 610 275 610 274.799804688 506.1796875 c 0,0,1
EndSplineSet
Substitution2: "'init' Initial Forms in Arabic lookup 13 subtable" uni066E.init
Substitution2: "'medi' Medial Forms in Arabic lookup 11 subtable" uni066E.medi
Substitution2: "'fina' Terminal Forms in Arabic lookup 9 subtable" uni066E.fina
EndChar

StartChar: uni066F
Encoding: 1647 1647 74
Width: 1528
VWidth: 2529
GlyphClass: 2
Flags: W
AnchorPoint: "Anchor-10" 365.682 1211.63 basechar 0
AnchorPoint: "Anchor-7" 509.633 -702.106 basechar 0
LayerCount: 2
Fore
SplineSet
283.80859375 -15.65234375 m 0,0,1
 287 -363 287 -363 782.625 -359.137695312 c 0,2,3
 1147 -357 1147 -357 1235.19921875 -96.9404296875 c 4,4,5
 1258 -29 1258 -29 1258.87207031 70.0048828125 c 5,6,7
 1149 51 1149 51 1051.34277344 50.7509765625 c 4,8,9
 740 50 740 50 741.651367188 308.958007812 c 0,10,11
 742 363 742 363 755.109375 425.829101562 c 0,12,13
 787 571 787 571 880.456054688 680.77734375 c 0,14,15
 967 783 967 783 1097.56152344 782.706054688 c 0,16,17
 1272 783 1272 783 1347.50390625 605.704101562 c 0,18,19
 1426 424 1426 424 1422.65136719 162.786132812 c 0,20,21
 1422 105 1422 105 1419.45605469 43.73046875 c 8,22,23
 1389 -538 1389 -538 753.407226562 -536.461914062 c 0,24,25
 111 -534 111 -534 112.5703125 -32.3310546875 c 0,26,27
 114 267 114 267 341.775390625 553.0546875 c 0,28,29
 385.187462888 607.233958022 385.187462888 607.233958022 430.965820312 575.787109375 c 2,30,-1
 481.053710938 541.379882812 l 2,31,32
 517 516 517 516 473.657226562 452.87890625 c 0,33,34
 283 181 283 181 283.80859375 -15.65234375 c 0,0,1
1087.34375 598.034179688 m 0,35,36
 944.3671875 596.881835938 944.3671875 596.881835938 898.66796875 394.596679688 c 0,37,38
 889.061523438 351.659179688 889.061523438 351.659179688 899.047851562 312.087890625 c 0,39,40
 923.497070312 219.134765625 923.497070312 219.134765625 1073.56054688 219.291015625 c 0,41,42
 1141.58886719 219.134765625 1141.58886719 219.134765625 1265.22460938 235.189453125 c 1,43,44
 1262.63476562 337.05078125 1262.63476562 337.05078125 1240.15332031 430.463867188 c 0,45,46
 1200.02539062 598.96875 1200.02539062 598.96875 1087.34375 598.034179688 c 0,35,36
EndSplineSet
Substitution2: "'init' Initial Forms in Arabic lookup 13 subtable" uni066F.init
Substitution2: "'medi' Medial Forms in Arabic lookup 11 subtable" uni066F.medi
Substitution2: "'fina' Terminal Forms in Arabic lookup 9 subtable" uni066F.fina
EndChar

StartChar: uni0670
Encoding: 1648 1648 75
Width: -27
VWidth: 2304
GlyphClass: 4
Flags: W
AnchorPoint: "Anchor-10" 569.519 1347.15 mark 0
AnchorPoint: "Anchor-9" 569.519 1347.15 mark 0
AnchorPoint: "Anchor-1" 569.519 2081.6 basemark 0
AnchorPoint: "Anchor-1" 569.519 1347.15 mark 0
LayerCount: 2
Fore
SplineSet
525.1015625 1402.16699219 m 1,0,-1
 525.1015625 2026.58496094 l 1,1,-1
 613.936523438 2026.58496094 l 1,2,-1
 613.936523438 1402.16699219 l 1,3,-1
 525.1015625 1402.16699219 l 1,0,-1
EndSplineSet
EndChar

StartChar: uni0674
Encoding: 1652 1652 76
Width: 672
VWidth: 2393
GlyphClass: 2
Flags: W
LayerCount: 2
Fore
SplineSet
226.129345869 1691.17906833 m 1,0,1
 134.791015625 1751.95628949 134.791015625 1751.95628949 134.791015625 1847.8543055 c 0,2,3
 134.791015625 1868.73976683 134.791015625 1868.73976683 137.418559171 1887.85314227 c 128,-1,4
 140.046102717 1906.96651772 140.046102717 1906.96651772 145.338100997 1924.34823815 c 128,-1,5
 150.630099277 1941.72995859 150.630099277 1941.72995859 158.554881752 1957.22336229 c 128,-1,6
 166.479664226 1972.716766 166.479664226 1972.716766 177.125996702 1986.37840419 c 128,-1,7
 187.772329179 2000.04004239 187.772329179 2000.04004239 201.056686498 2011.69713301 c 0,8,9
 266.911363037 2069.484224 266.911363037 2069.484224 355.616252108 2069.78705111 c 0,10,11
 443.210502406 2070.08608663 443.210502406 2070.08608663 508.852674174 2033.20240152 c 2,12,-1
 513.954101562 2030.33596008 l 1,13,-1
 513.954101562 1911.7999448 l 1,14,-1
 499.785379949 1918.29804405 l 2,15,16
 373.757142309 1976.09747141 373.757142309 1976.09747141 293.314597 1929.46744379 c 0,17,18
 272.519868645 1917.41417309 272.519868645 1917.41417309 261.449230905 1900.2168637 c 128,-1,19
 250.378593166 1883.0195543 250.378593166 1883.0195543 248.31934431 1859.67162006 c 0,20,21
 244.692269109 1817.68241398 244.692269109 1817.68241398 271.278335406 1788.06695711 c 128,-1,22
 297.864401703 1758.45150023 297.864401703 1758.45150023 357.828901143 1740.28632501 c 0,23,-1
 358.453692067 1740.07431334 l 2,24,25
 387.887351329 1728.99086761 387.887351329 1728.99086761 526.437249243 1760.1566086 c 2,26,-1
 538.631835938 1762.89968771 l 1,27,-1
 538.631835938 1640.04106675 l 1,28,-1
 132.44140625 1548.84879418 l 1,29,-1
 132.44140625 1669.56075915 l 1,30,-1
 226.129345869 1691.17906833 l 1,0,1
EndSplineSet
EndChar

StartChar: uni06A1
Encoding: 1697 1697 80
Width: 1857
VWidth: 2529
GlyphClass: 2
Flags: W
AnchorPoint: "Anchor-10" 575.633 1420.33 basechar 0
AnchorPoint: "Anchor-7" 699.85 -179.564 basechar 0
LayerCount: 2
Fore
SplineSet
274.799804688 506.1796875 m 0,0,1
 274 157 274 157 862.974609375 156.170898438 c 0,2,3
 1175 156 1175 156 1369.87402344 221.725585938 c 24,4,5
 1582 294 1582 294 1581.81835938 406.930664062 c 5,6,7
 1471 388 1471 388 1374.2890625 387.676757812 c 4,8,9
 1070 387 1070 387 1071.59765625 613.578125 c 0,10,11
 1072 673 1072 673 1085.05664062 730.450195312 c 0,12,13
 1118 876 1118 876 1210.40332031 985.3984375 c 0,14,15
 1297 1087 1297 1087 1427.5078125 1087.32714844 c 0,16,17
 1603 1087 1603 1087 1674.3203125 924.93359375 c 0,18,19
 1726 809 1726 809 1742.90136719 680.501953125 c 0,20,21
 1791 322 1791 322 1612.90917969 157.013671875 c 0,22,23
 1538 88 1538 88 1410.81152344 46.455078125 c 0,24,25
 1176 -29 1176 -29 839.108398438 -29.2177734375 c 0,26,27
 109 -29 109 -29 106.58203125 485.499023438 c 0,28,29
 106 631 106 631 176.3515625 780.538085938 c 0,30,31
 218.164583445 868.345626007 218.164583445 868.345626007 265.048828125 845.84765625 c 2,32,-1
 321.3984375 818.807617188 l 2,33,34
 362 799 362 799 332.400390625 734.624023438 c 0,35,36
 275 609 275 609 274.799804688 506.1796875 c 0,0,1
1415.203125 902.655273438 m 0,37,38
 1274.11328125 899.497070312 1274.11328125 899.497070312 1228.61425781 699.217773438 c 0,39,40
 1195.64160156 555.119140625 1195.64160156 555.119140625 1403.5078125 555.216796875 c 0,41,42
 1471.33496094 555.141601562 1471.33496094 555.141601562 1595.17089844 571.114257812 c 1,43,44
 1592.12988281 642.420898438 1592.12988281 642.420898438 1570.09960938 735.084960938 c 0,45,46
 1529.77148438 904.71484375 1529.77148438 904.71484375 1415.203125 902.655273438 c 0,37,38
EndSplineSet
Substitution2: "'init' Initial Forms in Arabic lookup 13 subtable" uni06A1.init
Substitution2: "'medi' Medial Forms in Arabic lookup 11 subtable" uni06A1.medi
Substitution2: "'fina' Terminal Forms in Arabic lookup 9 subtable" uni06A1.fina
EndChar

StartChar: uni06A9
Encoding: 1705 1705 81
Width: 2042
VWidth: 2529
GlyphClass: 2
Flags: W
AnchorPoint: "Anchor-10" 452.604 1353.49 basechar 0
AnchorPoint: "Anchor-7" 495.44 -242.295 basechar 0
LayerCount: 2
Fore
SplineSet
1304.62988281 1005.69335938 m 1,0,1
 1803 690 1803 690 1721.62109375 332.676757812 c 0,2,3
 1696 220 1696 220 1589.71679688 133.568359375 c 0,4,5
 1437 9 1437 9 1160.37207031 -16.5966796875 c 0,6,7
 1025 -29 1025 -29 839.108398438 -29.2177734375 c 0,8,9
 109 -29 109 -29 106.58203125 485.499023438 c 0,10,11
 106 631 106 631 176.3515625 780.538085938 c 0,12,13
 218.164583445 868.345626007 218.164583445 868.345626007 265.048828125 845.84765625 c 2,14,-1
 321.3984375 818.807617188 l 2,15,16
 362 799 362 799 332.400390625 734.624023438 c 0,17,18
 275 609 275 609 274.799804688 506.1796875 c 0,19,20
 274 157 274 157 862.974609375 156.170898438 c 0,21,22
 1223 156 1223 156 1401.17871094 221.725585938 c 8,23,24
 1555 278 1555 278 1559.171875 429.561523438 c 0,25,26
 1563 555 1563 555 1428.55175781 688.188476562 c 0,27,28
 1338 778 1338 778 1242.95410156 838.47265625 c 0,29,30
 1143 903 1143 903 1131.18652344 968.59375 c 4,31,32
 1109 1084 1109 1084 1229.69335938 1164.58398438 c 0,33,34
 1534 1370 1534 1370 1905.18945312 1457.88964844 c 0,35,36
 1985.46547587 1477.11145654 1985.46547587 1477.11145654 1988.70898438 1427.88183594 c 2,37,-1
 1992.7109375 1367.140625 l 2,38,39
 1996 1311 1996 1311 1927.10253906 1294.49511719 c 0,40,41
 1627 1223 1627 1223 1304.62988281 1005.69335938 c 1,0,1
EndSplineSet
Substitution2: "'init' Initial Forms in Arabic lookup 13 subtable" uniFB90
Substitution2: "'medi' Medial Forms in Arabic lookup 11 subtable" uniFB91
Substitution2: "'fina' Terminal Forms in Arabic lookup 9 subtable" uniFB8F
EndChar

StartChar: afii57514
Encoding: 1722 1722 83
Width: 1506
VWidth: 2534
GlyphClass: 2
Flags: W
AnchorPoint: "Anchor-10" 630.408 1219.35 basechar 0
AnchorPoint: "Anchor-7" 470.026 -718.382 basechar 0
LayerCount: 2
Fore
SplineSet
1382.97460938 187.96875 m 0,0,1
 1350 -403 1350 -403 704.362304688 -400.806640625 c 0,2,3
 104 -399 104 -399 105.266601562 103.32421875 c 0,4,5
 106 403 106 403 334.471679688 688.709960938 c 0,6,7
 377.900131302 742.875440277 377.900131302 742.875440277 423.661132812 711.44140625 c 2,8,-1
 473.749023438 677.03515625 l 2,9,10
 510 652 510 652 466.352539062 588.534179688 c 0,11,12
 275 316 275 316 276.50390625 120.002929688 c 0,13,14
 279 -227 279 -227 733.580078125 -223.482421875 c 132,-1,15
 1188 -220 1188 -220 1207.59179688 168.854492188 c 0,16,17
 1219 385 1219 385 1204.91503906 510.271484375 c 0,18,19
 1195.00403833 601.962639609 1195.00403833 601.962639609 1246.98242188 625.973632812 c 2,20,-1
 1297.0703125 649.111328125 l 2,21,22
 1380 687 1380 687 1381.875 597.92578125 c 0,23,24
 1388 273 1388 273 1382.97460938 187.96875 c 0,0,1
EndSplineSet
Substitution2: "'init' Initial Forms in Arabic lookup 13 subtable" uni06BA.init
Substitution2: "'medi' Medial Forms in Arabic lookup 11 subtable" uni06BA.medi
Substitution2: "'fina' Terminal Forms in Arabic lookup 9 subtable" uniFB9F
EndChar

StartChar: uni06F4
Encoding: 1780 1780 90
Width: 1132
VWidth: 2497
GlyphClass: 2
Flags: W
LayerCount: 2
Fore
SplineSet
545.892578125 14.958984375 m 1,0,1
 379.76171875 14.958984375 l 1,2,3
 376 704 376 704 141.760742188 1253.85449219 c 0,4,5
 119.943613156 1305.1325292 119.943613156 1305.1325292 157.568359375 1317.24511719 c 2,6,-1
 250.440429688 1347.14355469 l 2,7,8
 285 1358 285 1358 302.203125 1308.11621094 c 24,9,10
 346 1187 346 1187 390.291015625 1066.01171875 c 2,11,-1
 405.322265625 1019.83496094 l 1,12,-1
 409.803710938 1037.46679688 l 2,13,14
 494 1369 494 1369 794.6796875 1375.63574219 c 0,15,16
 864 1377 864 1377 908.629882812 1370.81542969 c 0,17,18
 955.47265625 1363.9305295 955.47265625 1363.9305295 955.47265625 1297.68164062 c 2,19,-1
 955.47265625 1251.76757812 l 2,20,21
 955 1204 955 1204 916.977539062 1210.9765625 c 0,22,23
 848 1222 848 1222 778.576171875 1214.32910156 c 0,24,25
 686 1204 686 1204 629.163085938 1142.77636719 c 0,26,27
 549 1056 549 1056 549.413085938 981 c 0,28,29
 550 876 550 876 776.125 876.705078125 c 4,30,31
 819 877 819 877 962.891601562 895.954101562 c 4,32,33
 1021.74489067 903.965274245 1021.74489067 903.965274245 1022.20996094 863.0625 c 6,34,-1
 1023.08300781 786.278320312 l 2,35,36
 1024 741 1024 741 992.109375 736.456054688 c 0,37,38
 852 714 852 714 788.712890625 714.1640625 c 0,39,40
 577 713 577 713 455.99609375 817.694335938 c 1,41,42
 536 466 536 466 545.892578125 14.958984375 c 1,0,1
EndSplineSet
EndChar

StartChar: uni06F5
Encoding: 1781 1781 91
Width: 1305
VWidth: 2497
GlyphClass: 2
Flags: W
LayerCount: 2
Fore
SplineSet
395.795898438 192.580078125 m 0,0,1
 552 193 552 193 600.73828125 427.09765625 c 1,2,-1
 713.478515625 427.002929688 l 1,3,4
 753 189 753 189 927.283203125 188.416992188 c 0,5,6
 1027 188 1027 188 1026.61132812 342.875976562 c 0,7,8
 1025 698 1025 698 621.266601562 1057.94726562 c 5,9,10
 281 650 281 650 280.224609375 337.1796875 c 0,11,12
 280 192 280 192 395.795898438 192.580078125 c 0,0,1
390.5078125 15.3046875 m 0,13,14
 107 19 107 19 107.096679688 345.036132812 c 0,15,16
 107 716 107 716 501.803710938 1175.06542969 c 5,17,18
 454.39365864 1219.62996844 454.39365864 1219.62996844 474.500976562 1244.20117188 c 6,19,-1
 542.815429688 1327.68164062 l 6,20,21
 565 1355 565 1355 597.578125 1323.34375 c 4,22,23
 626 1296 626 1296 673.497070312 1251.27246094 c 4,24,25
 1200 756 1200 756 1198.50683594 351.040039062 c 0,26,27
 1197 16 1197 16 936.75390625 15.30078125 c 0,28,29
 728 15 728 15 657.399414062 210.754882812 c 1,30,31
 582 13 582 13 390.5078125 15.3046875 c 0,13,14
EndSplineSet
EndChar

StartChar: uni06F6
Encoding: 1782 1782 92
Width: 1049
VWidth: 2497
GlyphClass: 2
Flags: W
LayerCount: 2
Fore
SplineSet
138 19 m 1,0,1
 247 358 247 358 465.618164062 609.666992188 c 5,2,3
 327 635 327 635 255 681.654665384 c 0,4,5
 115.132716916 775.145187219 115.132716916 775.145187219 114.5390625 940 c 4,6,7
 114 1093 114 1093 217 1204.38384363 c 0,8,9
 342 1340 342 1340 592.5625 1339.09570312 c 0,10,11
 631 1339 631 1339 690.188476562 1330.32617188 c 0,12,13
 718.715930651 1326.04265421 718.715930651 1326.04265421 711.599609375 1280.203125 c 2,14,-1
 700.421875 1208.20214844 l 2,15,16
 696 1181 696 1181 665.14453125 1184.45117188 c 0,17,18
 638 1187 638 1187 593.645507812 1187.54199219 c 0,19,20
 438 1187 438 1187 353 1098.7201849 c 0,21,22
 294 1037 294 1037 289 954 c 0,23,24
 284 880 284 880 347 829.619140625 c 0,25,26
 423 769 423 769 591.6640625 751.49609375 c 1,27,28
 770 867 770 867 889.497070312 898.859375 c 0,29,30
 927.751143 908.934457831 927.751143 908.934457831 928.977539062 879.23828125 c 2,31,-1
 932.985351562 782.192382812 l 2,32,33
 934 753 934 753 908.280273438 740.875 c 0,34,35
 732 657 732 657 578 485.8359375 c 0,36,37
 417 308 417 308 282.53515625 -35.041015625 c 1,38,-1
 138 19 l 1,0,1
EndSplineSet
EndChar

StartChar: uniFB8F
Encoding: 64399 64399 107
Width: 2021
VWidth: 2529
GlyphClass: 2
Flags: W
AnchorPoint: "Anchor-10" 481.706 1307.12 basechar 0
AnchorPoint: "Anchor-7" 510.807 -256.545 basechar 0
LayerCount: 2
Fore
SplineSet
2003.14257812 184.00390625 m 2,0,1
 2027.20117188 184.00390625 l 2,2,3
 2053.296875 183.99995505 2053.296875 183.99995505 2053.296875 98.0888671875 c 2,4,-1
 2053.296875 87.654296875 l 2,5,6
 2053 0 2053 0 2027.20117188 0 c 2,7,-1
 2007.43261719 0 l 2,8,9
 1768 0 1768 0 1644.00878906 189.916992188 c 1,10,11
 1621 160 1621 160 1589.71679688 133.568359375 c 0,12,13
 1443 9 1443 9 1160.37207031 -16.5966796875 c 0,14,15
 1025 -29 1025 -29 839.108398438 -29.2177734375 c 0,16,17
 109 -29 109 -29 106.58203125 485.499023438 c 0,18,19
 106 631 106 631 176.3515625 780.538085938 c 0,20,21
 218.164583445 868.345626007 218.164583445 868.345626007 265.048828125 845.84765625 c 2,22,-1
 321.3984375 818.807617188 l 2,23,24
 362 799 362 799 332.400390625 734.624023438 c 0,25,26
 274 607 274 607 274.799804688 506.1796875 c 0,27,28
 277 157 277 157 862.974609375 156.170898438 c 0,29,30
 1223 156 1223 156 1401.17871094 221.725585938 c 8,31,32
 1555 278 1555 278 1559.171875 429.561523438 c 0,33,34
 1563 555 1563 555 1428.55175781 688.188476562 c 0,35,36
 1338 778 1338 778 1242.95410156 838.47265625 c 0,37,38
 1143 903 1143 903 1131.18652344 968.59375 c 4,39,40
 1109 1084 1109 1084 1229.69335938 1164.58398438 c 0,41,42
 1539.46930771 1370.31926049 1539.46930771 1370.31926049 1905.18945312 1457.88964844 c 0,43,44
 1985.46547587 1477.11145654 1985.46547587 1477.11145654 1988.70898438 1427.88183594 c 2,45,-1
 1992.7109375 1367.140625 l 2,46,47
 1996 1311 1996 1311 1927.10253906 1294.49511719 c 0,48,49
 1630 1225 1630 1225 1304.62988281 1005.69335938 c 1,50,51
 1777 705 1777 705 1724.62792969 373.573242188 c 1,52,53
 1836 184 1836 184 2003.14257812 184.00390625 c 2,0,1
EndSplineSet
EndChar

StartChar: uniFB9F
Encoding: 64415 64415 115
Width: 1587
VWidth: 2534
GlyphClass: 2
Flags: W
AnchorPoint: "Anchor-10" 438.559 802.961 basechar 0
AnchorPoint: "Anchor-7" 291.819 -815.995 basechar 0
LayerCount: 2
Fore
SplineSet
1584.20605469 0 m 6,0,1
 1426 0 1426 0 1382.97460938 62.7490234375 c 5,2,3
 1346 -528 1346 -528 704.362304688 -526.02734375 c 0,4,5
 104 -524 104 -524 105.266601562 -21.896484375 c 0,6,7
 106 278 106 278 334.471679688 563.490234375 c 0,8,9
 377.787544665 617.733945844 377.787544665 617.733945844 423.661132812 586.221679688 c 2,10,-1
 473.749023438 551.814453125 l 2,11,12
 510 527 510 527 466.352539062 463.314453125 c 0,13,14
 275 191 275 191 276.50390625 -5.2177734375 c 0,15,16
 279 -352 279 -352 733.580078125 -348.703125 c 0,17,18
 1188 -345 1188 -345 1207.59179688 43.634765625 c 4,19,20
 1219 260 1219 260 1204.91503906 385.051757812 c 4,21,22
 1195.02649458 476.754299509 1195.02649458 476.754299509 1246.98242188 500.75390625 c 6,23,-1
 1297.0703125 523.890625 l 6,24,25
 1381 563 1381 563 1381.875 472.705078125 c 4,26,27
 1384 320 1384 320 1393.08691406 282.193359375 c 28,28,29
 1400 255 1400 255 1422.96777344 233.147460938 c 4,30,31
 1476.99570551 184.00390625 1476.99570551 184.00390625 1579.91601562 184.00390625 c 6,32,-1
 1593.54101562 184.00390625 l 6,33,34
 1619.63574219 184.000053777 1619.63574219 184.000053777 1619.63574219 98.0888671875 c 6,35,-1
 1619.63574219 87.654296875 l 6,36,37
 1620 0 1620 0 1593.54101562 0 c 6,38,-1
 1584.20605469 0 l 6,0,1
EndSplineSet
EndChar

StartChar: uniFBE8
Encoding: 64488 64488 118
Width: 649
VWidth: 2534
GlyphClass: 2
Flags: W
AnchorPoint: "Anchor-10" 321.8 1177.97 basechar 0
AnchorPoint: "Anchor-7" 283.815 -220.341 basechar 0
LayerCount: 2
Fore
SplineSet
-5.2177734375 184.00390625 m 2,0,-1
 58.677734375 183.994140625 l 6,1,2
 380 184 380 184 367.151367188 396.530273438 c 0,3,4
 361 496 361 496 327.659179688 628.186523438 c 0,5,6
 305.97682887 713.090734003 305.97682887 713.090734003 350.616210938 731.01953125 c 2,7,-1
 419.487304688 758.680664062 l 2,8,9
 477 782 477 782 499.440429688 701.232421875 c 0,10,11
 544 546 544 546 544.598632812 413.225585938 c 0,12,13
 546 0 546 0 55.958984375 0 c 6,14,-1
 -5.2177734375 0 l 2,15,16
 -73.8623046875 0 -73.8623046875 0 -73.8623046875 89.7412109375 c 2,17,-1
 -73.8623046875 97.0458984375 l 2,18,19
 -74 184 -74 184 -5.2177734375 184.00390625 c 2,0,-1
EndSplineSet
EndChar

StartChar: uniFBE9
Encoding: 64489 64489 119
Width: 736
VWidth: 2529
GlyphClass: 2
Flags: W
AnchorPoint: "Anchor-10" 382.205 1117.6 basechar 0
AnchorPoint: "Anchor-7" 298.699 -217.107 basechar 0
LayerCount: 2
Fore
SplineSet
741.928710938 0 m 2,0,-1
 692.159179688 0 l 2,1,2
 507 0 507 0 426.102539062 127.91796875 c 5,3,4
 302 0 302 0 39.6904296875 0 c 2,5,-1
 -5.2177734375 0 l 2,6,7
 -73.8623046875 0 -73.8623046875 0 -73.8623046875 89.7412109375 c 2,8,-1
 -73.8623046875 97.0458984375 l 2,9,10
 -74.0000310992 184.019639057 -74.0000310992 184.019639057 -5.2177734375 184.00390625 c 2,11,-1
 37.4765625 183.994140625 l 2,12,13
 357.782901817 183.999996031 357.782901817 183.999996031 362.677734375 358.630859375 c 6,14,-1
 365.962890625 475.833984375 l 2,15,16
 368.013504947 534.385609627 368.013504947 534.385609627 419.303710938 534.349609375 c 2,17,-1
 473.565429688 534.311523438 l 2,18,19
 521.910114718 534.000578128 521.910114718 534.000578128 518.1796875 454.963867188 c 2,20,-1
 513.40234375 353.74609375 l 2,21,22
 505.000193357 184.00390625 505.000193357 184.00390625 697.869140625 184.00390625 c 2,23,-1
 741.928710938 184.00390625 l 2,24,25
 768.024414062 183.999996342 768.024414062 183.999996342 768.024414062 98.0888671875 c 2,26,-1
 768.024414062 87.654296875 l 2,27,28
 768 0 768 0 741.928710938 0 c 2,0,-1
EndSplineSet
EndChar

StartChar: uniFE73
Encoding: 65139 65139 127
Width: 634
VWidth: 2429
GlyphClass: 2
Flags: W
AnchorPoint: "Anchor-10" 231.504 1421.44 basechar 0
AnchorPoint: "Anchor-7" 231.504 -126.044 basechar 0
LayerCount: 2
Fore
SplineSet
324.555664062 388.198242188 m 2,0,1
 324.555664062 315.91015625 324.555664062 315.91015625 384.729492188 255.735351562 c 128,-1,2
 444.903320312 195.560546875 444.903320312 195.560546875 569.5703125 195.560546875 c 2,3,-1
 642.385742188 195.560546875 l 1,4,-1
 642.385742188 9.4560546875 l 1,5,-1
 504.099609375 9.4560546875 l 2,6,7
 341.88671875 9.4560546875 341.88671875 9.4560546875 240.169921875 111.173828125 c 128,-1,8
 138.452148438 212.890625 138.452148438 212.890625 138.452148438 373.9140625 c 2,9,-1
 138.452148438 408.637695312 l 1,10,-1
 324.555664062 408.637695312 l 1,11,-1
 324.555664062 388.198242188 l 2,0,1
EndSplineSet
EndChar

StartChar: uniFE8E
Encoding: 65166 65166 153
Width: 558
VWidth: 2529
GlyphClass: 2
Flags: W
AnchorPoint: "Anchor-10" 253.67 1560.03 basechar 0
AnchorPoint: "Anchor-7" 297.508 -241.812 basechar 0
LayerCount: 2
Fore
SplineSet
541.459960938 184.00390625 m 2,0,-1
 564.649414062 184.00390625 l 2,1,2
 590.745117188 184.000037784 590.745117188 184.000037784 590.745117188 98.0888671875 c 2,3,-1
 590.745117188 87.654296875 l 2,4,5
 591 0 591 0 564.649414062 0 c 2,6,-1
 545.750976562 0 l 6,7,8
 181 0 181 0 164.61328125 486.951171875 c 0,9,10
 150 916 150 916 181.171875 1291.85253906 c 0,11,12
 185.991984849 1350.90180954 185.991984849 1350.90180954 230.61328125 1351.20605469 c 2,13,-1
 296.353515625 1351.65429688 l 2,14,15
 352 1352 352 1352 347.470703125 1288.72265625 c 0,16,17
 305 642 305 642 340.37109375 415.313476562 c 0,18,19
 358 305 358 305 397.303710938 256.279296875 c 0,20,21
 458 184 458 184 541.459960938 184.00390625 c 2,0,-1
EndSplineSet
EndChar

StartChar: uniFEA2
Encoding: 65186 65186 173
Width: 1328
VWidth: 2529
GlyphClass: 2
Flags: W
AnchorPoint: "Anchor-10" 530.084 1254.77 basechar 0
AnchorPoint: "Anchor-7" 279.479 -854.724 basechar 0
LayerCount: 2
Fore
SplineSet
1313.15722656 0 m 6,0,1
 907 0 907 0 888.018554688 402.697265625 c 1,2,3
 309 206 309 206 308.172851562 -216.170898438 c 0,4,5
 308 -542 308 -542 728.36328125 -541.711914062 c 0,6,7
 923 -542 923 -542 1108.19726562 -467.028320312 c 0,8,9
 1174.89904084 -440.040847975 1174.89904084 -440.040847975 1184.9921875 -487.314453125 c 2,10,-1
 1201.03320312 -562.446289062 l 2,11,12
 1212 -613 1212 -613 1152.02441406 -638.774414062 c 0,13,14
 970 -716 970 -716 716.884765625 -715.5 c 0,15,16
 464 -715 464 -715 325.572265625 -614.307617188 c 0,17,18
 140 -481 140 -481 140.529296875 -219.353515625 c 0,19,20
 143 315 143 315 796.190429688 539.489257812 c 1,21,22
 582 595 582 595 453.568359375 591.856445312 c 0,23,24
 337 589 337 589 188.873046875 397.573242188 c 1,25,-1
 62.6103515625 471.662109375 l 1,26,27
 238 758 238 758 447.306640625 771.505859375 c 0,28,29
 570 779 570 779 791.1484375 725.28515625 c 0,30,31
 997 675 997 675 1124.89257812 618.765625 c 0,32,33
 1177.25804932 595.887258785 1177.25804932 595.887258785 1172.80078125 566.620117188 c 2,34,-1
 1163.265625 504.010742188 l 2,35,36
 1156 456 1156 456 1089.4140625 448.705078125 c 0,37,38
 1066 446 1066 446 1021.58691406 437.948242188 c 1,39,40
 1040.99970139 184.00390625 1040.99970139 184.00390625 1314.33691406 184.00390625 c 6,41,-1
 1333.9609375 184.00390625 l 2,42,43
 1360.05664062 183.999991503 1360.05664062 183.999991503 1360.05664062 98.0888671875 c 2,44,-1
 1360.05664062 87.654296875 l 2,45,46
 1360 0 1360 0 1333.9609375 0 c 2,47,-1
 1313.15722656 0 l 6,0,1
EndSplineSet
EndChar

StartChar: uniFEA3
Encoding: 65187 65187 174
Width: 1340
VWidth: 2529
GlyphClass: 2
Flags: W
AnchorPoint: "Anchor-10" 489.089 1199.15 basechar 0
AnchorPoint: "Anchor-7" 544.329 -265.003 basechar 0
LayerCount: 2
Fore
SplineSet
-5.2177734375 184.00390625 m 2,0,-1
 23.2490234375 183.994140625 l 2,1,2
 747 184 747 184 1038.01660156 517.032226562 c 1,3,4
 836 590 836 590 776.3203125 604.626953125 c 0,5,6
 665 633 665 633 598.96875 632.236328125 c 0,7,8
 415 631 415 631 247.309570312 364.8828125 c 0,9,10
 214.112176902 312.178093864 214.112176902 312.178093864 176.3515625 341.224609375 c 2,11,-1
 125.219726562 380.556640625 l 2,12,13
 94 405 94 405 118.958984375 450.497070312 c 0,14,15
 327 819 327 819 603.142578125 811.88671875 c 0,16,17
 764 808 764 808 946.984375 744.795898438 c 0,18,19
 1236 646 1236 646 1230.11425781 512.358398438 c 0,20,21
 1227 443 1227 443 1143.67578125 364.181640625 c 0,22,23
 759 0 759 0 25.2099609375 0 c 2,24,-1
 -5.2177734375 0 l 2,25,26
 -73.8623046875 0 -73.8623046875 0 -73.8623046875 89.7412109375 c 2,27,-1
 -73.8623046875 97.0458984375 l 2,28,29
 -74 184 -74 184 -5.2177734375 184.00390625 c 2,0,-1
EndSplineSet
EndChar

StartChar: uniFEA4
Encoding: 65188 65188 175
Width: 1411
VWidth: 2529
GlyphClass: 2
Flags: W
AnchorPoint: "Anchor-10" 495.858 1226.5 basechar 0
AnchorPoint: "Anchor-7" 540.625 -307.683 basechar 0
LayerCount: 2
Fore
SplineSet
1371.94140625 0 m 2,0,1
 1007 0 1007 0 930.801757812 207.6953125 c 1,2,3
 561 0 561 0 25.2099609375 0 c 6,4,-1
 -5.2177734375 0 l 2,5,6
 -73.8623046875 0 -73.8623046875 0 -73.8623046875 89.7412109375 c 2,7,-1
 -73.8623046875 97.0458984375 l 2,8,9
 -74.0000435509 184.027502226 -74.0000435509 184.027502226 -5.2177734375 184.00390625 c 2,10,-1
 23.2490234375 183.994140625 l 6,11,12
 747 184 747 184 1038.01660156 517.032226562 c 1,13,14
 836 590 836 590 776.3203125 604.626953125 c 0,15,16
 665 633 665 633 598.96875 632.236328125 c 0,17,18
 414 629 414 629 247.309570312 364.8828125 c 0,19,20
 214.112176902 312.178093864 214.112176902 312.178093864 176.3515625 341.224609375 c 2,21,-1
 125.219726562 380.556640625 l 2,22,23
 94 405 94 405 118.958984375 450.497070312 c 0,24,25
 321 819 321 819 603.142578125 811.88671875 c 0,26,27
 764 808 764 808 946.984375 744.795898438 c 0,28,29
 1234 646 1234 646 1230.18847656 514.4453125 c 0,30,31
 1228 445 1228 445 1143.67578125 364.181640625 c 0,32,33
 1103 326 1103 326 1064.37011719 296.184570312 c 1,34,35
 1115.99820226 184.00390625 1115.99820226 184.00390625 1377.65039062 184.00390625 c 2,36,-1
 1417.79785156 184.00390625 l 2,37,38
 1443.89355469 184.000015869 1443.89355469 184.000015869 1443.89355469 98.0888671875 c 2,39,-1
 1443.89355469 87.654296875 l 2,40,41
 1444 0 1444 0 1417.79785156 0 c 2,42,-1
 1371.94140625 0 l 2,0,1
EndSplineSet
EndChar

StartChar: uniFEAA
Encoding: 65194 65194 181
Width: 1103
VWidth: 2529
GlyphClass: 2
Flags: W
AnchorPoint: "Anchor-10" 561.936 1340.07 basechar 0
AnchorPoint: "Anchor-7" 394.25 -276.058 basechar 0
LayerCount: 2
Fore
SplineSet
1075.55859375 184.00390625 m 6,0,1
 1109.18261719 184.00390625 l 6,2,3
 1135.27832031 183.999957889 1135.27832031 183.999957889 1135.27832031 98.0888671875 c 6,4,-1
 1135.27832031 87.654296875 l 6,5,6
 1135 0 1135 0 1109.18261719 0 c 6,7,-1
 1082.97949219 0 l 6,8,9
 916 0 916 0 830.349609375 126.620117188 c 1,10,11
 692 -28 692 -28 441.2265625 -29.7333984375 c 0,12,13
 266 -31 266 -31 153.39453125 25.3974609375 c 0,14,15
 103.639648438 50.1794847153 103.639648438 50.1794847153 103.639648438 97.0458984375 c 2,16,-1
 103.639648438 184.69921875 l 2,17,18
 104 251 104 251 169.046875 218.7734375 c 0,19,20
 305 152 305 152 437.033203125 151.084960938 c 0,21,22
 691 151 691 151 712.576171875 319.409179688 c 0,23,24
 719 370 719 370 673.74609375 777.407226562 c 0,25,26
 666.986787827 838.118670487 666.986787827 838.118670487 703.145507812 850.205078125 c 2,27,-1
 807.495117188 885.084960938 l 2,28,29
 842 897 842 897 846.442382812 830.625976562 c 0,30,31
 872 452 872 452 888.413085938 374.083007812 c 0,32,33
 927 184 927 184 1075.55859375 184.00390625 c 6,0,1
EndSplineSet
EndChar

StartChar: uniFEAE
Encoding: 65198 65198 185
Width: 937
VWidth: 2534
GlyphClass: 2
Flags: W
AnchorPoint: "Anchor-10" 535.407 914.132 basechar 0
AnchorPoint: "Anchor-7" 364.147 -711.119 basechar 0
LayerCount: 2
Fore
SplineSet
924.163085938 184.00390625 m 2,0,-1
 943.178710938 184.00390625 l 2,1,2
 969.274414062 183.999958487 969.274414062 183.999958487 969.274414062 98.0888671875 c 2,3,-1
 969.274414062 87.654296875 l 2,4,5
 969 0 969 0 943.178710938 0 c 2,6,-1
 924.453125 0 l 2,7,8
 797 0 797 0 731.791015625 62.6103515625 c 1,9,10
 647 -437 647 -437 121.045898438 -503.659179688 c 0,11,12
 94.7088811799 -507.037340838 94.7088811799 -507.037340838 81.3740234375 -487.576171875 c 2,13,-1
 35.61328125 -420.791992188 l 2,14,15
 12 -386 12 -386 48.0009765625 -377.120117188 c 0,16,17
 527 -257 527 -257 573.083007812 134.803710938 c 0,18,19
 579 189 579 189 569.333984375 445.139648438 c 4,20,21
 567.014112512 506.625959394 567.014112512 506.625959394 606.2734375 514.936523438 c 6,22,-1
 687.666015625 532.166015625 l 6,23,24
 736 542 736 542 738.591796875 473.314453125 c 4,25,-1
 743.275390625 318.267578125 l 2,26,27
 747 184 747 184 924.163085938 184.00390625 c 2,0,-1
EndSplineSet
PairPos2: "'kern' Horizontal Kerning lookup 15-1" uniFEE7 dx=-157 dy=0 dh=-157 dv=0 dx=0 dy=0 dh=0 dv=0
PairPos2: "'kern' Horizontal Kerning lookup 15-2" uniFB90 dx=-198 dy=0 dh=-198 dv=0 dx=0 dy=0 dh=0 dv=0
PairPos2: "'kern' Horizontal Kerning lookup 15-2" uniFB8E dx=-198 dy=0 dh=-198 dv=0 dx=0 dy=0 dh=0 dv=0
PairPos2: "'kern' Horizontal Kerning lookup 15-2" uni06A9 dx=-198 dy=0 dh=-198 dv=0 dx=0 dy=0 dh=0 dv=0
PairPos2: "'kern' Horizontal Kerning lookup 15-2" uni064A dx=-52 dy=0 dh=-52 dv=0 dx=0 dy=0 dh=0 dv=0
PairPos2: "'kern' Horizontal Kerning lookup 15-2" afii57414 dx=-52 dy=0 dh=-52 dv=0 dx=0 dy=0 dh=0 dv=0
PairPos2: "'kern' Horizontal Kerning lookup 15-2" uni0649 dx=-52 dy=0 dh=-52 dv=0 dx=0 dy=0 dh=0 dv=0
PairPos2: "'kern' Horizontal Kerning lookup 15-2" uni0648 dx=-52 dy=0 dh=-52 dv=0 dx=0 dy=0 dh=0 dv=0
PairPos2: "'kern' Horizontal Kerning lookup 15-2" afii57412 dx=-52 dy=0 dh=-52 dv=0 dx=0 dy=0 dh=0 dv=0
PairPos2: "'kern' Horizontal Kerning lookup 15-2" uniFEEB dx=-157 dy=0 dh=-157 dv=0 dx=0 dy=0 dh=0 dv=0
PairPos2: "'kern' Horizontal Kerning lookup 15-2" uni0647 dx=-157 dy=0 dh=-157 dv=0 dx=0 dy=0 dh=0 dv=0
PairPos2: "'kern' Horizontal Kerning lookup 15-2" uni0646 dx=-52 dy=0 dh=-52 dv=0 dx=0 dy=0 dh=0 dv=0
PairPos2: "'kern' Horizontal Kerning lookup 15-2" uniFEE3 dx=-157 dy=0 dh=-157 dv=0 dx=0 dy=0 dh=0 dv=0
PairPos2: "'kern' Horizontal Kerning lookup 15-2" uni0645 dx=-157 dy=0 dh=-157 dv=0 dx=0 dy=0 dh=0 dv=0
PairPos2: "'kern' Horizontal Kerning lookup 15-2" uniFEFB dx=-157 dy=0 dh=-157 dv=0 dx=0 dy=0 dh=0 dv=0
PairPos2: "'kern' Horizontal Kerning lookup 15-2" uniFEDF dx=-157 dy=0 dh=-157 dv=0 dx=0 dy=0 dh=0 dv=0
PairPos2: "'kern' Horizontal Kerning lookup 15-2" uni0644 dx=-52 dy=0 dh=-52 dv=0 dx=0 dy=0 dh=0 dv=0
PairPos2: "'kern' Horizontal Kerning lookup 15-2" uniFEDB dx=-198 dy=0 dh=-198 dv=0 dx=0 dy=0 dh=0 dv=0
PairPos2: "'kern' Horizontal Kerning lookup 15-2" uni0643 dx=-157 dy=0 dh=-157 dv=0 dx=0 dy=0 dh=0 dv=0
PairPos2: "'kern' Horizontal Kerning lookup 15-2" uniFED7 dx=-157 dy=0 dh=-157 dv=0 dx=0 dy=0 dh=0 dv=0
PairPos2: "'kern' Horizontal Kerning lookup 15-2" uni0642 dx=-52 dy=0 dh=-52 dv=0 dx=0 dy=0 dh=0 dv=0
PairPos2: "'kern' Horizontal Kerning lookup 15-2" uniFED3 dx=-157 dy=0 dh=-157 dv=0 dx=0 dy=0 dh=0 dv=0
PairPos2: "'kern' Horizontal Kerning lookup 15-2" uni0641 dx=-157 dy=0 dh=-157 dv=0 dx=0 dy=0 dh=0 dv=0
PairPos2: "'kern' Horizontal Kerning lookup 15-2" uniFECF dx=-157 dy=0 dh=-157 dv=0 dx=0 dy=0 dh=0 dv=0
PairPos2: "'kern' Horizontal Kerning lookup 15-2" uniFECB dx=-157 dy=0 dh=-157 dv=0 dx=0 dy=0 dh=0 dv=0
PairPos2: "'kern' Horizontal Kerning lookup 15-2" uniFEC7 dx=-157 dy=0 dh=-157 dv=0 dx=0 dy=0 dh=0 dv=0
PairPos2: "'kern' Horizontal Kerning lookup 15-2" uni0638 dx=-157 dy=0 dh=-157 dv=0 dx=0 dy=0 dh=0 dv=0
PairPos2: "'kern' Horizontal Kerning lookup 15-2" uniFEC3 dx=-157 dy=0 dh=-157 dv=0 dx=0 dy=0 dh=0 dv=0
PairPos2: "'kern' Horizontal Kerning lookup 15-2" uni0637 dx=-157 dy=0 dh=-157 dv=0 dx=0 dy=0 dh=0 dv=0
PairPos2: "'kern' Horizontal Kerning lookup 15-2" uniFEBF dx=-157 dy=0 dh=-157 dv=0 dx=0 dy=0 dh=0 dv=0
PairPos2: "'kern' Horizontal Kerning lookup 15-2" uni0636 dx=-157 dy=0 dh=-157 dv=0 dx=0 dy=0 dh=0 dv=0
PairPos2: "'kern' Horizontal Kerning lookup 15-2" uniFEBB dx=-157 dy=0 dh=-157 dv=0 dx=0 dy=0 dh=0 dv=0
PairPos2: "'kern' Horizontal Kerning lookup 15-2" uni0635 dx=-157 dy=0 dh=-157 dv=0 dx=0 dy=0 dh=0 dv=0
PairPos2: "'kern' Horizontal Kerning lookup 15-2" uniFEB7 dx=-157 dy=0 dh=-157 dv=0 dx=0 dy=0 dh=0 dv=0
PairPos2: "'kern' Horizontal Kerning lookup 15-2" uni0634 dx=-157 dy=0 dh=-157 dv=0 dx=0 dy=0 dh=0 dv=0
PairPos2: "'kern' Horizontal Kerning lookup 15-2" uniFEB3 dx=-157 dy=0 dh=-157 dv=0 dx=0 dy=0 dh=0 dv=0
PairPos2: "'kern' Horizontal Kerning lookup 15-2" uni0633 dx=-157 dy=0 dh=-157 dv=0 dx=0 dy=0 dh=0 dv=0
PairPos2: "'kern' Horizontal Kerning lookup 15-2" uni0632 dx=-52 dy=0 dh=-52 dv=0 dx=0 dy=0 dh=0 dv=0
PairPos2: "'kern' Horizontal Kerning lookup 15-2" uni0631 dx=-52 dy=0 dh=-52 dv=0 dx=0 dy=0 dh=0 dv=0
PairPos2: "'kern' Horizontal Kerning lookup 15-2" uni0630 dx=-157 dy=0 dh=-157 dv=0 dx=0 dy=0 dh=0 dv=0
PairPos2: "'kern' Horizontal Kerning lookup 15-2" uni062F dx=-157 dy=0 dh=-157 dv=0 dx=0 dy=0 dh=0 dv=0
PairPos2: "'kern' Horizontal Kerning lookup 15-2" uniFEA7 dx=-157 dy=0 dh=-157 dv=0 dx=0 dy=0 dh=0 dv=0
PairPos2: "'kern' Horizontal Kerning lookup 15-2" uniFEA3 dx=-157 dy=0 dh=-157 dv=0 dx=0 dy=0 dh=0 dv=0
PairPos2: "'kern' Horizontal Kerning lookup 15-2" uniFE9F dx=-157 dy=0 dh=-157 dv=0 dx=0 dy=0 dh=0 dv=0
PairPos2: "'kern' Horizontal Kerning lookup 15-2" uniFE9B dx=-157 dy=0 dh=-157 dv=0 dx=0 dy=0 dh=0 dv=0
PairPos2: "'kern' Horizontal Kerning lookup 15-2" uni062B dx=-157 dy=0 dh=-157 dv=0 dx=0 dy=0 dh=0 dv=0
PairPos2: "'kern' Horizontal Kerning lookup 15-2" uniFE97 dx=-157 dy=0 dh=-157 dv=0 dx=0 dy=0 dh=0 dv=0
PairPos2: "'kern' Horizontal Kerning lookup 15-2" uni062A dx=-157 dy=0 dh=-157 dv=0 dx=0 dy=0 dh=0 dv=0
PairPos2: "'kern' Horizontal Kerning lookup 15-2" uni0629 dx=-157 dy=0 dh=-157 dv=0 dx=0 dy=0 dh=0 dv=0
PairPos2: "'kern' Horizontal Kerning lookup 15-2" uniFE91 dx=-52 dy=0 dh=-52 dv=0 dx=0 dy=0 dh=0 dv=0
PairPos2: "'kern' Horizontal Kerning lookup 15-2" uni0628 dx=-157 dy=0 dh=-157 dv=0 dx=0 dy=0 dh=0 dv=0
PairPos2: "'kern' Horizontal Kerning lookup 15-2" uni0627 dx=-198 dy=0 dh=-198 dv=0 dx=0 dy=0 dh=0 dv=0
PairPos2: "'kern' Horizontal Kerning lookup 15-2" uni0623 dx=-198 dy=0 dh=-198 dv=0 dx=0 dy=0 dh=0 dv=0
PairPos2: "'kern' Horizontal Kerning lookup 15-2" uni0622 dx=-198 dy=0 dh=-198 dv=0 dx=0 dy=0 dh=0 dv=0
PairPos2: "'kern' Horizontal Kerning lookup 15-2" uni0621 dx=-157 dy=0 dh=-157 dv=0 dx=0 dy=0 dh=0 dv=0
PairPos2: "'kern' Horizontal Kerning lookup 15-2" uniFB94 dx=-198 dy=0 dh=-198 dv=0 dx=0 dy=0 dh=0 dv=0
PairPos2: "'kern' Horizontal Kerning lookup 15-2" uniFB92 dx=-198 dy=0 dh=-198 dv=0 dx=0 dy=0 dh=0 dv=0
PairPos2: "'kern' Horizontal Kerning lookup 15-2" afii57509 dx=-198 dy=0 dh=-198 dv=0 dx=0 dy=0 dh=0 dv=0
PairPos2: "'kern' Horizontal Kerning lookup 15-2" afii57508 dx=-52 dy=0 dh=-52 dv=0 dx=0 dy=0 dh=0 dv=0
PairPos2: "'kern' Horizontal Kerning lookup 15-2" afii57506 dx=-157 dy=0 dh=-157 dv=0 dx=0 dy=0 dh=0 dv=0
PairPos2: "'kern' Horizontal Kerning lookup 15-2" afii57440 dx=-157 dy=0 dh=-157 dv=0 dx=0 dy=0 dh=0 dv=0
PairPos2: "'kern' Horizontal Kerning lookup 15-2" uniFE8B dx=-157 dy=0 dh=-157 dv=0 dx=0 dy=0 dh=0 dv=0
EndChar

StartChar: uniFEB2
Encoding: 65202 65202 189
Width: 2606
VWidth: 2534
GlyphClass: 2
Flags: W
AnchorPoint: "Anchor-10" 694.566 1021.24 basechar 0
AnchorPoint: "Anchor-7" 423.713 -707.931 basechar 0
LayerCount: 2
Fore
SplineSet
2588.72167969 184.00390625 m 6,0,-1
 2612.78125 184.00390625 l 6,1,2
 2638.87695312 184.000018332 2638.87695312 184.000018332 2638.87695312 98.0888671875 c 6,3,-1
 2638.87695312 87.654296875 l 6,4,5
 2639 0 2639 0 2612.78125 0 c 6,6,-1
 2593.01171875 0 l 6,7,8
 2402 0 2402 0 2334.62304688 141.985351562 c 5,9,10
 2228 0 2228 0 2084 0 c 4,11,12
 1919 0 1919 0 1837.78710938 141.985351562 c 1,13,14
 1701 1 1701 1 1566.29394531 0 c 0,15,16
 1413 -1 1413 -1 1382.97460938 62.7490234375 c 1,17,18
 1346 -528 1346 -528 704.362304688 -526.02734375 c 0,19,20
 104 -524 104 -524 105.266601562 -21.896484375 c 0,21,22
 106 278 106 278 334.471679688 563.490234375 c 0,23,24
 377.787544665 617.733945844 377.787544665 617.733945844 423.661132812 586.221679688 c 2,25,-1
 473.749023438 551.814453125 l 2,26,27
 510 527 510 527 466.352539062 463.314453125 c 0,28,29
 275 191 275 191 276.50390625 -5.2177734375 c 0,30,31
 279 -352 279 -352 733.580078125 -348.703125 c 0,32,33
 1188 -345 1188 -345 1207.59179688 43.634765625 c 0,34,35
 1219 260 1219 260 1204.91503906 385.051757812 c 0,36,37
 1195.02649458 476.754299509 1195.02649458 476.754299509 1246.98242188 500.75390625 c 2,38,-1
 1297.0703125 523.890625 l 2,39,40
 1381 563 1381 563 1381.875 472.705078125 c 0,41,42
 1384 308 1384 308 1393.08691406 282.193359375 c 8,43,44
 1429 182 1429 182 1560.0390625 183.99609375 c 0,45,46
 1761.84013506 187.996830653 1761.84013506 187.996830653 1772.62890625 408.6328125 c 2,47,-1
 1775.91503906 475.8359375 l 2,48,49
 1779.02051665 534.386822352 1779.02051665 534.386822352 1829.25585938 534.3515625 c 2,50,-1
 1883.51757812 534.313476562 l 2,51,52
 1931.86124547 534.000897156 1931.86124547 534.000897156 1928.13085938 454.965820312 c 2,53,-1
 1923.35351562 353.749023438 l 2,54,55
 1915 182 1915 182 2098.61523438 183.99609375 c 4,56,57
 2258.58238718 185.994782192 2258.58238718 185.994782192 2269.46582031 408.6328125 c 6,58,-1
 2272.75097656 475.8359375 l 6,59,60
 2276.02160128 534.386706436 2276.02160128 534.386706436 2326.09179688 534.3515625 c 6,61,-1
 2380.35351562 534.313476562 l 6,62,63
 2428.69820897 534.001944733 2428.69820897 534.001944733 2424.96777344 454.965820312 c 6,64,-1
 2420.19042969 353.749023438 l 6,65,66
 2412 184 2412 184 2588.72167969 184.00390625 c 6,0,-1
EndSplineSet
EndChar

StartChar: uniFEB3
Encoding: 65203 65203 190
Width: 1585
VWidth: 2534
GlyphClass: 2
Flags: W
AnchorPoint: "Anchor-10" 696.96 1104.83 basechar 0
AnchorPoint: "Anchor-7" 720.178 -222.657 basechar 0
LayerCount: 2
Fore
SplineSet
-5.2177734375 184.00390625 m 6,0,-1
 24.8662109375 183.994140625 l 6,1,2
 289.086532364 184.00000192 289.086532364 184.00000192 300.067382812 408.630859375 c 2,3,-1
 303.352539062 475.833984375 l 2,4,5
 306.017531596 534.385177759 306.017531596 534.385177759 356.693359375 534.349609375 c 2,6,-1
 410.956054688 534.311523438 l 2,7,8
 459.299644165 533.998057067 459.299644165 533.998057067 455.569335938 454.963867188 c 2,9,-1
 450.791992188 353.74609375 l 2,10,11
 443 182 443 182 630.096679688 183.994140625 c 4,12,13
 810.934264601 185.999271125 810.934264601 185.999271125 821.817382812 408.630859375 c 2,14,-1
 825.102539062 475.833984375 l 2,15,16
 828.019178308 534.385001134 828.019178308 534.385001134 878.443359375 534.349609375 c 2,17,-1
 932.706054688 534.311523438 l 2,18,19
 981.049720731 533.999679273 981.049720731 533.999679273 977.319335938 454.963867188 c 2,20,-1
 972.541992188 353.74609375 l 2,21,22
 964 182 964 182 1151.74316406 183.994140625 c 4,23,24
 1320 186 1320 186 1306.30078125 427.834960938 c 0,25,26
 1302 504 1302 504 1280.52050781 591.662109375 c 0,27,28
 1259.9315981 672.267793763 1259.9315981 672.267793763 1300.01757812 688.368164062 c 2,29,-1
 1365.7578125 714.772460938 l 2,30,31
 1429 740 1429 740 1449.60351562 663.6640625 c 0,32,33
 1483 545 1483 545 1483.74902344 444.53125 c 0,34,35
 1487 0 1487 0 1155.28515625 0 c 16,36,37
 970 0 970 0 886.974609375 141.983398438 c 1,38,39
 749 0 749 0 615.481445312 -0.001953125 c 0,40,41
 433 0 433 0 363.4921875 127.91796875 c 1,42,43
 249 0 249 0 27.080078125 0 c 2,44,-1
 -5.2177734375 0 l 2,45,46
 -73.8623046875 0 -73.8623046875 0 -73.8623046875 89.7412109375 c 2,47,-1
 -73.8623046875 97.0458984375 l 2,48,49
 -74 184 -74 184 -5.2177734375 184.00390625 c 6,0,-1
EndSplineSet
EndChar

StartChar: uniFEB4
Encoding: 65204 65204 191
Width: 1657
VWidth: 2534
GlyphClass: 2
Flags: W
AnchorPoint: "Anchor-10" 781.119 1099.02 basechar 0
AnchorPoint: "Anchor-7" 848.686 -245.875 basechar 0
LayerCount: 2
Fore
SplineSet
1653.42675781 0 m 6,0,1
 1453 0 1453 0 1385.03808594 141.985351562 c 1,2,3
 1278 0 1278 0 1134.41503906 0 c 0,4,5
 970 0 970 0 886.974609375 141.983398438 c 1,6,7
 749 0 749 0 615.481445312 -0.001953125 c 0,8,9
 433 0 433 0 363.4921875 127.91796875 c 1,10,11
 249 0 249 0 27.080078125 0 c 2,12,-1
 -5.2177734375 0 l 2,13,14
 -73.8623046875 0 -73.8623046875 0 -73.8623046875 89.7412109375 c 2,15,-1
 -73.8623046875 97.0458984375 l 2,16,17
 -74.0000415423 184.026233806 -74.0000415423 184.026233806 -5.2177734375 184.00390625 c 2,18,-1
 24.8662109375 183.994140625 l 2,19,20
 289.086532363 184.00000192 289.086532363 184.00000192 300.067382812 408.630859375 c 2,21,-1
 303.352539062 475.833984375 l 2,22,23
 306.017531596 534.385177759 306.017531596 534.385177759 356.693359375 534.349609375 c 2,24,-1
 410.956054688 534.311523438 l 2,25,26
 459.299644166 533.998057067 459.299644166 533.998057067 455.569335938 454.963867188 c 2,27,-1
 450.791992188 353.74609375 l 2,28,29
 443 183 443 183 630.096679688 183.994140625 c 0,30,31
 810.885385097 184.999362718 810.885385097 184.999362718 821.817382812 408.630859375 c 2,32,-1
 825.102539062 475.833984375 l 2,33,34
 828.019178308 534.385001133 828.019178308 534.385001133 878.443359375 534.349609375 c 2,35,-1
 932.706054688 534.311523438 l 2,36,37
 981.049720732 533.999679273 981.049720732 533.999679273 977.319335938 454.963867188 c 2,38,-1
 972.541992188 353.74609375 l 2,39,40
 964 181 964 181 1149.03027344 183.99609375 c 0,41,42
 1308.99767993 185.999970937 1308.99767993 185.999970937 1319.88085938 408.6328125 c 2,43,-1
 1323.16601562 475.8359375 l 2,44,45
 1326.01885616 534.386999676 1326.01885616 534.386999676 1376.50683594 534.3515625 c 2,46,-1
 1430.76855469 534.313476562 l 2,47,48
 1479.11312154 533.999264775 1479.11312154 533.999264775 1475.3828125 454.965820312 c 2,49,-1
 1470.60546875 353.749023438 l 2,50,51
 1463.00017502 184.00390625 1463.00017502 184.00390625 1649.13671875 184.00390625 c 6,52,-1
 1663.19628906 184.00390625 l 6,53,54
 1689.29199219 183.999955797 1689.29199219 183.999955797 1689.29199219 98.0888671875 c 6,55,-1
 1689.29199219 87.654296875 l 6,56,57
 1689 0 1689 0 1663.19628906 0 c 6,58,-1
 1653.42675781 0 l 6,0,1
EndSplineSet
EndChar

StartChar: uniFEBA
Encoding: 65210 65210 197
Width: 2700
VWidth: 2529
GlyphClass: 2
Flags: W
AnchorPoint: "Anchor-10" 725.911 1137.33 basechar 0
AnchorPoint: "Anchor-7" 424.379 -717.165 basechar 0
LayerCount: 2
Fore
SplineSet
2662.02832031 184.00390625 m 6,0,1
 2706.08789062 184.00390625 l 6,2,3
 2732.18359375 183.999972323 2732.18359375 183.999972323 2732.18359375 98.0888671875 c 6,4,-1
 2732.18359375 87.654296875 l 6,5,6
 2732 0 2732 0 2706.08789062 0 c 6,7,-1
 2666.31835938 0 l 6,8,9
 2435 0 2435 0 2340.65820312 128.57421875 c 5,10,11
 2149.41924322 0.28125 2149.41924322 0.28125 1690.92285156 0.28125 c 2,12,-1
 1629.96191406 0.28125 l 2,13,14
 1456 0 1456 0 1382.97460938 62.7490234375 c 1,15,16
 1346 -528 1346 -528 704.362304688 -526.02734375 c 0,17,18
 104 -524 104 -524 105.266601562 -21.896484375 c 0,19,20
 106 278 106 278 334.471679688 563.490234375 c 0,21,22
 377.787544665 617.733945844 377.787544665 617.733945844 423.661132812 586.221679688 c 2,23,-1
 473.749023438 551.814453125 l 2,24,25
 510 527 510 527 466.352539062 463.314453125 c 0,26,27
 276 187 276 187 276.50390625 -5.2177734375 c 0,28,29
 279 -352 279 -352 733.580078125 -348.703125 c 0,30,31
 1187 -345 1187 -345 1207.59179688 43.634765625 c 0,32,33
 1219 260 1219 260 1204.91503906 385.051757812 c 0,34,35
 1195.02649458 476.754299509 1195.02649458 476.754299509 1246.98242188 500.75390625 c 2,36,-1
 1297.0703125 523.890625 l 2,37,38
 1381 563 1381 563 1381.875 472.705078125 c 0,39,40
 1384 313 1384 313 1393.08691406 282.193359375 c 24,41,42
 1409 228 1409 228 1454.63867188 212.178710938 c 1,43,44
 1850 818 1850 818 2191.36621094 818.237304688 c 4,45,46
 2357 818 2357 818 2447.63378906 717.166015625 c 4,47,48
 2530 626 2530 626 2531.13574219 490.633789062 c 4,49,50
 2532 389 2532 389 2486.14746094 295.696289062 c 4,51,52
 2476 275 2476 275 2464.83496094 255.698242188 c 5,53,54
 2520 184 2520 184 2662.02832031 184.00390625 c 6,0,1
1625.41210938 184.556640625 m 1,55,-1
 1707.32324219 184.556640625 l 2,56,57
 2346 185 2346 185 2347.40820312 465.682617188 c 0,58,59
 2348 627 2348 627 2170.25390625 627.416015625 c 0,60,61
 1979 627 1979 627 1625.41210938 184.556640625 c 1,55,-1
EndSplineSet
EndChar

StartChar: uniFEBB
Encoding: 65211 65211 198
Width: 1654
VWidth: 2529
GlyphClass: 2
Flags: W
AnchorPoint: "Anchor-10" 541.646 1239.83 basechar 0
AnchorPoint: "Anchor-7" 721.533 -295.794 basechar 0
LayerCount: 2
Fore
SplineSet
1199.0859375 818.237304688 m 4,0,1
 1365 818 1365 818 1455.35351562 717.166015625 c 4,2,3
 1538 625 1538 625 1538.85546875 490.633789062 c 4,4,5
 1539 393 1539 393 1493.8671875 295.696289062 c 4,6,7
 1358.16360903 3.3524600524 1358.16360903 3.3524600524 698.642578125 0.28125 c 2,8,-1
 638.24609375 0 l 2,9,10
 399 -1 399 -1 313.4921875 127.91796875 c 1,11,12
 199 0 199 0 16.6455078125 0 c 2,13,-1
 -5.2177734375 0 l 2,14,15
 -73.8623046875 0 -73.8623046875 0 -73.8623046875 89.7412109375 c 2,16,-1
 -73.8623046875 97.0458984375 l 2,17,18
 -74.000060318 184.038090578 -74.000060318 184.038090578 -5.2177734375 184.00390625 c 2,19,-1
 14.431640625 183.994140625 l 2,20,21
 239.08653238 184.000002258 239.08653238 184.000002258 250.067382812 408.630859375 c 2,22,-1
 253.352539062 475.833984375 l 2,23,24
 256.017531596 534.385177759 256.017531596 534.385177759 306.693359375 534.349609375 c 2,25,-1
 360.956054688 534.311523438 l 2,26,27
 409.299644166 533.998057067 409.299644166 533.998057067 405.569335938 454.963867188 c 2,28,-1
 400.791992188 353.74609375 l 2,29,30
 395 224 395 224 462.358398438 212.178710938 c 1,31,32
 855 818 855 818 1199.0859375 818.237304688 c 4,0,1
715.04296875 184.556640625 m 2,33,34
 1354.99979947 184.556640625 1354.99979947 184.556640625 1355.12695312 465.682617188 c 0,35,36
 1355 627 1355 627 1177.97363281 627.416015625 c 0,37,38
 986 627 986 627 633.131835938 184.556640625 c 1,39,-1
 715.04296875 184.556640625 l 2,33,34
EndSplineSet
EndChar

StartChar: uniFEBC
Encoding: 65212 65212 199
Width: 1707
VWidth: 2529
GlyphClass: 2
Flags: W
AnchorPoint: "Anchor-10" 589.464 1314.95 basechar 0
AnchorPoint: "Anchor-7" 731.04 -303.919 basechar 0
LayerCount: 2
Fore
SplineSet
1669.74804688 184.00390625 m 6,0,1
 1713.80664062 184.00390625 l 6,2,3
 1739.90234375 184.000014564 1739.90234375 184.000014564 1739.90234375 98.0888671875 c 6,4,-1
 1739.90234375 87.654296875 l 6,5,6
 1740 0 1740 0 1713.80664062 0 c 6,7,-1
 1674.03808594 0 l 6,8,9
 1442 0 1442 0 1349.421875 129.276367188 c 5,10,11
 1159.64032999 2.4279911399 1159.64032999 2.4279911399 698.642578125 0.28125 c 2,12,-1
 638.24609375 0 l 2,13,14
 399 -1 399 -1 313.4921875 127.91796875 c 1,15,16
 199 0 199 0 16.6455078125 0 c 2,17,-1
 -5.2177734375 0 l 2,18,19
 -73.8623046875 0 -73.8623046875 0 -73.8623046875 89.7412109375 c 2,20,-1
 -73.8623046875 97.0458984375 l 2,21,22
 -74.000060318 184.038090578 -74.000060318 184.038090578 -5.2177734375 184.00390625 c 2,23,-1
 14.431640625 183.994140625 l 2,24,25
 239.08653238 184.000002258 239.08653238 184.000002258 250.067382812 408.630859375 c 2,26,-1
 253.352539062 475.833984375 l 2,27,28
 256.017531596 534.385177759 256.017531596 534.385177759 306.693359375 534.349609375 c 2,29,-1
 360.956054688 534.311523438 l 2,30,31
 409.299644166 533.998057067 409.299644166 533.998057067 405.569335938 454.963867188 c 2,32,-1
 400.791992188 353.74609375 l 2,33,34
 395 224 395 224 462.358398438 212.178710938 c 1,35,36
 855 818 855 818 1199.0859375 818.237304688 c 4,37,38
 1365 818 1365 818 1455.35351562 717.166015625 c 4,39,40
 1538 625 1538 625 1538.85546875 490.633789062 c 4,41,42
 1539 393 1539 393 1493.8671875 295.696289062 c 4,43,44
 1485 277 1485 277 1473.79589844 257.744140625 c 5,45,46
 1530 184 1530 184 1669.74804688 184.00390625 c 6,0,1
633.131835938 184.556640625 m 1,47,-1
 715.04296875 184.556640625 l 2,48,49
 1355 185 1355 185 1355.12695312 465.682617188 c 0,50,51
 1355 627 1355 627 1177.97363281 627.416015625 c 0,52,53
 986 627 986 627 633.131835938 184.556640625 c 1,47,-1
EndSplineSet
EndChar

StartChar: uniFEC2
Encoding: 65218 65218 205
Width: 1621
VWidth: 2529
GlyphClass: 2
Flags: W
AnchorPoint: "Anchor-7" 584.498 -259.113 basechar 0
AnchorPoint: "Anchor-10" 365.65 1581.13 basechar 0
LayerCount: 2
Fore
SplineSet
1603.04882812 184.00390625 m 6,0,1
 1627.10839844 184.00390625 l 6,2,3
 1653.20410156 183.999969207 1653.20410156 183.999969207 1653.20410156 98.0888671875 c 6,4,-1
 1653.20410156 87.654296875 l 6,5,6
 1653 0 1653 0 1627.10839844 0 c 6,7,-1
 1607.33984375 0 l 6,8,9
 1356 0 1356 0 1262.72558594 128.696289062 c 5,10,11
 1072.41680744 0.28125 1072.41680744 0.28125 612.987304688 0.28125 c 2,12,-1
 398.111328125 0.28125 l 18,13,14
 187 0 187 0 127.306640625 99.7509765625 c 0,15,16
 76.0218015396 183.964200376 76.0218015396 183.964200376 164.873046875 184.052734375 c 2,17,-1
 388.327148438 184.275390625 l 1,18,19
 338 493 338 493 337.944335938 793.46875 c 0,20,21
 338 1071 338 1071 367.243164062 1288.72265625 c 0,22,23
 376.045276055 1354.33750782 376.045276055 1354.33750782 427.834960938 1353.96972656 c 2,24,-1
 481.053710938 1353.59179688 l 2,25,26
 536 1353 536 1353 529.107421875 1288.72265625 c 0,27,28
 477 831 477 831 526.461914062 397.159179688 c 1,29,30
 838 818 838 818 1113.43164062 818.237304688 c 4,31,32
 1279 818 1279 818 1369.69824219 717.166015625 c 4,33,34
 1453 625 1453 625 1453.20019531 490.633789062 c 4,35,36
 1454 393 1454 393 1408.21191406 295.696289062 c 4,37,38
 1398 274 1398 274 1387.10058594 257.1640625 c 5,39,40
 1444 184 1444 184 1603.04882812 184.00390625 c 6,0,1
547.4765625 184.556640625 m 1,41,-1
 629.387695312 184.556640625 l 2,42,43
 1270 185 1270 185 1269.47265625 465.682617188 c 0,44,45
 1269 627 1269 627 1092.31835938 627.416015625 c 0,46,47
 901 627 901 627 547.4765625 184.556640625 c 1,41,-1
EndSplineSet
EndChar

StartChar: uniFEC3
Encoding: 65219 65219 206
Width: 1392
VWidth: 2529
GlyphClass: 2
Flags: W
AnchorPoint: "Anchor-10" 309.368 1562.2 basechar 0
AnchorPoint: "Anchor-7" 532.117 -257.51 basechar 0
LayerCount: 2
Fore
SplineSet
-5.2177734375 184.00390625 m 2,0,-1
 222.916015625 183.994140625 l 1,1,2
 173 486 173 486 172.533203125 793.1875 c 0,3,4
 172 1049 172 1049 201.83203125 1288.44140625 c 0,5,6
 210.007563562 1354.06070744 210.007563562 1354.06070744 262.423828125 1353.68847656 c 2,7,-1
 315.642578125 1353.31054688 l 2,8,9
 371 1353 371 1353 363.696289062 1288.44140625 c 0,10,11
 310 842 310 842 361.05078125 396.877929688 c 1,12,13
 672 818 672 818 948.020507812 817.956054688 c 4,14,15
 1114 818 1114 818 1204.28710938 716.884765625 c 4,16,17
 1288 624 1288 624 1287.7890625 490.352539062 c 4,18,19
 1288 393 1288 393 1242.80078125 295.415039062 c 4,20,21
 1106 0 1106 0 447.576171875 0 c 2,22,-1
 232.700195312 0 l 26,23,-1
 -5.2177734375 0 l 2,24,25
 -73.8623046875 0 -73.8623046875 0 -73.8623046875 89.7412109375 c 2,26,-1
 -73.8623046875 97.0458984375 l 2,27,28
 -74 184 -74 184 -5.2177734375 184.00390625 c 2,0,-1
382.065429688 184.275390625 m 1,29,-1
 463.9765625 184.275390625 l 2,30,31
 1105 184 1105 184 1104.06152344 465.401367188 c 0,32,33
 1104 627 1104 627 926.907226562 627.134765625 c 0,34,35
 735 627 735 627 382.065429688 184.275390625 c 1,29,-1
EndSplineSet
EndChar

StartChar: uniFEC4
Encoding: 65220 65220 207
Width: 1459
VWidth: 2529
GlyphClass: 2
Flags: W
AnchorPoint: "Anchor-10" 333.029 1545.93 basechar 0
AnchorPoint: "Anchor-7" 457.418 -262.57 basechar 0
LayerCount: 2
Fore
SplineSet
1441.30664062 184.00390625 m 2,0,1
 1465.36621094 184.00390625 l 2,2,3
 1491.46191406 183.99992961 1491.46191406 183.99992961 1491.46191406 98.0888671875 c 2,4,-1
 1491.46191406 87.654296875 l 2,5,6
 1491 0 1491 0 1465.36621094 0 c 2,7,-1
 1445.59667969 0 l 2,8,9
 1189 0 1189 0 1095.765625 128.696289062 c 1,10,11
 893.797104432 0.871588576754 893.797104432 0.871588576754 446.02734375 0.28125 c 6,12,-1
 232.700195312 0 l 26,13,-1
 -5.2177734375 0 l 2,14,15
 -73.8623046875 0 -73.8623046875 0 -73.8623046875 89.7412109375 c 2,16,-1
 -73.8623046875 97.0458984375 l 2,17,18
 -74.0000108482 184.006850582 -74.0000108482 184.006850582 -5.2177734375 184.00390625 c 2,19,-1
 222.916015625 183.994140625 l 1,20,21
 173 486 173 486 172.533203125 793.1875 c 0,22,23
 172 1049 172 1049 201.83203125 1288.44140625 c 0,24,25
 210.007563562 1354.06070744 210.007563562 1354.06070744 262.423828125 1353.68847656 c 2,26,-1
 315.642578125 1353.31054688 l 2,27,28
 370 1353 370 1353 363.696289062 1288.44140625 c 0,29,30
 314 812 314 812 361.05078125 396.877929688 c 1,31,32
 671 818 671 818 946.470703125 818.237304688 c 0,33,34
 1112 818 1112 818 1202.73828125 717.166015625 c 0,35,36
 1286 625 1286 625 1286.24023438 490.633789062 c 0,37,38
 1287 393 1287 393 1241.25195312 295.696289062 c 0,39,40
 1231 274 1231 274 1220.140625 257.1640625 c 1,41,42
 1277 184 1277 184 1441.30664062 184.00390625 c 2,0,1
380.516601562 184.556640625 m 1,43,-1
 462.427734375 184.556640625 l 2,44,45
 1103 185 1103 185 1102.51269531 465.682617188 c 0,46,47
 1102 627 1102 627 925.358398438 627.416015625 c 0,48,49
 734 627 734 627 380.516601562 184.556640625 c 1,43,-1
EndSplineSet
EndChar

StartChar: uniFECA
Encoding: 65226 65226 213
Width: 1274
VWidth: 2529
GlyphClass: 2
Flags: W
AnchorPoint: "Anchor-10" 562.225 1313.27 basechar 0
AnchorPoint: "Anchor-7" 371.752 -819.955 basechar 0
LayerCount: 2
Fore
SplineSet
1252.99609375 184.00390625 m 2,0,1
 1280.05566406 184.00390625 l 2,2,3
 1306.15136719 183.99997721 1306.15136719 183.99997721 1306.15136719 98.0888671875 c 2,4,-1
 1306.15136719 87.654296875 l 2,5,6
 1306 0 1306 0 1280.05566406 0 c 2,7,-1
 1257.28613281 0 l 6,8,9
 871 0 871 0 640.768554688 231.75 c 1,10,11
 281 25 281 25 267.4765625 -216.170898438 c 24,12,13
 249 -542 249 -542 687.666015625 -541.711914062 c 0,14,15
 883 -542 883 -542 1067.50097656 -467.028320312 c 0,16,17
 1134.18056946 -439.926608106 1134.18056946 -439.926608106 1144.296875 -487.314453125 c 2,18,-1
 1160.3359375 -562.446289062 l 2,19,20
 1171 -613 1171 -613 1111.32714844 -638.7734375 c 0,21,22
 930 -716 930 -716 676.188476562 -715.5 c 0,23,24
 424 -715 424 -715 284.875976562 -614.307617188 c 0,25,26
 89 -474 89 -474 99.8330078125 -219.353515625 c 24,27,28
 114 105 114 105 493.028320312 345.657226562 c 1,29,30
 358 450 358 450 296.84765625 518.685546875 c 0,31,32
 223 602 223 602 224.3125 672.080078125 c 0,33,34
 225 781 225 781 413.71875 848.431640625 c 0,35,36
 529 890 529 890 739.291015625 895.388671875 c 0,37,38
 901 899 901 899 1018.94921875 866.170898438 c 0,39,40
 1157 827 1157 827 1136.86425781 719.038085938 c 0,41,42
 1111 584 1111 584 773.233398438 328.702148438 c 1,43,44
 925 184 925 184 1252.99609375 184.00390625 c 2,0,1
476.329101562 565.21484375 m 0,45,46
 580.185546875 462.270507812 580.185546875 462.270507812 637.84375 422.319335938 c 1,47,48
 846.278320312 572.881835938 846.278320312 572.881835938 959.469726562 707.559570312 c 1,49,50
 768.015625 745.05859375 768.015625 745.05859375 548.331054688 708.602539062 c 0,51,52
 363.137695312 678.275390625 363.137695312 678.275390625 476.329101562 565.21484375 c 0,45,46
EndSplineSet
EndChar

StartChar: uniFECB
Encoding: 65227 65227 214
Width: 1116
VWidth: 2529
GlyphClass: 2
Flags: W
AnchorPoint: "Anchor-10" 461.148 1309.66 basechar 0
AnchorPoint: "Anchor-7" 513.081 -249.521 basechar 0
LayerCount: 2
Fore
SplineSet
-5.2177734375 184 m 2,0,-1
 20.470703125 184 l 2,1,-1
 236.466796875 184 l 1,2,3
 159 264 159 264 172.342773438 413.739257812 c 0,4,5
 189 603 189 603 333.189453125 754.48828125 c 0,6,7
 445 871 445 871 595.752929688 869.66796875 c 0,8,9
 871 866 871 866 897.783203125 585 c 0,10,11
 899.038391156 571.589837025 899.038391156 571.589837025 882 568.978515625 c 2,12,-1
 770.434570312 551.879882812 l 1,13,14
 750 679 750 679 606.188476562 682.51171875 c 0,15,16
 449 687 449 687 375.896484375 512.270507812 c 0,17,18
 264 242 264 242 520.359375 218.091796875 c 0,19,20
 648 206 648 206 807.419921875 265.079101562 c 0,21,22
 875 290 875 290 928 318.553710938 c 0,23,24
 968.673358943 340.821173668 968.673358943 340.821173668 980.90234375 303 c 2,25,-1
 1014.20605469 200 l 2,26,27
 1023 173 1023 173 1001 158.74609375 c 0,28,29
 766 0 766 0 26.26953125 0 c 6,30,-1
 -5.2177734375 0 l 2,31,32
 -73.8623046875 0 -73.8623046875 0 -73.8623046875 89.7412109375 c 2,33,-1
 -73.8623046875 97.0458984375 l 2,34,35
 -74 184 -74 184 -5.2177734375 184 c 2,0,-1
EndSplineSet
EndChar

StartChar: uniFECC
Encoding: 65228 65228 215
Width: 1158
VWidth: 2529
GlyphClass: 2
Flags: W
AnchorPoint: "Anchor-10" 524.059 1238.33 basechar 0
AnchorPoint: "Anchor-7" 462.372 -247.369 basechar 0
LayerCount: 2
Fore
SplineSet
1122.6328125 0 m 2,0,1
 740 0 740 0 591.6796875 139.37109375 c 1,2,3
 381 0 381 0 24.130859375 0 c 2,4,-1
 -5.2177734375 0 l 2,5,6
 -73.8623046875 0 -73.8623046875 0 -73.8623046875 89.7412109375 c 2,7,-1
 -73.8623046875 97.0458984375 l 2,8,9
 -74.0000526531 184.033250226 -74.0000526531 184.033250226 -5.2177734375 184.00390625 c 2,10,-1
 17.6728515625 183.994140625 l 2,11,12
 296 184 296 184 440.448242188 251.067382812 c 5,13,14
 296 363 296 363 234.266601562 434.095703125 c 0,15,16
 160 521 160 521 161.732421875 587.490234375 c 0,17,18
 163 696 163 696 351.138671875 763.841796875 c 0,19,20
 467 806 467 806 676.7109375 810.798828125 c 0,21,22
 834 815 834 815 956.369140625 781.581054688 c 0,23,24
 1094 744 1094 744 1074.28417969 634.448242188 c 0,25,26
 1049 498 1049 498 732.38671875 257.86328125 c 1,27,28
 842.994150231 184.00390625 842.994150231 184.00390625 1118.34179688 184.00390625 c 2,29,-1
 1164.57617188 184.00390625 l 2,30,31
 1190.671875 184.000048507 1190.671875 184.000048507 1190.671875 98.0888671875 c 2,32,-1
 1190.671875 87.654296875 l 2,33,34
 1191 0 1191 0 1164.57617188 0 c 2,35,-1
 1122.6328125 0 l 2,0,1
413.749023438 480.625976562 m 0,36,37
 494 401 494 401 585.698242188 337.729492188 c 1,38,39
 767 470 767 470 896.889648438 622.969726562 c 1,40,41
 709 660 709 660 485.750976562 624.012695312 c 0,42,43
 300 594 300 594 413.749023438 480.625976562 c 0,36,37
EndSplineSet
EndChar

StartChar: uniFEDA
Encoding: 65242 65242 229
Width: 2008
VWidth: 2529
GlyphClass: 2
Flags: W
AnchorPoint: "Anchor-10" 664.332 1439.34 basechar 0
AnchorPoint: "Anchor-7" 487.445 -246.481 basechar 0
LayerCount: 2
Fore
SplineSet
1970.62011719 184.00390625 m 6,0,1
 2014.6796875 184.00390625 l 6,2,3
 2040.77539062 184.000033335 2040.77539062 184.000033335 2040.77539062 98.0888671875 c 2,4,-1
 2040.77539062 87.654296875 l 2,5,6
 2041 0 2041 0 2014.6796875 0 c 2,7,-1
 1964.91015625 0 l 2,8,9
 1746 0 1746 0 1616.38183594 135.655273438 c 1,10,11
 1428 8 1428 8 1161.41503906 -16.5966796875 c 0,12,13
 1026 -29 1026 -29 840.15234375 -29.2177734375 c 0,14,15
 109 -29 109 -29 107.625 485.499023438 c 0,16,17
 107 670 107 670 222.6875 866.67578125 c 1,18,-1
 365.224609375 798.27734375 l 1,19,20
 275 632 275 632 275.84375 506.1796875 c 0,21,22
 277 157 277 157 864.017578125 156.170898438 c 4,23,24
 1161 156 1161 156 1402.22265625 221.725585938 c 28,25,26
 1611.65357801 278.905418212 1611.65357801 278.905418212 1628.54394531 440.0546875 c 2,27,-1
 1635.265625 504.185546875 l 1,28,29
 1639 521 1639 521 1642.34082031 820.100585938 c 0,30,31
 1645 1042 1645 1042 1602.99414062 1344.64355469 c 1,32,-1
 1760.19628906 1347.18847656 l 1,33,34
 1789 1190 1789 1190 1799.3515625 784.985351562 c 0,35,36
 1804 592 1804 592 1771.14160156 411.50390625 c 0,37,38
 1759 346 1759 346 1723.86230469 275.484375 c 1,39,40
 1786 184 1786 184 1970.62011719 184.00390625 c 6,0,1
1228.51953125 1263.84277344 m 1,41,-1
 1228.51953125 1166.12597656 l 1,42,43
 1119.17382812 1157.87304688 1119.17382812 1157.87304688 1056.02246094 1128.37792969 c 0,44,45
 988.026367188 1096.62011719 988.026367188 1096.62011719 988.559570312 1053.93457031 c 0,46,47
 989.23828125 990.28125 989.23828125 990.28125 1097.90917969 973.25390625 c 0,48,49
 1239.67773438 951.671875 1239.67773438 951.671875 1239.29296875 845.815429688 c 0,50,51
 1239.67773438 720.014648438 1239.67773438 720.014648438 1119.55273438 652.436523438 c 0,52,53
 1002.80371094 587.490234375 1002.80371094 587.490234375 778.11328125 623.744140625 c 1,54,-1
 778.11328125 729.010742188 l 1,55,56
 909.931640625 711.666992188 909.931640625 711.666992188 975.966796875 718.368164062 c 0,57,58
 1123.84960938 733.580078125 1123.84960938 733.580078125 1138.34082031 821.022460938 c 0,59,60
 1146.80664062 874.453125 1146.80664062 874.453125 1052.16210938 889.091796875 c 0,61,62
 888.084960938 914.651367188 888.084960938 914.651367188 888.666015625 1059.48242188 c 0,63,64
 889.061523438 1147.84960938 889.061523438 1147.84960938 985.030273438 1206.35058594 c 0,65,66
 1067.75878906 1253.24902344 1067.75878906 1253.24902344 1206.27734375 1262.37695312 c 2,67,-1
 1228.51953125 1263.84277344 l 1,41,-1
EndSplineSet
EndChar

StartChar: uniFEDB
Encoding: 65243 65243 230
Width: 940
VWidth: 2529
GlyphClass: 2
Flags: W
AnchorPoint: "Anchor-10" 197.567 1470.98 basechar 0
AnchorPoint: "Anchor-7" 278.667 -281.614 basechar 0
LayerCount: 2
Fore
SplineSet
-5.2177734375 184.00390625 m 2,0,-1
 57.6015625 184.021484375 l 2,1,2
 231 184 231 184 300.528320312 216.352539062 c 24,3,4
 455 287 455 287 458.520507812 424.1875 c 0,5,6
 462 550 462 550 327.900390625 682.814453125 c 0,7,8
 237 773 237 773 142.303710938 833.099609375 c 0,9,10
 43.6613527751 896.925040329 43.6613527751 896.925040329 30.5361328125 963.220703125 c 4,11,12
 8 1078 8 1078 129.041992188 1159.2109375 c 0,13,14
 428 1361 428 1361 804.538085938 1452.515625 c 0,15,16
 884.800909967 1471.95178906 884.800909967 1471.95178906 888.05859375 1422.5078125 c 2,17,-1
 892.060546875 1361.76757812 l 2,18,19
 896 1305 896 1305 826.452148438 1289.12207031 c 0,20,21
 526 1218 526 1218 203.978515625 1000.3203125 c 1,22,23
 630 730 630 730 632.595703125 430.965820312 c 0,24,25
 634 254 634 254 489.06640625 128.194335938 c 24,26,27
 414 63 414 63 304.702148438 28.1748046875 c 0,28,29
 214 0 214 0 30.26171875 0 c 2,30,-1
 -5.2177734375 0 l 2,31,32
 -73.8623046875 0 -73.8623046875 0 -73.8623046875 89.7412109375 c 2,33,-1
 -73.8623046875 97.0458984375 l 2,34,35
 -74 184 -74 184 -5.2177734375 184.00390625 c 2,0,-1
EndSplineSet
EndChar

StartChar: uniFEDC
Encoding: 65244 65244 231
Width: 927
VWidth: 2529
GlyphClass: 2
Flags: W
AnchorPoint: "Anchor-10" 217.701 1482.58 basechar 0
AnchorPoint: "Anchor-7" 317.047 -225.557 basechar 0
LayerCount: 2
Fore
SplineSet
909.553710938 184.00390625 m 2,0,1
 933.61328125 184.00390625 l 2,2,3
 959.708984375 184.000043082 959.708984375 184.000043082 959.708984375 98.0888671875 c 2,4,-1
 959.708984375 87.654296875 l 2,5,6
 960 0 960 0 933.61328125 0 c 2,7,-1
 913.844726562 0 l 2,8,9
 673 0 673 0 548.333984375 189.916992188 c 1,10,11
 523 158 523 158 489.06640625 128.194335938 c 0,12,13
 414 63 414 63 304.702148438 28.1748046875 c 0,14,15
 214 0 214 0 30.26171875 0 c 2,16,-1
 -5.2177734375 0 l 2,17,18
 -73.8623046875 0 -73.8623046875 0 -73.8623046875 89.7412109375 c 2,19,-1
 -73.8623046875 97.0458984375 l 2,20,21
 -73.9999757079 183.984659594 -73.9999757079 183.984659594 -5.2177734375 184.00390625 c 2,22,-1
 57.6015625 184.021484375 l 2,23,24
 231 184 231 184 300.528320312 216.352539062 c 24,25,26
 455 287 455 287 458.520507812 424.1875 c 0,27,28
 462 550 462 550 327.900390625 682.814453125 c 0,29,30
 237 773 237 773 142.303710938 833.099609375 c 0,31,32
 43.6613527751 896.925040329 43.6613527751 896.925040329 30.5361328125 963.220703125 c 4,33,34
 8 1078 8 1078 129.041992188 1159.2109375 c 0,35,36
 428 1361 428 1361 804.538085938 1452.515625 c 0,37,38
 884.801692432 1471.95197853 884.801692432 1471.95197853 888.05859375 1422.5078125 c 2,39,-1
 892.059570312 1361.76757812 l 2,40,41
 896 1305 896 1305 826.452148438 1289.12207031 c 0,42,43
 526 1218 526 1218 203.978515625 1000.3203125 c 1,44,45
 639 723 639 723 632.595703125 430.965820312 c 0,46,47
 632 402 632 402 628.953125 373.573242188 c 1,48,49
 751 184 751 184 909.553710938 184.00390625 c 2,0,1
EndSplineSet
EndChar

StartChar: uniFEDE
Encoding: 65246 65246 233
Width: 1596
VWidth: 2534
GlyphClass: 2
Flags: W
AnchorPoint: "Anchor-10" 645.229 1103.67 basechar 0
AnchorPoint: "Anchor-7" 362.495 -663.42 basechar 0
LayerCount: 2
Fore
SplineSet
1558.69921875 184.00390625 m 6,0,1
 1602.75878906 184.00390625 l 6,2,3
 1628.85449219 184.00002166 1628.85449219 184.00002166 1628.85449219 98.0888671875 c 6,4,-1
 1628.85449219 87.654296875 l 6,5,6
 1629 0 1629 0 1602.75878906 0 c 6,7,-1
 1572.98925781 0 l 6,8,9
 1423 0 1423 0 1341.82910156 114.3828125 c 5,10,11
 1343 93 1343 93 1341.234375 62.7490234375 c 12,12,13
 1306 -528 1306 -528 704.362304688 -526.02734375 c 0,14,15
 104 -524 104 -524 105.266601562 -21.896484375 c 0,16,17
 106 306 106 306 379.125 616.815429688 c 1,18,-1
 511.772460938 525.694335938 l 1,19,20
 275 213 275 213 276.50390625 -5.2177734375 c 0,21,22
 279 -353 279 -353 733.580078125 -348.703125 c 0,23,24
 1108 -345 1108 -345 1165.8515625 43.634765625 c 28,25,26
 1192 219 1192 219 1183.65136719 687.263671875 c 4,27,28
 1176 1088 1176 1088 1151.01757812 1348.73144531 c 5,29,-1
 1304.81738281 1348.73144531 l 5,30,31
 1316 1272 1316 1272 1342.82714844 812.197265625 c 4,32,33
 1353 635 1353 635 1353.46972656 460.18359375 c 5,34,35
 1353 322 1353 322 1435.46777344 239.26171875 c 4,36,37
 1490 184 1490 184 1558.69921875 184.00390625 c 6,0,1
EndSplineSet
EndChar

StartChar: uniFEDF
Encoding: 65247 65247 234
Width: 572
VWidth: 2529
GlyphClass: 2
Flags: W
AnchorPoint: "Anchor-10" 309.527 1539.43 basechar 0
AnchorPoint: "Anchor-7" 193.907 -227.881 basechar 0
LayerCount: 2
Fore
SplineSet
-5.2177734375 184.00390625 m 2,0,-1
 51.2568359375 183.994140625 l 2,1,2
 127 184 127 184 180.346679688 220.12109375 c 0,3,4
 281 289 281 289 268.327148438 720.962890625 c 0,5,6
 258 1106 258 1106 243.921875 1285.59179688 c 0,7,8
 239.026362953 1349.65501146 239.026362953 1349.65501146 280.701171875 1350.57421875 c 2,9,-1
 333.919921875 1351.74804688 l 2,10,11
 391 1353 391 1353 400.387695312 1291.85253906 c 0,12,13
 437 1035 437 1035 433.86328125 667.66796875 c 0,14,15
 430 256 430 256 326.2109375 127.806640625 c 0,16,17
 223 0 223 0 57.5078125 0 c 2,18,-1
 -5.2177734375 0 l 2,19,20
 -73.8623046875 0 -73.8623046875 0 -73.8623046875 89.7412109375 c 2,21,-1
 -73.8623046875 97.0458984375 l 2,22,23
 -74 184 -74 184 -5.2177734375 184.00390625 c 2,0,-1
EndSplineSet
EndChar

StartChar: uniFEE0
Encoding: 65248 65248 235
Width: 650
VWidth: 2529
GlyphClass: 2
Flags: W
AnchorPoint: "Anchor-10" 318.189 1515.38 basechar 0
AnchorPoint: "Anchor-7" 188.168 -248.359 basechar 0
LayerCount: 2
Fore
SplineSet
632.41796875 184.00390625 m 2,0,-1
 656.04296875 184.00390625 l 2,1,2
 682.138671875 183.999979131 682.138671875 183.999979131 682.138671875 98.0888671875 c 2,3,-1
 682.138671875 87.654296875 l 2,4,5
 682 0 682 0 656.04296875 0 c 2,6,-1
 636.708984375 0 l 2,7,8
 411 0 411 0 299.775390625 121.387695312 c 1,9,10
 191 0 191 0 19.7392578125 0 c 2,11,-1
 -5.2177734375 0 l 2,12,13
 -73.8623046875 0 -73.8623046875 0 -73.8623046875 89.7412109375 c 2,14,-1
 -73.8623046875 97.0458984375 l 2,15,16
 -74.0000612595 184.038685179 -74.0000612595 184.038685179 -5.2177734375 184.00390625 c 2,17,-1
 14.095703125 183.994140625 l 2,18,19
 168 184 168 184 229.381835938 297.6171875 c 0,20,21
 265 364 265 364 265.609375 771.736328125 c 0,22,23
 266 1097 266 1097 243.284179688 1285.59179688 c 0,24,25
 235.99454166 1348.04676507 235.99454166 1348.04676507 279.658203125 1348.97558594 c 2,26,-1
 345.3984375 1350.37402344 l 2,27,28
 394 1351 394 1351 403.098632812 1285.59179688 c 0,29,30
 434 1049 434 1049 430.345703125 784.940429688 c 0,31,32
 426 508 426 508 390.48828125 293.981445312 c 0,33,34
 372 184 372 184 632.41796875 184.00390625 c 2,0,-1
EndSplineSet
EndChar

StartChar: uniFEE2
Encoding: 65250 65250 237
Width: 1242
VWidth: 2529
GlyphClass: 2
Flags: W
AnchorPoint: "Anchor-10" 609.972 1070.1 basechar 0
AnchorPoint: "Anchor-7" 707.045 -440.82 basechar 0
LayerCount: 2
Fore
SplineSet
1215.12597656 184.00390625 m 2,0,1
 1248.75097656 184.00390625 l 2,2,3
 1274.84667969 184.000022816 1274.84667969 184.000022816 1274.84667969 98.0888671875 c 2,4,-1
 1274.84667969 87.654296875 l 2,5,6
 1275 0 1275 0 1248.75097656 0 c 2,7,-1
 1209.41601562 0 l 2,8,9
 1079 0 1079 0 1012.33496094 86.828125 c 5,10,11
 988 54 988 54 968.997070312 37.2392578125 c 0,12,13
 858 -57 858 -57 628.19921875 -11.6962890625 c 0,14,15
 393 34 393 34 343.311523438 10.4345703125 c 0,16,17
 134 -91 134 -91 308.16015625 -675.14453125 c 0,18,19
 334.866689114 -764.55369665 334.866689114 -764.55369665 295.256835938 -785.755859375 c 2,20,-1
 225.077148438 -823.321289062 l 2,21,22
 178 -848 178 -848 157.568359375 -771.146484375 c 0,23,24
 -66 56 -66 56 286.962890625 179.482421875 c 1,25,26
 305 482 305 482 464.069335938 614.127929688 c 0,27,28
 717 824 717 824 961.517578125 512.163085938 c 0,29,30
 1019 439 1019 439 1049.33984375 373.573242188 c 0,31,32
 1068 334 1068 334 1076.10058594 276.52734375 c 8,33,34
 1090 184 1090 184 1215.12597656 184.00390625 c 2,0,1
470.049804688 190.858398438 m 1,35,36
 602.671875 174.422851562 602.671875 174.422851562 683.494140625 158.17578125 c 0,37,38
 801.98828125 134.756835938 801.98828125 134.756835938 854.702148438 184.172851562 c 0,39,40
 936.92578125 260.752929688 936.92578125 260.752929688 838.029296875 397.865234375 c 0,41,42
 702.283203125 585.4140625 702.283203125 585.4140625 582.49609375 487.284179688 c 0,43,44
 463.953125 389.879882812 463.953125 389.879882812 470.049804688 190.858398438 c 1,35,36
EndSplineSet
EndChar

StartChar: uniFEE3
Encoding: 65251 65251 238
Width: 1064
VWidth: 2529
GlyphClass: 2
Flags: W
AnchorPoint: "Anchor-10" 492.899 1011.69 basechar 0
AnchorPoint: "Anchor-7" 378.235 -252.886 basechar 0
LayerCount: 2
Fore
SplineSet
-5.2177734375 184.00390625 m 2,0,-1
 15.41015625 183.993164062 l 2,1,2
 155 184 155 184 353.907226562 500.447265625 c 4,3,4
 475 694 475 694 614.732421875 706.825195312 c 4,5,6
 906 735 906 735 945.265625 365.71484375 c 4,7,8
 985 -3 985 -3 685.6171875 -30.134765625 c 0,9,10
 491 -48 491 -48 279.783203125 139.487304688 c 1,11,12
 174 0 174 0 15.681640625 0 c 2,13,-1
 -5.2177734375 0 l 2,14,15
 -73.8623046875 0 -73.8623046875 0 -73.8623046875 89.7412109375 c 2,16,-1
 -73.8623046875 97.0458984375 l 2,17,18
 -74 184 -74 184 -5.2177734375 184.00390625 c 2,0,-1
390.548828125 265.390625 m 1,19,20
 527 120 527 120 679.665039062 135.297851562 c 0,21,22
 811 149 811 149 777.125976562 359.215820312 c 4,23,24
 750 526 750 526 637.811523438 522.108398438 c 4,25,26
 583 520 583 520 491.236328125 399.733398438 c 4,27,28
 441 333 441 333 390.548828125 265.390625 c 1,19,20
EndSplineSet
EndChar

StartChar: uniFEE4
Encoding: 65252 65252 239
Width: 1128
VWidth: 2529
GlyphClass: 2
Flags: W
AnchorPoint: "Anchor-10" 494.346 1044.22 basechar 0
AnchorPoint: "Anchor-7" 406.812 -258.872 basechar 0
LayerCount: 2
Fore
SplineSet
1101.2109375 184.00390625 m 2,0,1
 1134.8359375 184.00390625 l 2,2,3
 1160.93164062 184.000010206 1160.93164062 184.000010206 1160.93164062 98.0888671875 c 2,4,-1
 1160.93164062 87.654296875 l 2,5,6
 1161 0 1161 0 1134.8359375 0 c 2,7,-1
 1095.50195312 0 l 6,8,9
 971 0 971 0 903 110 c 5,10,11
 847 -15 847 -15 685.6171875 -30.134765625 c 0,12,13
 491 -48 491 -48 279.783203125 139.487304688 c 1,14,15
 174 0 174 0 11.5078125 0 c 2,16,-1
 -5.2177734375 0 l 2,17,18
 -73.8623046875 0 -73.8623046875 0 -73.8623046875 89.7412109375 c 2,19,-1
 -73.8623046875 97.0458984375 l 2,20,21
 -74.0000629066 184.039725273 -74.0000629066 184.039725273 -5.2177734375 184.00390625 c 2,22,-1
 15.41015625 183.993164062 l 2,23,24
 155 184 155 184 353.907226562 500.447265625 c 0,25,26
 475 694 475 694 614.732421875 706.825195312 c 0,27,28
 906 734 906 734 945.265625 365.71484375 c 8,29,30
 965 184 965 184 1101.2109375 184.00390625 c 2,0,1
390.548828125 265.390625 m 1,31,32
 527 120 527 120 679.665039062 135.297851562 c 0,33,34
 811 149 811 149 777.125976562 359.215820312 c 0,35,36
 750 526 750 526 637.811523438 522.108398438 c 0,37,38
 582 520 582 520 491.236328125 399.733398438 c 0,39,40
 441 333 441 333 390.548828125 265.390625 c 1,31,32
EndSplineSet
EndChar

StartChar: uniFEEA
Encoding: 65258 65258 245
Width: 870
VWidth: 2529
GlyphClass: 2
Flags: WO
AnchorPoint: "Anchor-10" 423.825 968.306 basechar 0
AnchorPoint: "Anchor-7" 250.809 -269.629 basechar 0
LayerCount: 2
Fore
SplineSet
853.5546875 184.00390625 m 6,0,1
 876.744140625 184.00390625 l 6,2,3
 902.83984375 184 902.83984375 184 902.83984375 98.0888671875 c 6,4,-1
 902.83984375 87.654296875 l 6,5,6
 903 0 903 0 876.744140625 0 c 6,7,-1
 847.844726562 0 l 6,8,9
 553 0 553 0 506.359375 528.184570312 c 5,10,11
 273 468 273 468 274.25 267 c 4,12,13
 275 138 275 138 379 34 c 4,14,15
 408.75390625 4.24609375 408.75390625 4.24609375 367 -26 c 6,16,-1
 297.969726562 -76.00390625 l 6,17,18
 245 -115 245 -115 164 31 c 4,19,20
 76 189 76 189 114.666015625 369 c 4,21,22
 162 588 162 588 396.706054688 688.275390625 c 4,23,24
 490 728 490 728 544.446289062 725.7109375 c 4,25,26
 653 721 653 721 670.497070312 504.141601562 c 4,27,28
 697 184 697 184 853.5546875 184.00390625 c 6,0,1
EndSplineSet
EndChar

StartChar: uniFEEB
Encoding: 65259 65259 246
Width: 1359
VWidth: 2529
GlyphClass: 2
Flags: W
AnchorPoint: "Anchor-10" 595.321 1318.69 basechar 0
AnchorPoint: "Anchor-7" 490.878 -270.191 basechar 0
LayerCount: 2
Fore
SplineSet
-5.2177734375 184.00390625 m 2,0,-1
 104.950195312 183.993164062 l 1,1,-1
 268.994140625 185.948242188 l 1,2,3
 151 276 151 276 150.1796875 409.162109375 c 0,4,5
 150 495 150 495 203.405273438 572.637695312 c 0,6,7
 302 714 302 714 460.18359375 714.430664062 c 0,8,9
 594 715 594 715 686.616210938 619.776367188 c 0,10,11
 757 548 757 548 759.7421875 457.052734375 c 0,12,13
 765 299 765 299 632.063476562 201.052734375 c 1,14,15
 1077 131 1077 131 1086.88183594 311.908203125 c 0,16,17
 1095 457 1095 457 829.140625 652.415039062 c 0,18,19
 635 795 635 795 416.356445312 874.701171875 c 0,20,21
 339.128601367 902.95295456 339.128601367 902.95295456 368.650390625 948.541015625 c 2,22,-1
 417.3046875 1023.67382812 l 2,23,24
 438 1055 438 1055 518.619140625 1023.89941406 c 0,25,26
 667 966 667 966 825.171875 867.032226562 c 0,27,28
 1227 617 1227 617 1248.4140625 327.396484375 c 0,29,30
 1271 30 1271 30 907.852539062 3.50390625 c 0,31,32
 646 -16 646 -16 460.151367188 77.8037109375 c 1,33,34
 283 0 283 0 8.0498046875 0 c 2,35,-1
 -5.2177734375 0 l 2,36,37
 -73.8623046875 0 -73.8623046875 0 -73.8623046875 89.7412109375 c 2,38,-1
 -73.8623046875 97.0458984375 l 2,39,40
 -74 184 -74 184 -5.2177734375 184.00390625 c 2,0,-1
441.982421875 238.443359375 m 1,41,42
 600 292 600 292 602.747070312 416.356445312 c 0,43,44
 604 464 604 464 580.978515625 497.64453125 c 0,45,46
 542 556 542 556 464.357421875 556.3203125 c 0,47,48
 349 557 349 557 316.315429688 465.056640625 c 4,49,50
 293 401 293 401 326.702148438 338.616210938 c 4,51,52
 365 266 365 266 441.982421875 238.443359375 c 1,41,42
EndSplineSet
EndChar

StartChar: uniFEEC
Encoding: 65260 65260 247
Width: 911
VWidth: 2529
GlyphClass: 2
Flags: W
AnchorPoint: "Anchor-7" 334.678 -795.052 basechar 0
AnchorPoint: "Anchor-10" 478.523 948.072 basechar 0
LayerCount: 2
Fore
SplineSet
898.8125 0 m 2,0,1
 709 0 709 0 559.478515625 -294.587890625 c 0,2,3
 477 -457 477 -457 425.854492188 -534.098632812 c 0,4,5
 371 -616 371 -616 320 -612.926310023 c 0,6,7
 172.781327272 -603.925491434 172.781327272 -603.925491434 212.543945312 -219.017578125 c 0,8,9
 233 -21 233 -21 295.61328125 130.186523438 c 1,10,-1
 291.911132812 132.086914062 l 1,11,12
 262 82 262 82 193.638671875 45.0830078125 c 0,13,14
 113 0 113 0 8.3076171875 0 c 2,15,-1
 -5.2177734375 0 l 2,16,17
 -73.8623046875 0 -73.8623046875 0 -73.8623046875 89.7412109375 c 2,18,-1
 -73.8623046875 97.0458984375 l 2,19,20
 -73.9996450445 183.775846873 -73.9996450445 183.775846873 -5.2177734375 184.00390625 c 2,21,-1
 26.8857421875 184.110351562 l 2,22,23
 210 185 210 185 379.809570312 344.430664062 c 0,24,25
 498 456 498 456 549.149414062 410.211914062 c 0,26,27
 594 371 594 371 510.655105628 224 c 0,28,29
 414.750575635 55.8233650124 414.750575635 55.8233650124 377.555664062 -92 c 4,30,31
 330 -280 330 -280 335.459960938 -417.845703125 c 1,32,33
 588.001639099 184.00390625 588.001639099 184.00390625 899.991210938 184.00390625 c 2,34,-1
 913.616210938 184.00390625 l 2,35,36
 939.711914062 184.000042653 939.711914062 184.000042653 939.711914062 98.0888671875 c 2,37,-1
 939.711914062 87.654296875 l 2,38,39
 940 0 940 0 913.616210938 0 c 2,40,-1
 898.8125 0 l 2,0,1
EndSplineSet
EndChar

StartChar: uniFEEE
Encoding: 65262 65262 249
Width: 922
VWidth: 2529
GlyphClass: 2
Flags: W
AnchorPoint: "Anchor-10" 436.482 1136.52 basechar 0
AnchorPoint: "Anchor-7" 358.727 -693.239 basechar 0
LayerCount: 2
Fore
SplineSet
928.396484375 184.00390625 m 6,0,1
 954.491210938 184.239083148 954.491210938 184.239083148 954.491210938 98.0888671875 c 6,2,-1
 954.491210938 87.654296875 l 6,3,4
 954 0 954 0 928.396484375 0 c 6,5,-1
 791.24609375 0 l 21,6,7
 765 -160 765 -160 646 -295.248244134 c 0,8,9
 492 -470 492 -470 216.004882812 -505.055664062 c 0,10,11
 193.095255084 -507.987808546 193.095255084 -507.987808546 170.274414062 -476.09765625 c 2,12,-1
 129.950195312 -419.748046875 l 2,13,14
 105 -385 105 -385 141.916015625 -377.396484375 c 0,15,16
 548 -288 548 -288 640.4921875 17.9853515625 c 1,17,18
 529 -1 529 -1 432.962890625 -1.2685546875 c 0,19,20
 132 -2 132 -2 130.271484375 265.9375 c 0,21,22
 130 320 130 320 143.729492188 382.809570312 c 0,23,24
 174 525 174 525 269.076171875 637.7578125 c 0,25,26
 356 740 356 740 486.181640625 739.686523438 c 0,27,28
 656 740 656 740 732.993164062 566.858398438 c 0,29,30
 788 443 788 443 801.575195312 332.861328125 c 16,31,32
 810 263 810 263 812.670898438 182.9609375 c 13,33,-1
 928.396484375 184.00390625 l 6,0,1
477.006835938 555.014648438 m 0,34,35
 330 554 330 554 287.287109375 351.577148438 c 0,36,37
 278 308 278 308 287.66796875 269.068359375 c 0,38,39
 315 168 315 168 462.180664062 168.270507812 c 0,40,41
 530 168 530 168 653.844726562 184.168945312 c 1,42,43
 651 296 651 296 628.7734375 387.444335938 c 0,44,45
 588 555 588 555 477.006835938 555.014648438 c 0,34,35
EndSplineSet
EndChar

StartChar: uniFEF0
Encoding: 65264 65264 251
Width: 1412
VWidth: 2529
GlyphClass: 2
Flags: W
AnchorPoint: "Anchor-10" 669.669 795.317 basechar 0
AnchorPoint: "Anchor-7" 252.188 -772.646 basechar 0
LayerCount: 2
Fore
SplineSet
1383.68066406 0 m 2,0,1
 1176 0 1176 0 1124.54394531 -63.494140625 c 0,2,3
 1096 -99 1096 -99 1167.61816406 -148.049804688 c 0,4,5
 1274 -220 1274 -220 1288.78808594 -280.0859375 c 0,6,7
 1339 -497 1339 -497 1051.42285156 -635.37109375 c 0,8,9
 877 -720 877 -720 655.318359375 -720.166015625 c 0,10,11
 141 -720 141 -720 110.327148438 -321.346679688 c 0,12,13
 97 -144 97 -144 191.842773438 96.9677734375 c 0,14,15
 266 286 266 286 412.564453125 489.401367188 c 0,16,17
 452.867176248 545.814083316 452.867176248 545.814083316 493.575195312 519.663085938 c 2,18,-1
 540.533203125 489.497070312 l 2,19,20
 577 466 577 466 537.409179688 395.486328125 c 0,21,22
 423 191 423 191 421.850585938 188.514648438 c 0,23,24
 253 -139 253 -139 298.962890625 -326.615234375 c 0,25,26
 354 -549 354 -549 667.83984375 -546.201171875 c 0,27,28
 958 -544 958 -544 1101.07519531 -398.778320312 c 0,29,30
 1160 -339 1160 -339 1099.04296875 -297.793945312 c 4,31,32
 931 -186 931 -186 936.165039062 -81.4365234375 c 0,33,34
 941 5 941 5 999.459960938 71.884765625 c 0,35,36
 1098.00343327 184.00390625 1098.00343327 184.00390625 1384.86035156 184.00390625 c 2,37,-1
 1418.484375 184.00390625 l 2,38,39
 1444.58007812 184.000061862 1444.58007812 184.000061862 1444.58007812 98.0888671875 c 2,40,-1
 1444.58007812 87.654296875 l 2,41,42
 1445 0 1445 0 1418.484375 0 c 2,43,-1
 1383.68066406 0 l 2,0,1
EndSplineSet
EndChar

StartChar: uniFEFB
Encoding: 65275 65275 262
Width: 1107
VWidth: 2529
GlyphClass: 3
Flags: W
AnchorPoint: "Anchor-9" 853.788 1511.97 baselig 0
AnchorPoint: "Anchor-6" 815.571 -203.502 baselig 0
AnchorPoint: "Anchor-6" 168.732 -246.929 baselig 1
AnchorPoint: "Anchor-9" 157.16 1389.96 baselig 1
LayerCount: 2
Fore
SplineSet
656.651367188 244.499023438 m 1,0,1
 813 375 813 375 809.702148438 720.807617188 c 0,2,3
 807 1011 807 1011 778.15234375 1293.94042969 c 0,4,5
 772.03125 1353.69140625 772.03125 1353.69140625 814.626953125 1354.64453125 c 2,6,-1
 889.758789062 1356.32617188 l 2,7,8
 932 1357 932 1357 940.33984375 1291.85253906 c 0,9,10
 968 1072 968 1072 969.975585938 728.354492188 c 0,11,12
 972 340 972 340 824.932617188 176.522460938 c 24,13,14
 666 0 666 0 344.595703125 0.5810546875 c 0,15,16
 103 1 103 1 103 202.0078125 c 1,17,18
 386 161 386 161 510.713867188 184.758789062 c 1,19,-1
 117.137695312 1051.84765625 l 2,20,21
 86.958984375 1119.08984375 86.958984375 1119.08984375 112.350585938 1138.47753906 c 2,22,-1
 184.352539062 1193.45410156 l 2,23,24
 229.288085938 1228.22265625 229.288085938 1228.22265625 256.951171875 1164.54589844 c 2,25,-1
 656.651367188 244.499023438 l 1,0,1
EndSplineSet
LCarets2: 1 0
Ligature2: "'rlig' Required Ligatures in Arabic lookup 16 subtable" uniFEDF uniFE8E
EndChar

StartChar: uniFEFC
Encoding: 65276 65276 263
Width: 1228
VWidth: 2529
GlyphClass: 3
Flags: W
AnchorPoint: "Anchor-9" 891.58 1497.79 baselig 0
AnchorPoint: "Anchor-6" 885.782 -242.516 baselig 0
AnchorPoint: "Anchor-6" 213.554 -251.405 baselig 1
AnchorPoint: "Anchor-9" 147.47 1352.09 baselig 1
LayerCount: 2
Fore
SplineSet
1221.03320312 184.00390625 m 6,0,1
 1234.22265625 184.00390625 l 2,2,3
 1260.31835938 183.999951756 1260.31835938 183.999951756 1260.31835938 98.0888671875 c 2,4,-1
 1260.31835938 87.654296875 l 2,5,6
 1260 0 1260 0 1234.22265625 0 c 2,7,-1
 1219.85351562 0 l 6,8,9
 968 0 968 0 873.208984375 257.1875 c 1,10,11
 762 -0 762 -0 344.595703125 0.5810546875 c 0,12,13
 103 1 103 1 103 202.0078125 c 1,14,15
 390 163 390 163 510.713867188 184.758789062 c 1,16,-1
 117.137695312 1051.84765625 l 2,17,18
 86.9594597535 1119.09033115 86.9594597535 1119.09033115 112.350585938 1138.47753906 c 2,19,20
 184.352539062 1193.45410156 l 2,21,22
 229.287779592 1228.22266898 229.287779592 1228.22266898 256.951171875 1164.54589844 c 2,23,-1
 656.651367188 244.499023438 l 1,24,25
 828.292875587 356.190581701 828.292875587 356.190581701 818.258789062 682.282226562 c 2,26,-1
 799.469726562 1292.89648438 l 2,27,28
 797.994558217 1348.20402528 797.994558217 1348.20402528 842.541992188 1348.55761719 c 2,29,-1
 927.065429688 1349.22851562 l 2,30,31
 972.42578125 1350.00731026 972.42578125 1350.00731026 972.42578125 1289.765625 c 2,32,-1
 972.42578125 732.178710938 l 2,33,34
 972 446 972 446 1027.52050781 328.784179688 c 0,35,36
 1095 184 1095 184 1221.03320312 184.00390625 c 6,0,1
EndSplineSet
LCarets2: 1 0
Ligature2: "'rlig' Required Ligatures in Arabic lookup 16 subtable" uniFEE0 uniFE8E
EndChar

StartChar: arabic_dot
Encoding: 65536 -1 264
Width: 170
VWidth: 2375
GlyphClass: 2
Flags: W
LayerCount: 2
Fore
SplineSet
119.638671875 201.487304688 m 2,0,-1
 137.20703125 185.803710938 l 2,1,2
 247.283203125 87.556640625 247.283203125 87.556640625 137.533203125 -7.005859375 c 2,3,-1
 105.028320312 -35.013671875 l 6,4,5
 79.3056640625 -57.392578125 79.3056640625 -57.392578125 53.6552734375 -33.8173828125 c 6,6,-1
 -45.189453125 56.46875 l 2,7,8
 -72.9375 80.46484375 -72.9375 80.46484375 -45.875 108.955078125 c 2,9,-1
 48.97265625 203.495117188 l 2,10,11
 82.388671875 234.741210938 82.388671875 234.741210938 119.638671875 201.487304688 c 2,0,-1
EndSplineSet
EndChar

StartChar: arabic_2dots
Encoding: 65537 -1 265
Width: 520
VWidth: 2375
GlyphClass: 2
Flags: W
LayerCount: 2
Fore
SplineSet
148.372070312 201.638671875 m 6,0,-1
 165.9296875 185.96484375 l 6,1,2
 271.552734375 91.6669921875 271.552734375 91.6669921875 166.321289062 1 c 6,3,-1
 133.817382812 -27.005859375 l 6,4,5
 110.412109375 -47.173828125 110.412109375 -47.173828125 89.55859375 -26.0927734375 c 6,6,-1
 -10.1015625 64.890625 l 6,7,8
 -33.4912109375 84.5771484375 -33.4912109375 84.5771484375 -9.8974609375 109.415039062 c 6,9,-1
 84.7294921875 203.73828125 l 6,10,11
 114.663085938 231.729492188 114.663085938 231.729492188 148.372070312 201.638671875 c 6,0,-1
445.560546875 199.31640625 m 6,12,-1
 463.118164062 183.642578125 l 6,13,14
 568.734375 89.33984375 568.734375 89.33984375 463.509765625 -1.3212890625 c 6,15,-1
 430.546875 -29.724609375 l 6,16,17
 407.159179688 -49.05078125 407.159179688 -49.05078125 386.747070312 -28.4150390625 c 6,18,-1
 287.532226562 62.2109375 l 6,19,20
 264.005859375 83.48046875 264.005859375 83.48046875 287.291992188 107.09375 c 6,21,-1
 381.918945312 201.416992188 l 6,22,23
 411.8515625 229.409179688 411.8515625 229.409179688 445.560546875 199.31640625 c 6,12,-1
EndSplineSet
EndChar

StartChar: arabic_3dots
Encoding: 65538 -1 266
Width: 524
VWidth: 2375
GlyphClass: 2
Flags: W
LayerCount: 2
Fore
SplineSet
291.799804688 426.2734375 m 2,0,-1
 309.294921875 410.653320312 l 2,1,2
 410.489257812 320.327148438 410.489257812 320.327148438 309.758789062 233.533203125 c 2,3,-1
 277.252929688 205.52734375 l 2,4,5
 257.541015625 188.540039062 257.541015625 188.540039062 240.108398438 206.157226562 c 2,6,-1
 140.684570312 296.98828125 l 2,7,8
 120.490234375 314.288085938 120.490234375 314.288085938 140.627929688 334.299804688 c 2,9,-1
 235.1953125 428.564453125 l 2,10,11
 261.5859375 453.2421875 261.5859375 453.2421875 291.799804688 426.2734375 c 2,0,-1
135.015625 181.380859375 m 2,12,-1
 152.57421875 165.704101562 l 2,13,14
 253.775390625 75.3818359375 253.775390625 75.3818359375 153.038085938 -11.4150390625 c 2,15,-1
 120.532226562 -39.4228515625 l 2,16,17
 100.817382812 -56.408203125 100.817382812 -56.408203125 83.3896484375 -38.79296875 c 2,18,-1
 -16.0390625 52.0390625 l 2,19,20
 -35.2861328125 69.1806640625 -35.2861328125 69.1806640625 -16.0439453125 89.400390625 c 2,21,-1
 78.4755859375 183.616210938 l 2,22,23
 104.866210938 208.293945312 104.866210938 208.293945312 135.015625 181.380859375 c 2,12,-1
445.848632812 183.958007812 m 2,24,-1
 463.694335938 168.026367188 l 2,25,26
 564.068359375 78.44140625 564.068359375 78.44140625 464.771484375 -8.5634765625 c 2,27,-1
 431.65234375 -37.099609375 l 2,28,29
 411.940429688 -54.0869140625 411.940429688 -54.0869140625 394.5078125 -36.4697265625 c 2,30,-1
 295.1171875 54.3271484375 l 2,31,32
 275.69921875 72.1767578125 275.69921875 72.1767578125 295.026367188 91.6748046875 c 2,33,-1
 389.595703125 185.9375 l 2,34,35
 416.208984375 210.416015625 416.208984375 210.416015625 445.848632812 183.958007812 c 2,24,-1
EndSplineSet
EndChar

StartChar: arabic_3dots_a
Encoding: 65539 -1 267
Width: 523
VWidth: 2375
GlyphClass: 2
Flags: W
LayerCount: 2
Fore
SplineSet
137.919921875 211.986328125 m 6,0,-1
 155.4765625 196.313476562 l 6,1,2
 256.233398438 106.37109375 256.233398438 106.37109375 156.37890625 19.5703125 c 6,3,-1
 123.434570312 -8.8134765625 l 6,4,5
 103.719726562 -25.8017578125 103.719726562 -25.8017578125 86.2919921875 -8.18359375 c 6,6,-1
 -13.0791015625 82.59375 l 6,7,8
 -32.197265625 100.368164062 -32.197265625 100.368164062 -13.1591796875 119.990234375 c 6,9,-1
 81.376953125 214.223632812 l 6,10,11
 107.594726562 239.057617188 107.594726562 239.057617188 137.919921875 211.986328125 c 6,0,-1
446.705078125 210.836914062 m 6,12,-1
 464.275390625 195.151367188 l 6,13,14
 565.465820312 104.821289062 565.465820312 104.821289062 464.737304688 18.0322265625 c 6,15,-1
 432.232421875 -9.9755859375 l 6,16,17
 412.450195312 -26.89453125 412.450195312 -26.89453125 395.087890625 -9.3447265625 c 6,18,-1
 295.7109375 81.4404296875 l 6,19,20
 276.666015625 99.3046875 276.666015625 99.3046875 295.63671875 118.828125 c 6,21,-1
 390.258789062 213.146484375 l 6,22,23
 415.537109375 239.028320312 415.537109375 239.028320312 446.705078125 210.836914062 c 6,12,-1
291.434570312 -22.76171875 m 6,24,-1
 308.715820312 -38.1875 l 6,25,26
 409.908203125 -128.512695312 409.908203125 -128.512695312 309.177734375 -215.30859375 c 6,27,-1
 276.673828125 -243.314453125 l 6,28,29
 256.961914062 -260.302734375 256.961914062 -260.302734375 239.436523438 -242.58984375 c 6,30,-1
 140.030273438 -151.788085938 l 6,31,32
 120.388671875 -135.567382812 120.388671875 -135.567382812 140.09765625 -114.490234375 c 6,33,-1
 234.616210938 -20.2763671875 l 6,34,35
 261.005859375 4.40234375 261.005859375 4.40234375 291.434570312 -22.76171875 c 6,24,-1
EndSplineSet
EndChar

StartChar: uni066E.fina
Encoding: 65540 -1 268
Width: 2070
VWidth: 2529
GlyphClass: 2
Flags: W
AnchorPoint: "Anchor-10" 750.368 1229.04 basechar 0
AnchorPoint: "Anchor-7" 750.368 -209.888 basechar 0
LayerCount: 2
Fore
SplineSet
2065.25976562 0 m 6,0,1
 1747 0 1747 0 1725.32617188 249.349609375 c 5,2,3
 1447 -29 1447 -29 839.108398438 -29.2177734375 c 4,4,5
 109 -29 109 -29 106.58203125 485.499023438 c 4,6,7
 106 631 106 631 176.3515625 780.538085938 c 4,8,9
 218.164583445 868.345626007 218.164583445 868.345626007 265.048828125 845.84765625 c 6,10,-1
 321.3984375 818.807617188 l 6,11,12
 362 799 362 799 332.400390625 734.624023438 c 4,13,14
 274 607 274 607 274.799804688 506.1796875 c 4,15,16
 276 157 276 157 862.974609375 156.170898438 c 4,17,18
 1145 156 1145 156 1339.87402344 221.725585938 c 4,19,20
 1638 321 1638 321 1729.34082031 564.857421875 c 4,21,22
 1750.05561214 620.1484375 1750.05561214 620.1484375 1783.60253906 620.1484375 c 6,23,-1
 1833.69140625 620.1484375 l 6,24,25
 1868.8008882 620.000837067 1868.8008882 620.000837067 1864.08496094 583.31640625 c 6,26,-1
 1854.56054688 509.227539062 l 6,27,28
 1813.00049918 184.00390625 1813.00049918 184.00390625 2066.43945312 184.00390625 c 6,29,-1
 2076.15039062 184.00390625 l 6,30,31
 2102.24609375 183.999962812 2102.24609375 183.999962812 2102.24609375 98.0888671875 c 6,32,-1
 2102.24609375 87.654296875 l 6,33,34
 2102 0 2102 0 2076.15039062 0 c 6,35,-1
 2065.25976562 0 l 6,0,1
EndSplineSet
EndChar

StartChar: uni06A1.fina
Encoding: 65543 -1 269
Width: 2022
VWidth: 2529
GlyphClass: 2
Flags: W
AnchorPoint: "Anchor-10" 624.912 1353.25 basechar 0
AnchorPoint: "Anchor-7" 749.129 -261.547 basechar 0
LayerCount: 2
Fore
SplineSet
2003.08496094 0 m 2,0,1
 1659 0 1659 0 1532.0546875 104.565429688 c 1,2,3
 1356 -29 1356 -29 839.108398438 -29.2177734375 c 0,4,5
 109 -29 109 -29 106.58203125 485.499023438 c 0,6,7
 106 631 106 631 176.3515625 780.538085938 c 0,8,9
 218.164583445 868.345626007 218.164583445 868.345626007 265.048828125 845.84765625 c 2,10,-1
 321.3984375 818.807617188 l 2,11,12
 362 799 362 799 332.400390625 734.624023438 c 0,13,14
 274 607 274 607 274.799804688 506.1796875 c 0,15,16
 277 157 277 157 862.974609375 156.170898438 c 0,17,18
 1215 156 1215 156 1358.63671875 204.526367188 c 1,19,20
 1202 343 1202 343 1201.46386719 539.506835938 c 0,21,22
 1201 683 1201 683 1304.37792969 780.033203125 c 0,23,24
 1404 874 1404 874 1539.40429688 873.838867188 c 0,25,26
 1676 873 1676 873 1776.79980469 780.033203125 c 0,27,28
 1879 686 1879 686 1879.71484375 539.506835938 c 0,29,30
 1880 350 1880 350 1706.24023438 193.680664062 c 5,31,32
 1854 184 1854 184 2004.26367188 184.00390625 c 2,33,-1
 2027.88867188 184.00390625 l 2,34,35
 2053.984375 184.000002337 2053.984375 184.000002337 2053.984375 98.0888671875 c 2,36,-1
 2053.984375 87.654296875 l 2,37,38
 2054 0 2054 0 2027.88867188 0 c 2,39,-1
 2003.08496094 0 l 2,0,1
1540.44726562 699.162109375 m 128,-1,41
 1470.53320312 699.162109375 1470.53320312 699.162109375 1424.3671875 653.84765625 c 0,42,43
 1368.26953125 597.942382812 1368.26953125 597.942382812 1367.50976562 534.811523438 c 0,44,45
 1367.2265625 394.459960938 1367.2265625 394.459960938 1540.58886719 282.163085938 c 1,46,47
 1713.66894531 394.459960938 1713.66894531 394.459960938 1713.66894531 534.811523438 c 0,48,49
 1713.66894531 598.986328125 1713.66894531 598.986328125 1656.81054688 653.84765625 c 0,50,40
 1610.36230469 699.162109375 1610.36230469 699.162109375 1540.44726562 699.162109375 c 128,-1,41
EndSplineSet
EndChar

StartChar: uni06A1.init
Encoding: 65544 -1 270
Width: 891
VWidth: 2529
GlyphClass: 2
Flags: W
AnchorPoint: "Anchor-10" 429.037 1356.82 basechar 0
AnchorPoint: "Anchor-7" 400.016 -199.438 basechar 0
LayerCount: 2
Fore
SplineSet
-5.2177734375 184.00390625 m 2,0,-1
 33.8876953125 183.994140625 l 2,1,2
 557 184 557 184 620.754882812 406.930664062 c 1,3,4
 510 388 510 388 413.225585938 387.676757812 c 4,5,6
 109 387 109 387 110.534179688 613.578125 c 0,7,8
 111 668 111 668 123.993164062 730.450195312 c 0,9,10
 155 873 155 873 249.33984375 985.3984375 c 0,11,12
 336 1087 336 1087 466.444335938 1087.32714844 c 0,13,14
 642 1087 642 1087 713.256835938 924.93359375 c 0,15,16
 765 809 765 809 781.837890625 680.501953125 c 0,17,18
 830 325 830 325 651.845703125 157.013671875 c 0,19,20
 484 0 484 0 33.8505859375 0 c 2,21,-1
 -5.2177734375 0 l 2,22,23
 -73.8623046875 0 -73.8623046875 0 -73.8623046875 89.7412109375 c 2,24,-1
 -73.8623046875 97.0458984375 l 2,25,26
 -74 184 -74 184 -5.2177734375 184.00390625 c 2,0,-1
454.139648438 902.655273438 m 0,27,28
 313.049804688 899.497070312 313.049804688 899.497070312 267.55078125 699.217773438 c 0,29,30
 234.001953125 555.1171875 234.001953125 555.1171875 442.444335938 555.215820312 c 0,31,32
 510.271484375 555.141601562 510.271484375 555.141601562 634.107421875 571.114257812 c 1,33,34
 631.317382812 642.795898438 631.317382812 642.795898438 609.036132812 735.084960938 c 0,35,36
 568.70703125 904.71484375 568.70703125 904.71484375 454.139648438 902.655273438 c 0,27,28
EndSplineSet
EndChar

StartChar: uni06A1.medi
Encoding: 65545 -1 271
Width: 944
VWidth: 2529
GlyphClass: 2
Flags: W
AnchorPoint: "Anchor-10" 512.817 1166.94 basechar 0
AnchorPoint: "Anchor-7" 491.947 -199.438 basechar 0
LayerCount: 2
Fore
SplineSet
925.499023438 0 m 6,0,1
 625 0 625 0 516.749023438 114.982421875 c 5,2,3
 384 0 384 0 29.37890625 0 c 2,4,-1
 -5.2177734375 0 l 2,5,6
 -73.8623046875 0 -73.8623046875 0 -73.8623046875 89.7412109375 c 2,7,-1
 -73.8623046875 97.0458984375 l 2,8,9
 -74.0000536452 184.033876742 -74.0000536452 184.033876742 -5.2177734375 184.00390625 c 2,10,-1
 17.1943359375 183.994140625 l 2,11,12
 156 184 156 184 349.197265625 193.663085938 c 5,13,14
 176 348 176 348 175.723632812 539.489257812 c 4,15,16
 176 683 176 683 278.637695312 780.016601562 c 4,17,18
 378 874 378 874 513.663085938 873.821289062 c 4,19,20
 650 873 650 873 751.059570312 780.016601562 c 4,21,22
 854 686 854 686 853.973632812 539.489257812 c 4,23,24
 855 350 855 350 680.5 193.663085938 c 5,25,26
 781.958969176 184.00390625 781.958969176 184.00390625 926.677734375 184.00390625 c 6,27,-1
 950.302734375 184.00390625 l 6,28,29
 976.3984375 183.999939433 976.3984375 183.999939433 976.3984375 98.0888671875 c 6,30,-1
 976.3984375 87.654296875 l 6,31,32
 976 0 976 0 950.302734375 0 c 6,33,-1
 925.499023438 0 l 6,0,1
514.70703125 699.14453125 m 4,34,35
 445 699 445 699 398.626953125 653.830078125 c 4,36,37
 342 597 342 597 341.76953125 534.793945312 c 4,38,39
 341 394 341 394 514.848632812 282.145507812 c 5,40,41
 688 394 688 394 687.927734375 534.793945312 c 4,42,43
 688 599 688 599 631.0703125 653.830078125 c 4,44,45
 585 699 585 699 514.70703125 699.14453125 c 4,34,35
EndSplineSet
EndChar

StartChar: uni066F.fina
Encoding: 65546 -1 272
Width: 1537
VWidth: 2529
GlyphClass: 2
Flags: W
AnchorPoint: "Anchor-10" 233.261 1042.72 basechar 0
AnchorPoint: "Anchor-7" 330.365 -836.562 basechar 0
LayerCount: 2
Fore
SplineSet
1542.92578125 0.599609375 m 2,0,-1
 1421.54394531 1.990234375 l 1,1,2
 1385 -580 1385 -580 753.407226562 -578.202148438 c 0,3,4
 110 -576 110 -576 112.5703125 -74.0712890625 c 0,5,6
 114 225 114 225 341.775390625 511.315429688 c 0,7,8
 384.806614243 565.755342681 384.806614243 565.755342681 430.965820312 534.046875 c 2,9,-1
 481.053710938 499.639648438 l 2,10,11
 517 475 517 475 473.657226562 411.138671875 c 0,12,13
 283 139 283 139 283.80859375 -57.392578125 c 0,14,15
 285 -405 285 -405 782.625 -400.877929688 c 0,16,17
 1144 -398 1144 -398 1228.19921875 -147.680664062 c 0,18,19
 1251 -79 1251 -79 1251.87207031 19.2646484375 c 1,20,21
 1142 0 1142 0 1044.34277344 0.0107421875 c 0,22,23
 740 -1 740 -1 741.651367188 267.217773438 c 0,24,25
 742 321 742 321 755.109375 384.08984375 c 0,26,27
 787 529 787 529 880.456054688 639.038085938 c 0,28,29
 967 741 967 741 1097.56152344 740.966796875 c 0,30,31
 1268 741 1268 741 1344.37304688 568.137695312 c 0,32,33
 1398 447 1398 447 1412.95507812 334.141601562 c 16,34,35
 1422 263 1422 263 1424.05078125 184.240234375 c 1,36,-1
 1542.92578125 184.603515625 l 2,37,38
 1569.02050781 185.000311842 1569.02050781 185.000311842 1569.02050781 98.6884765625 c 2,39,-1
 1569.02050781 88.25390625 l 2,40,41
 1569 0 1569 0 1542.92578125 0.599609375 c 2,0,-1
1088.38671875 556.294921875 m 0,42,43
 944 555 944 555 898.66796875 352.856445312 c 0,44,45
 889 310 889 310 899.047851562 270.34765625 c 0,46,47
 925 171 925 171 1073.56054688 169.55078125 c 0,48,49
 1142 169 1142 169 1265.22460938 185.44921875 c 1,50,51
 1262 297 1262 297 1240.15332031 388.724609375 c 0,52,53
 1200 558 1200 558 1088.38671875 556.294921875 c 0,42,43
EndSplineSet
EndChar

StartChar: arabic_ring
Encoding: 65549 -1 273
Width: 505
VWidth: 2375
GlyphClass: 2
Flags: W
LayerCount: 2
Fore
SplineSet
308.924804688 352.737304688 m 0,0,1
 283.370117188 368.002929688 283.370117188 368.002929688 243.0078125 368.002929688 c 128,-1,2
 202.64453125 368.002929688 202.64453125 368.002929688 169.528320312 334.88671875 c 128,-1,3
 136.411132812 301.770507812 136.411132812 301.770507812 136.411132812 252.728515625 c 128,-1,4
 136.411132812 203.688476562 136.411132812 203.688476562 169.538085938 171.15234375 c 128,-1,5
 202.666015625 138.616210938 202.666015625 138.616210938 251.116210938 138.616210938 c 0,6,7
 299.567382812 138.616210938 299.567382812 138.616210938 332.682617188 171.732421875 c 128,-1,8
 365.798828125 204.84765625 365.798828125 204.84765625 365.798828125 261.807617188 c 128,-1,9
 365.798828125 318.765625 365.798828125 318.765625 308.924804688 352.737304688 c 0,0,1
503.25390625 253.309570312 m 128,-1,11
 503.25390625 147.362304688 503.25390625 147.362304688 430.1484375 73.6806640625 c 128,-1,12
 357.04296875 0 357.04296875 0 251.10546875 0 c 128,-1,13
 145.176757812 0 145.176757812 0 72.06640625 73.685546875 c 128,-1,14
 -1.0439453125 147.372070312 -1.0439453125 147.372070312 -1.0439453125 253.309570312 c 128,-1,15
 -1.0439453125 359.247070312 -1.0439453125 359.247070312 72.0615234375 432.353515625 c 128,-1,16
 145.166992188 505.458984375 145.166992188 505.458984375 251.10546875 505.458984375 c 128,-1,17
 357.052734375 505.458984375 357.052734375 505.458984375 430.729492188 432.93359375 c 0,18,10
 503.25390625 359.256835938 503.25390625 359.256835938 503.25390625 253.309570312 c 128,-1,11
EndSplineSet
EndChar

StartChar: arabic_gaf_bar
Encoding: 65550 -1 274
Width: 778
VWidth: 2375
GlyphClass: 2
Flags: W
LayerCount: 2
Fore
SplineSet
736.7109375 1855.54980469 m 0,0,1
 394.625976562 1774.453125 394.625976562 1774.453125 20.8701171875 1532.90917969 c 0,2,3
 -1.0439453125 1518.74804688 -1.0439453125 1518.74804688 -1.0439453125 1543.33691406 c 6,4,-1
 -1.0439453125 1612.20703125 l 2,5,6
 -1.0439453125 1639.81640625 -1.0439453125 1639.81640625 20.8701171875 1654.24414062 c 0,7,8
 379.655273438 1890.47363281 379.655273438 1890.47363281 742.971679688 1978.97558594 c 0,9,10
 767.9375 1985.05761719 767.9375 1985.05761719 767.9375 1961.78027344 c 2,11,-1
 767.9375 1892.90917969 l 2,12,13
 767.9375 1862.95214844 767.9375 1862.95214844 736.7109375 1855.54980469 c 0,0,1
EndSplineSet
EndChar

StartChar: uni066E.init.math
Encoding: 65560 -1 284
Width: 1014
VWidth: 2529
GlyphClass: 2
Flags: W
LayerCount: 2
Fore
SplineSet
661.139648438 108.400390625 m 0,0,1
 577.967773438 9.8671875 577.967773438 9.8671875 394.359375 9.8671875 c 2,2,-1
 -4.9912109375 9.8671875 l 1,3,-1
 -4.9912109375 192.458007812 l 1,4,-1
 326.041015625 192.458007812 l 2,5,6
 587.517578125 192.458007812 587.517578125 192.458007812 587.517578125 462.629882812 c 2,7,-1
 587.517578125 709.194335938 l 1,8,-1
 770.109375 709.194335938 l 1,9,-1
 770.109375 462.629882812 l 2,10,11
 770.109375 239.349609375 770.109375 239.349609375 661.139648438 108.400390625 c 0,0,1
EndSplineSet
EndChar

StartChar: guillemotleft
Encoding: 171 171 285
Width: 1004
VWidth: 2264
Flags: W
LayerCount: 2
Fore
SplineSet
389.724609375 958.270507812 m 1,0,-1
 557.287109375 958.270507812 l 1,1,-1
 521.833984375 895.9296875 l 2,2,3
 328.702148438 556.185546875 328.702148438 556.185546875 328.49609375 478.899414062 c 0,4,5
 328.701171875 401.065429688 328.701171875 401.065429688 521.778320312 62.9150390625 c 2,6,-1
 557.41015625 0.509765625 l 1,7,-1
 389.764648438 0.509765625 l 1,8,9
 152.350585938 375.66015625 152.350585938 375.66015625 152.146484375 478.96484375 c 0,10,11
 152.350585938 582.2734375 152.350585938 582.2734375 389.724609375 958.270507812 c 1,0,-1
753.489257812 0.509765625 m 1,12,13
 515.489257812 375.66015625 515.489257812 375.66015625 515.487304688 478.96484375 c 128,-1,14
 515.489257812 582.2734375 515.489257812 582.2734375 753.44921875 958.270507812 c 1,15,-1
 921.009765625 958.270507812 l 1,16,-1
 885.557617188 895.931640625 l 2,17,18
 691.840820312 555.141601562 691.840820312 555.141601562 691.84375 478.681640625 c 128,-1,19
 691.840820312 402.075195312 691.840820312 402.075195312 885.5 62.9150390625 c 2,20,-1
 921.133789062 0.509765625 l 1,21,-1
 753.489257812 0.509765625 l 1,12,13
EndSplineSet
EndChar

StartChar: guillemotright
Encoding: 187 187 286
Width: 998
VWidth: 2264
Flags: W
LayerCount: 2
Fore
SplineSet
614.959960938 958.270507812 m 5,0,1
 852.5390625 582.2734375 852.5390625 582.2734375 852.538085938 478.96484375 c 132,-1,2
 852.5390625 375.66015625 852.5390625 375.66015625 614.919921875 0.509765625 c 5,3,-1
 447.274414062 0.509765625 l 5,4,-1
 482.905273438 62.9130859375 l 6,5,6
 676.188476562 401.747070312 676.188476562 401.747070312 676.189453125 478.899414062 c 132,-1,7
 676.188476562 555.970703125 676.188476562 555.970703125 482.8515625 895.9296875 c 6,8,-1
 447.397460938 958.270507812 l 5,9,-1
 614.959960938 958.270507812 l 5,0,1
251.233398438 958.270507812 m 5,10,11
 489.401367188 582.2734375 489.401367188 582.2734375 489.405273438 478.96484375 c 132,-1,12
 489.401367188 375.66015625 489.401367188 375.66015625 251.194335938 0.509765625 c 5,13,-1
 83.5517578125 0.509765625 l 5,14,-1
 119.18359375 62.9130859375 l 6,15,16
 313.049804688 402.791015625 313.049804688 402.791015625 313.044921875 478.907226562 c 132,-1,17
 313.049804688 554.942382812 313.049804688 554.942382812 119.127929688 895.9296875 c 6,18,-1
 83.6748046875 958.270507812 l 5,19,-1
 251.233398438 958.270507812 l 5,10,11
EndSplineSet
EndChar

